<svg width="226" height="167" viewBox="0 0 226 167" fill="none" xmlns="http://www.w3.org/2000/svg">
<g clip-path="url(#clip0_78_7321)">
<path d="M83.6738 115.984H76.9874V127.737H60.8096V115.984H36.5684V103.93L61.8296 67.0225H76.9925V103.736H83.6789L83.6738 115.984ZM60.7841 103.746V96.6736C60.7841 95.3428 60.8351 93.553 60.932 91.2941C60.9464 90.1011 61.023 88.9097 61.1615 87.7247H60.7025C59.7931 89.8064 58.724 91.8147 57.5047 93.7314L50.7775 103.741L60.7841 103.746Z" fill="#FF9900"/>
<path d="M131.815 97.4587C131.815 108.201 130.014 116.07 126.414 121.067C122.813 126.065 117.303 128.563 109.884 128.563C102.628 128.563 97.159 125.954 93.4766 120.736C89.7943 115.518 87.9531 107.759 87.9531 97.4587C87.9531 86.6623 89.7535 78.7451 93.3542 73.7072C96.955 68.6693 102.465 66.1504 109.884 66.1504C117.109 66.1504 122.572 68.773 126.271 74.0183C129.97 79.2635 131.818 87.077 131.815 97.4587ZM104.274 97.4587C104.274 104.326 104.704 109.047 105.564 111.624C106.424 114.201 107.864 115.487 109.884 115.484C111.924 115.484 113.371 114.155 114.224 111.497C115.078 108.838 115.499 104.159 115.489 97.4587C115.489 90.7348 115.061 86.0215 114.204 83.319C113.347 80.6165 111.907 79.2669 109.884 79.2703C107.864 79.2703 106.424 80.5723 105.564 83.1762C104.704 85.7802 104.274 90.541 104.274 97.4587Z" fill="#FF9900"/>
<path d="M183.362 115.984H176.676V127.737H160.478V115.984H136.257V103.93L161.513 67.0122H176.676V103.726H183.362V115.984ZM160.478 103.746V96.6736C160.478 95.3427 160.524 93.5529 160.62 91.294C160.635 90.1011 160.711 88.9097 160.85 87.7247H160.391C159.487 89.807 158.421 91.8154 157.203 93.7314L150.476 103.741L160.478 103.746Z" fill="#FF9900"/>
<path d="M12.2354 80.4888H36.7826" stroke="#2C3E50" stroke-width="2.16" stroke-linecap="round" stroke-linejoin="round"/>
<path d="M42.6787 80.4888H47.9166" stroke="#2C3E50" stroke-width="2.16" stroke-linecap="round" stroke-linejoin="round"/>
<path d="M7.78809 73.5796H51.7365" stroke="#2C3E50" stroke-width="2.16" stroke-linecap="round" stroke-linejoin="round"/>
<path d="M4.16682 73.5796H0.550781" stroke="#2C3E50" stroke-width="2.16" stroke-linecap="round" stroke-linejoin="round"/>
<path d="M7.78809 67.0171H22.3798" stroke="#2C3E50" stroke-width="2.16" stroke-linecap="round" stroke-linejoin="round"/>
<path d="M26.2861 67.0171H56.9281" stroke="#2C3E50" stroke-width="2.16" stroke-linecap="round" stroke-linejoin="round"/>
<path d="M185.77 135.299H212.046" stroke="#2C3E50" stroke-width="2.16" stroke-linecap="round" stroke-linejoin="round"/>
<path d="M216.314 135.299H220.114" stroke="#2C3E50" stroke-width="2.16" stroke-linecap="round" stroke-linejoin="round"/>
<path d="M191.018 128.39H225.449" stroke="#2C3E50" stroke-width="2.16" stroke-linecap="round" stroke-linejoin="round"/>
<path d="M188.396 128.39H185.77" stroke="#2C3E50" stroke-width="2.16" stroke-linecap="round" stroke-linejoin="round"/>
<path d="M185.77 121.827H201.601" stroke="#2C3E50" stroke-width="2.16" stroke-linecap="round" stroke-linejoin="round"/>
<path d="M204.432 121.827H216.315" stroke="#2C3E50" stroke-width="2.16" stroke-linecap="round" stroke-linejoin="round"/>
<path d="M86.8203 115.749H80.1288V127.502H63.9306V115.749H39.7148V103.705L64.971 66.7876H80.1288V103.501H86.8203V115.749ZM63.9357 103.511V96.4387C63.9357 95.113 63.9833 93.3198 64.0785 91.0592C64.0932 89.8663 64.1698 88.6749 64.308 87.4899H63.8694C62.9575 89.5622 61.8884 91.5618 60.6716 93.4711L53.9393 103.481L63.9357 103.511Z" stroke="#2C3E50" stroke-width="3.27" stroke-miterlimit="10"/>
<path d="M134.956 97.2295C134.956 107.975 133.158 115.845 129.56 120.838C125.963 125.832 120.451 128.33 113.026 128.334C105.773 128.334 100.304 125.725 96.6182 120.507C92.9325 115.289 91.0913 107.53 91.0947 97.2295C91.0947 86.4296 92.8951 78.5107 96.4958 73.4729C100.097 68.435 105.606 65.916 113.026 65.916C120.251 65.916 125.713 68.5403 129.413 73.789C133.112 79.0377 134.96 86.8511 134.956 97.2295ZM107.415 97.2295C107.415 104.096 107.844 108.816 108.701 111.39C109.557 113.963 110.997 115.251 113.02 115.255C115.061 115.255 116.507 113.926 117.361 111.267C118.214 108.609 118.637 103.93 118.631 97.2295C118.631 90.5021 118.201 85.7888 117.34 83.0897C116.48 80.3906 115.04 79.0411 113.02 79.0411C111.001 79.0411 109.561 80.3413 108.701 82.9418C107.84 85.5424 107.414 90.3049 107.42 97.2295H107.415Z" stroke="#2C3E50" stroke-width="3.27" stroke-miterlimit="10"/>
<path d="M186.504 115.749H179.817V127.502H163.619V115.749H139.403V103.705L164.659 66.7876H179.817V103.501H186.504V115.749ZM163.619 103.511V96.4388C163.619 95.113 163.667 93.3198 163.762 91.0592C163.777 89.8663 163.853 88.6749 163.991 87.4899H163.537C162.626 89.5622 161.556 91.5618 160.34 93.4711L153.633 103.501L163.619 103.511Z" stroke="#2C3E50" stroke-width="3.27" stroke-miterlimit="10"/>
<path d="M197.235 78.9951V73.3657" stroke="#2C3E50" stroke-width="2.16" stroke-linecap="round" stroke-linejoin="round"/>
<path d="M193.307 80.6215L189.324 76.6392" stroke="#2C3E50" stroke-width="2.16" stroke-linecap="round" stroke-linejoin="round"/>
<path d="M191.68 84.5479H186.05" stroke="#2C3E50" stroke-width="2.16" stroke-linecap="round" stroke-linejoin="round"/>
<path d="M193.307 88.4795L189.324 92.4568" stroke="#2C3E50" stroke-width="2.16" stroke-linecap="round" stroke-linejoin="round"/>
<path d="M197.235 90.106V95.7353" stroke="#2C3E50" stroke-width="2.16" stroke-linecap="round" stroke-linejoin="round"/>
<path d="M201.167 88.4795L205.15 92.4568" stroke="#2C3E50" stroke-width="2.16" stroke-linecap="round" stroke-linejoin="round"/>
<path d="M202.794 84.5479H208.425" stroke="#2C3E50" stroke-width="2.16" stroke-linecap="round" stroke-linejoin="round"/>
<path d="M201.167 80.6215L205.15 76.6392" stroke="#2C3E50" stroke-width="2.16" stroke-linecap="round" stroke-linejoin="round"/>
<path d="M20.6562 107.019V102.95" stroke="#2C3E50" stroke-width="2.16" stroke-linecap="round" stroke-linejoin="round"/>
<path d="M17.8152 108.197L14.9336 105.321" stroke="#2C3E50" stroke-width="2.16" stroke-linecap="round" stroke-linejoin="round"/>
<path d="M16.6364 111.038H12.5664" stroke="#2C3E50" stroke-width="2.16" stroke-linecap="round" stroke-linejoin="round"/>
<path d="M17.8152 113.878L14.9336 116.754" stroke="#2C3E50" stroke-width="2.16" stroke-linecap="round" stroke-linejoin="round"/>
<path d="M20.6562 115.056V119.125" stroke="#2C3E50" stroke-width="2.16" stroke-linecap="round" stroke-linejoin="round"/>
<path d="M23.4971 113.878L26.3736 116.754" stroke="#2C3E50" stroke-width="2.16" stroke-linecap="round" stroke-linejoin="round"/>
<path d="M24.6699 111.038H28.7399" stroke="#2C3E50" stroke-width="2.16" stroke-linecap="round" stroke-linejoin="round"/>
<path d="M23.4971 108.197L26.3736 105.321" stroke="#2C3E50" stroke-width="2.16" stroke-linecap="round" stroke-linejoin="round"/>
<path d="M130.779 22.9817V18.9126" stroke="#2C3E50" stroke-width="2.16" stroke-linecap="round" stroke-linejoin="round"/>
<path d="M127.938 24.1593L125.062 21.2783" stroke="#2C3E50" stroke-width="2.16" stroke-linecap="round" stroke-linejoin="round"/>
<path d="M126.76 26.9995H122.69" stroke="#2C3E50" stroke-width="2.16" stroke-linecap="round" stroke-linejoin="round"/>
<path d="M127.938 29.8398L125.062 32.7157" stroke="#2C3E50" stroke-width="2.16" stroke-linecap="round" stroke-linejoin="round"/>
<path d="M130.779 31.0127V35.0818" stroke="#2C3E50" stroke-width="2.16" stroke-linecap="round" stroke-linejoin="round"/>
<path d="M133.62 29.8398L136.497 32.7157" stroke="#2C3E50" stroke-width="2.16" stroke-linecap="round" stroke-linejoin="round"/>
<path d="M134.793 26.9995H138.863" stroke="#2C3E50" stroke-width="2.16" stroke-linecap="round" stroke-linejoin="round"/>
<path d="M133.62 24.1593L136.497 21.2783" stroke="#2C3E50" stroke-width="2.16" stroke-linecap="round" stroke-linejoin="round"/>
<path d="M51.7363 57.1149V39.5078H143.285V78.6331" stroke="#2C3E50" stroke-width="2.16" stroke-linecap="round" stroke-linejoin="round"/>
<path d="M111.016 26.9995V49.0428H171.723V59.0676" stroke="#2C3E50" stroke-width="2.16" stroke-linecap="round" stroke-linejoin="round"/>
<path d="M53.9189 59.3025C53.9199 59.7356 53.7924 60.1592 53.5523 60.5198C53.3123 60.8803 52.9706 61.1614 52.5706 61.3276C52.1706 61.4938 51.7303 61.5376 51.3053 61.4533C50.8804 61.3691 50.4901 61.1607 50.1838 60.8544C49.8775 60.5482 49.669 60.1579 49.5848 59.7331C49.5005 59.3083 49.5443 58.8681 49.7105 58.4681C49.8767 58.0682 50.158 57.7266 50.5186 57.4867C50.8791 57.2467 51.3029 57.1191 51.7361 57.1201C52.315 57.1201 52.8702 57.3501 53.2796 57.7593C53.689 58.1686 53.9189 58.7237 53.9189 59.3025Z" stroke="#2C3E50" stroke-width="2.16" stroke-linecap="round" stroke-linejoin="round"/>
<path d="M111.016 26.9947C112.221 26.9947 113.199 26.0176 113.199 24.8123C113.199 23.607 112.221 22.6299 111.016 22.6299C109.81 22.6299 108.833 23.607 108.833 24.8123C108.833 26.0176 109.81 26.9947 111.016 26.9947Z" stroke="#2C3E50" stroke-width="2.16" stroke-linecap="round" stroke-linejoin="round"/>
<path d="M173.906 61.4847C173.907 61.9175 173.78 62.341 173.54 62.7014C173.3 63.0618 172.959 63.3429 172.559 63.5093C172.159 63.6756 171.719 63.7197 171.295 63.6359C170.87 63.552 170.479 63.3441 170.173 63.0384C169.866 62.7326 169.658 62.3429 169.573 61.9184C169.488 61.4939 169.531 61.0538 169.696 60.6538C169.862 60.2538 170.142 59.9119 170.502 59.6713C170.862 59.4307 171.285 59.3022 171.718 59.3022C172.298 59.3022 172.853 59.532 173.264 59.9411C173.674 60.3503 173.905 60.9054 173.906 61.4847Z" stroke="#2C3E50" stroke-width="2.16" stroke-linecap="round" stroke-linejoin="round"/>
<path d="M145.473 81.1775C145.473 81.6092 145.345 82.0311 145.105 82.39C144.865 82.7489 144.525 83.0286 144.126 83.1938C143.727 83.359 143.288 83.4022 142.864 83.318C142.441 83.2338 142.052 83.0259 141.747 82.7207C141.441 82.4155 141.234 82.0266 141.149 81.6033C141.065 81.1799 141.108 80.7411 141.274 80.3423C141.439 79.9436 141.719 79.6027 142.078 79.3629C142.437 79.1231 142.859 78.9951 143.29 78.9951C143.869 78.9951 144.424 79.225 144.834 79.6343C145.243 80.0436 145.473 80.5987 145.473 81.1775Z" stroke="#2C3E50" stroke-width="2.16" stroke-linecap="round" stroke-linejoin="round"/>
<path d="M37.5015 124.917L32.335 130.083" stroke="#2C3E50" stroke-width="2.16" stroke-linecap="round" stroke-linejoin="round"/>
<path d="M32.335 124.917L37.5015 130.083" stroke="#2C3E50" stroke-width="2.16" stroke-linecap="round" stroke-linejoin="round"/>
<path d="M40.0876 49.8794L34.916 55.0448" stroke="#2C3E50" stroke-width="2.16" stroke-linecap="round" stroke-linejoin="round"/>
<path d="M34.916 49.8794L40.0876 55.0448" stroke="#2C3E50" stroke-width="2.16" stroke-linecap="round" stroke-linejoin="round"/>
<path d="M207.731 108.452L202.564 113.623" stroke="#2C3E50" stroke-width="2.16" stroke-linecap="round" stroke-linejoin="round"/>
<path d="M202.564 108.452L207.731 113.623" stroke="#2C3E50" stroke-width="2.16" stroke-linecap="round" stroke-linejoin="round"/>
<path d="M61.0493 20.386C59.4652 20.3838 57.9314 20.942 56.7193 21.9616C56.0843 20.0451 54.8263 18.3961 53.1456 17.2771C51.4649 16.158 49.4581 15.6332 47.4446 15.7863C45.4311 15.9393 43.5267 16.7614 42.0345 18.1216C40.5423 19.4818 39.5482 21.302 39.2103 23.2924C38.7275 23.1549 38.2281 23.0845 37.7261 23.0834C36.35 23.0723 35.0217 23.5879 34.0135 24.5244C33.0053 25.461 32.3935 26.7475 32.3035 28.1205C32.2136 29.4935 32.6522 30.8489 33.5295 31.9089C34.4068 32.969 35.6565 33.6534 37.0223 33.822V33.8679H61.0493C62.8376 33.8679 64.5525 33.1577 65.817 31.8935C67.0814 30.6294 67.7918 28.9148 67.7918 27.1269C67.7918 25.3391 67.0814 23.6245 65.817 22.3603C64.5525 21.0962 62.8376 20.386 61.0493 20.386Z" stroke="#2C3E50" stroke-width="2.26" stroke-linecap="round" stroke-linejoin="round"/>
<path d="M186.07 54.6824C187.221 54.6803 188.336 55.0848 189.217 55.8246C189.679 54.4331 190.594 53.2362 191.815 52.4241C193.036 51.612 194.493 51.2314 195.956 51.3427C197.418 51.4541 198.801 52.0511 199.885 53.0387C200.969 54.0264 201.691 55.348 201.937 56.7934C202.455 56.6467 202.997 56.6081 203.53 56.68C204.063 56.752 204.575 56.9329 205.035 57.2116C205.495 57.4902 205.893 57.8606 206.204 58.2996C206.514 58.7387 206.731 59.237 206.841 59.7635C206.95 60.2899 206.95 60.8333 206.84 61.3598C206.731 61.8862 206.514 62.3844 206.203 62.8234C205.892 63.2623 205.494 63.6325 205.034 63.911C204.574 64.1895 204.061 64.3702 203.528 64.442V64.4777H186.07C184.798 64.4367 183.592 63.9027 182.707 62.9887C181.822 62.0747 181.327 60.8523 181.327 59.58C181.327 58.3078 181.822 57.0854 182.707 56.1714C183.592 55.2574 184.798 54.7234 186.07 54.6824Z" stroke="#2C3E50" stroke-width="2.16" stroke-linecap="round" stroke-linejoin="round"/>
<path d="M210.138 147.328C209.173 147.327 208.239 147.668 207.501 148.291C207.115 147.123 206.348 146.118 205.324 145.436C204.3 144.754 203.077 144.434 201.85 144.528C200.623 144.621 199.462 145.122 198.553 145.951C197.643 146.78 197.037 147.889 196.832 149.102C196.539 149.014 196.235 148.969 195.929 148.97C195.091 148.964 194.284 149.279 193.671 149.85C193.058 150.42 192.686 151.203 192.631 152.039C192.576 152.874 192.843 153.699 193.376 154.345C193.91 154.99 194.67 155.408 195.501 155.512V155.542H210.138C211.203 155.505 212.211 155.056 212.951 154.289C213.691 153.523 214.104 152.5 214.104 151.435C214.104 150.37 213.691 149.347 212.951 148.58C212.211 147.814 211.203 147.365 210.138 147.328Z" stroke="#2C3E50" stroke-width="2.16" stroke-linecap="round" stroke-linejoin="round"/>
<path d="M11.4649 138.659C12.6163 138.659 13.731 139.065 14.6117 139.807C15.0736 138.415 15.9874 137.218 17.208 136.406C18.4286 135.593 19.8859 135.212 21.348 135.323C22.8102 135.434 24.1934 136.03 25.2776 137.017C26.3618 138.004 27.0848 139.325 27.3316 140.77C27.9151 140.603 28.5296 140.573 29.1265 140.684C29.7234 140.794 30.2865 141.042 30.7712 141.408C31.2559 141.773 31.649 142.246 31.9195 142.79C32.19 143.333 32.3305 143.932 32.3298 144.539C32.3292 145.489 31.9833 146.406 31.3566 147.12C30.7298 147.834 29.8649 148.295 28.9229 148.419V148.455H11.4649C10.193 148.414 8.98697 147.88 8.10179 146.966C7.2166 146.052 6.72168 144.829 6.72168 143.557C6.72168 142.285 7.2166 141.062 8.10179 140.148C8.98697 139.234 10.193 138.7 11.4649 138.659Z" stroke="#2C3E50" stroke-width="2.16" stroke-linecap="round" stroke-linejoin="round"/>
<path d="M67.792 17.1535C67.792 17.1535 98.6176 -7.97474 140.5 3.60017C184.5 15.7615 193.303 47.1259 193.303 47.1259" stroke="#2C3E50" stroke-width="2.16" stroke-linecap="round" stroke-linejoin="round" stroke-dasharray="3.27 7.62"/>
<path d="M21.2476 90.1621C9.29784 92.0131 3.2898 117.371 16.7339 127.436" stroke="#2C3E50" stroke-width="2.02" stroke-linecap="round" stroke-linejoin="round" stroke-dasharray="3.05 7.11"/>
<path d="M165.528 133.328C165.528 133.328 175.169 153.428 190.142 149.816" stroke="#2C3E50" stroke-width="2.16" stroke-linecap="round" stroke-linejoin="round" stroke-dasharray="3.27 7.62"/>
<path d="M74.335 61.4848V48.5586" stroke="#2C3E50" stroke-width="2.16" stroke-linecap="round" stroke-linejoin="round"/>
<path d="M71.2139 61.4846V55.0444" stroke="#2C3E50" stroke-width="2.16" stroke-linecap="round" stroke-linejoin="round"/>
<path d="M121.849 64.473V55.0244" stroke="#2C3E50" stroke-width="2.16" stroke-linecap="round" stroke-linejoin="round"/>
<path d="M118.299 63.6671V59.751" stroke="#2C3E50" stroke-width="2.16" stroke-linecap="round" stroke-linejoin="round"/>
<path d="M115.157 63.6671V57.1147" stroke="#2C3E50" stroke-width="2.16" stroke-linecap="round" stroke-linejoin="round"/>
<path d="M77.334 61.4849V55.0244" stroke="#2C3E50" stroke-width="2.16" stroke-linecap="round" stroke-linejoin="round"/>
<path d="M163.018 63.2847V60.3936" stroke="#2C3E50" stroke-width="2.16" stroke-linecap="round" stroke-linejoin="round"/>
<path d="M159.896 63.2845V56.2427" stroke="#2C3E50" stroke-width="2.16" stroke-linecap="round" stroke-linejoin="round"/>
<path d="M166.017 63.2847V58.252" stroke="#2C3E50" stroke-width="2.16" stroke-linecap="round" stroke-linejoin="round"/>
</g>
<defs>
<clipPath id="clip0_78_7321">
<rect width="226" height="167" fill="white"/>
</clipPath>
</defs>
</svg>
