<svg width="196" height="163" viewBox="0 0 196 163" fill="none" xmlns="http://www.w3.org/2000/svg">
<g clip-path="url(#clip0_78_7427)">
<path d="M196 38.4126L192.08 57.2734L189.589 54.8345L185.301 57.8831L182.035 53.8183L174.685 59.1432L168.437 48.6966L161.414 52.7615L158.678 48.9812L149.776 53.9403L147.122 48.2495L153.329 18.251L186.69 25.1206L196 38.4126Z" fill="#EBEBEB"/>
<path d="M186.69 25.1206L196 38.4126L184.444 36.055L186.69 25.1206Z" fill="#DBDBDB"/>
<path d="M191.263 61.0131L185.546 88.654L140.589 79.4268L146.265 52.0298L148.96 57.7206L157.821 52.7208L160.597 56.5418L167.58 52.4769L173.868 62.8829L181.177 57.5986L184.444 61.6228L188.731 58.5742L191.263 61.0131Z" fill="#EBEBEB"/>
<path d="M126.951 57.802L81.1361 60.6067L77.502 2.11372L111.516 0L124.011 10.406L126.951 57.802Z" fill="#EBEBEB"/>
<path d="M111.517 0L124.012 10.406L112.211 11.1377L111.517 0Z" fill="#DBDBDB"/>
<path d="M98.8173 39.388L98.654 38.0873C98.2048 35.3638 98.9398 32.2746 101.349 29.104C103.513 26.2586 104.656 24.2262 104.534 21.9092C104.371 19.3077 102.656 17.6818 99.4298 17.8038C97.5923 17.9257 95.5915 18.6167 94.3257 19.6736L92.8965 16.5437C94.5298 15.2429 97.3881 14.2673 100.124 14.1047C106.004 13.7796 108.862 17.2347 109.107 21.1369C109.311 24.592 107.515 27.1935 105.187 30.2422C103.064 33.0062 102.37 35.3232 102.696 37.8841L102.819 39.2254L98.8173 39.388ZM98.0823 46.5828C97.9598 44.713 99.1848 43.2903 100.981 43.209C102.778 43.1277 104.085 44.3471 104.166 46.2576C104.248 48.0462 103.186 49.4688 101.267 49.5908C99.5115 49.6721 98.2048 48.3713 98.0823 46.5828Z" fill="#DBDBDB"/>
<path d="M0 131.457L23.8467 131.335H47.6933L95.4275 131.253L143.121 131.335H166.967L190.814 131.457L166.967 131.538L143.121 131.579L95.4275 131.66L47.6933 131.579L23.8467 131.538L0 131.457Z" fill="#BDBDBD"/>
<path d="M97.6731 163C150.805 163 193.876 157.285 193.876 150.236C193.876 143.187 150.805 137.473 97.6731 137.473C44.5414 137.473 1.46973 143.187 1.46973 150.236C1.46973 157.285 44.5414 163 97.6731 163Z" fill="#EBEBEB"/>
<path d="M159.005 152.96H34.5859L52.5526 51.4199H176.972L159.005 152.96Z" fill="#FF9900"/>
<path d="M95.1419 40.8921H54.4311L52.5527 51.42H96.1219L95.1419 40.8921Z" fill="#FF9900"/>
<g opacity="0.1">
<path d="M159.005 152.96H34.5859L52.5526 51.4199H176.972L159.005 152.96Z" fill="black"/>
<path d="M95.1419 40.8921H54.4311L52.5527 51.42H96.1219L95.1419 40.8921Z" fill="black"/>
</g>
<path d="M50.0206 45.1601C49.8572 44.5503 49.8164 43.9813 49.8164 43.3715C49.8164 42.7618 49.8572 42.1927 50.0206 41.583C50.1839 42.1927 50.2247 42.7618 50.2247 43.3715C50.2247 43.9813 50.1839 44.591 50.0206 45.1601Z" fill="#2C3E50"/>
<path d="M46.4277 46.2171C45.9785 45.77 45.6519 45.2822 45.366 44.7944C45.0802 44.266 44.7944 43.7375 44.6719 43.1685C45.121 43.6156 45.4477 44.1034 45.7335 44.5912C45.9785 45.1196 46.2644 45.648 46.4277 46.2171Z" fill="#2C3E50"/>
<path d="M43.8135 48.9403C43.201 48.7777 42.6701 48.5338 42.1801 48.2492C41.6901 47.9647 41.1593 47.6395 40.751 47.1924C41.3635 47.355 41.8943 47.5989 42.3843 47.8834C42.8743 48.1679 43.3643 48.4931 43.8135 48.9403Z" fill="#2C3E50"/>
<path d="M42.9156 52.5582C42.3031 52.7208 41.7314 52.7615 41.1189 52.7615C40.5064 52.7615 39.9348 52.7208 39.3223 52.5582C39.9348 52.3956 40.5064 52.355 41.1189 52.355C41.7314 52.355 42.3031 52.3956 42.9156 52.5582Z" fill="#2C3E50"/>
<path d="M43.9365 56.1758C43.4874 56.6229 42.9974 56.9481 42.5074 57.2326C41.9765 57.5172 41.4457 57.8017 40.874 57.9237C41.3232 57.4765 41.8132 57.1513 42.3032 56.8668C42.834 56.5823 43.3649 56.3384 43.9365 56.1758Z" fill="#2C3E50"/>
<path d="M46.6719 58.7773C46.5085 59.3871 46.2635 59.9155 45.9777 60.4033C45.6918 60.8911 45.3652 61.4195 44.916 61.826C45.0793 61.2162 45.3243 60.6878 45.6102 60.2C45.896 59.6716 46.2227 59.1838 46.6719 58.7773Z" fill="#2C3E50"/>
<path d="M50.3067 59.6714C50.47 60.2811 50.5109 60.8502 50.5109 61.4599C50.5109 62.0696 50.47 62.6387 50.3067 63.2484C50.1434 62.6387 50.1025 62.0696 50.1025 61.4599C50.1434 60.8502 50.1434 60.2405 50.3067 59.6714Z" fill="#2C3E50"/>
<path d="M53.9404 58.6147C54.3896 59.0619 54.7163 59.5497 55.0021 60.0374C55.2879 60.5659 55.5738 61.0943 55.6963 61.6634C55.2471 61.2162 54.9204 60.7285 54.6346 60.2407C54.3488 59.7529 54.1038 59.2245 53.9404 58.6147Z" fill="#2C3E50"/>
<path d="M56.5537 55.9321C57.1662 56.0947 57.697 56.3386 58.187 56.6232C58.677 56.9077 59.2079 57.2329 59.6162 57.68C59.0037 57.5174 58.4729 57.2735 57.9829 56.989C57.4929 56.6638 57.0029 56.3386 56.5537 55.9321Z" fill="#2C3E50"/>
<path d="M57.4521 52.2736C58.0646 52.111 58.6363 52.0703 59.2488 52.0703C59.8613 52.0703 60.433 52.111 61.0455 52.2736C60.433 52.4361 59.8613 52.4768 59.2488 52.4768C58.6363 52.4768 58.0646 52.4361 57.4521 52.2736Z" fill="#2C3E50"/>
<path d="M56.3906 48.6966C56.8398 48.2495 57.3298 47.9243 57.8198 47.6398C58.3506 47.3552 58.8815 47.0707 59.4531 46.9487C59.004 47.3959 58.514 47.721 58.024 48.0056C57.534 48.2495 57.0031 48.534 56.3906 48.6966Z" fill="#2C3E50"/>
<path d="M53.6953 46.095C53.8586 45.4853 54.1036 44.9569 54.3895 44.4691C54.6753 43.9813 55.002 43.4529 55.4511 43.0464C55.2878 43.6561 55.0428 44.1845 54.757 44.6723C54.4711 45.1601 54.1445 45.6479 53.6953 46.095Z" fill="#2C3E50"/>
<path d="M158.801 152.96H34.1367L16.415 55.0786H141.12L158.801 152.96Z" fill="#FF9900"/>
<path d="M59.6165 114.913C62.4806 114.913 64.8023 112.601 64.8023 109.75C64.8023 106.899 62.4806 104.588 59.6165 104.588C56.7524 104.588 54.4307 106.899 54.4307 109.75C54.4307 112.601 56.7524 114.913 59.6165 114.913Z" fill="#2C3E50"/>
<path d="M100.614 114.913C103.478 114.913 105.799 112.601 105.799 109.75C105.799 106.899 103.478 104.588 100.614 104.588C97.7495 104.588 95.4277 106.899 95.4277 109.75C95.4277 112.601 97.7495 114.913 100.614 114.913Z" fill="#2C3E50"/>
<path d="M87.5463 115.766L87.2604 115.238C87.2196 115.197 84.5654 110.279 79.1754 110.279C74.2754 110.279 73.0504 114.912 73.0096 115.116L72.8463 115.725L71.6621 115.441L71.7846 114.831C71.7846 114.791 73.2546 109.059 79.1346 109.059C85.2596 109.059 88.1996 114.465 88.3221 114.669L88.6079 115.197L87.5463 115.766Z" fill="#2C3E50"/>
<path d="M150.553 109.182C150.839 109.141 151.084 109.06 151.329 108.979" stroke="#BDBDBD" stroke-miterlimit="10"/>
<path d="M152.88 108.531C159.128 106.418 164.355 101.54 164.845 95.8084C165.947 83.2074 150.512 76.2566 152.105 61.7044C153.615 47.8027 168.275 46.8271 174.114 48.7376C180.606 50.8513 178.36 57.0705 172.521 56.2576C162.354 54.8755 155.943 43.8598 160.802 31.3807C164.395 22.0316 173.42 18.5359 177.054 17.479" stroke="#BDBDBD" stroke-miterlimit="10" stroke-dasharray="4 4"/>
<path d="M177.87 17.235C178.36 17.113 178.646 17.0317 178.646 17.0317" stroke="#BDBDBD" stroke-miterlimit="10"/>
<path d="M185.138 14.796C184.077 11.5848 177.135 12.7229 178.482 16.9504C179.83 21.1372 186.159 18.0072 185.138 14.796Z" fill="#BDBDBD"/>
<path d="M174.685 13.4952C174.726 12.0725 176.686 11.0157 179.503 11.5035C182.28 11.9912 184.893 13.8611 184.893 13.8611C184.893 13.8611 182.158 15.5276 179.34 15.8528C176.523 16.1374 174.603 14.9179 174.685 13.4952Z" fill="#EBEBEB"/>
<path d="M184.893 13.9018C183.464 13.9018 181.994 13.8612 180.565 13.8205C179.135 13.7393 177.665 13.6986 176.236 13.5767C177.665 13.5767 179.135 13.6173 180.565 13.658C181.994 13.6986 183.423 13.7799 184.893 13.9018Z" fill="#BDBDBD"/>
<path d="M177.461 12.2759C177.869 12.4791 178.278 12.6824 178.645 12.9263C179.013 13.1701 179.421 13.414 179.748 13.6986C179.339 13.4953 178.931 13.2921 178.563 13.0482C178.196 12.8043 177.828 12.5604 177.461 12.2759Z" fill="#BDBDBD"/>
<path d="M181.259 13.7393C180.891 14.0644 180.483 14.3083 180.116 14.5522C179.707 14.7961 179.299 15.04 178.891 15.2432C179.258 14.9181 179.666 14.6742 180.034 14.4303C180.401 14.227 180.81 13.9425 181.259 13.7393Z" fill="#BDBDBD"/>
<path d="M181.667 12.9668C181.871 13.0481 182.075 13.2107 182.239 13.3326C182.402 13.4952 182.565 13.6172 182.729 13.8204C182.524 13.7391 182.32 13.5765 182.157 13.4546C181.994 13.292 181.83 13.17 181.667 12.9668Z" fill="#BDBDBD"/>
<path d="M177.34 21.8687C178.197 22.9662 180.443 22.7224 182.403 20.6899C184.363 18.6575 185.384 15.6089 185.384 15.6089C185.384 15.6089 182.158 15.8528 179.708 17.2348C177.258 18.6575 176.441 20.7712 177.34 21.8687Z" fill="#EBEBEB"/>
<path d="M185.384 15.6089C184.2 16.4625 183.057 17.3161 181.914 18.2104C180.77 19.1046 179.627 19.9989 178.524 20.9338C179.709 20.1209 180.852 19.2266 181.995 18.3323C183.139 17.4381 184.282 16.5438 185.384 15.6089Z" fill="#BDBDBD"/>
<path d="M180.321 21.259C180.566 20.8525 180.73 20.446 180.893 20.0395C181.056 19.633 181.22 19.1859 181.342 18.7388C181.097 19.1453 180.934 19.5517 180.77 19.9582C180.607 20.4054 180.444 20.8118 180.321 21.259Z" fill="#BDBDBD"/>
<path d="M182.526 17.8447C182.036 17.8041 181.587 17.8447 181.097 17.8447C180.607 17.8854 180.158 17.926 179.668 18.0073C180.158 18.048 180.607 18.0073 181.097 18.0073C181.587 17.9667 182.036 17.926 182.526 17.8447Z" fill="#BDBDBD"/>
<path d="M183.343 18.2511C183.465 18.0478 183.547 17.8446 183.588 17.6007C183.629 17.3974 183.71 17.1536 183.71 16.9097C183.588 17.1129 183.506 17.3162 183.465 17.56C183.384 17.8039 183.343 18.0072 183.343 18.2511Z" fill="#BDBDBD"/>
<path d="M185.139 14.7958C184.485 14.999 183.791 14.6332 183.587 14.0235C183.383 13.3731 183.75 12.6821 184.363 12.4788C185.016 12.2756 185.71 12.6414 185.914 13.2511C186.119 13.9015 185.751 14.5925 185.139 14.7958Z" fill="#455A64"/>
<path d="M185.873 17.1132C185.22 17.3164 184.526 16.9506 184.321 16.3408C184.117 15.6905 184.485 14.9994 185.097 14.7962C185.751 14.593 186.445 14.9588 186.649 15.5685C186.853 16.2189 186.526 16.9099 185.873 17.1132Z" fill="#455A64"/>
<path d="M48.8769 24.1453C52.7969 28.1694 52.6744 34.5919 48.6319 38.4535C46.9986 40.0388 44.9569 40.933 42.8744 41.2176L40.1794 45.567L38.4644 40.8111C36.9127 40.3233 35.4836 39.429 34.2586 38.2096C30.3386 34.1854 30.4611 27.763 34.5036 23.9014C38.5461 19.9991 44.9569 20.1211 48.8769 24.1453Z" fill="white"/>
<path d="M48.8771 24.145C50.1429 25.4864 51.1229 27.1937 51.4904 29.0228C51.6129 29.47 51.6537 29.9578 51.6946 30.4049C51.6946 30.852 51.7354 31.3398 51.6946 31.7869C51.6537 32.7218 51.4496 33.6568 51.1637 34.551C50.8779 35.4453 50.4287 36.2582 49.8979 37.0712C49.6121 37.437 49.3262 37.8435 48.9996 38.1687C48.6729 38.5346 48.3462 38.8597 47.9787 39.1443C46.5087 40.3637 44.7121 41.1361 42.8337 41.3799L42.9562 41.2986L40.2612 45.6887L40.0571 46.0139L39.9346 45.648L38.1787 40.8922L38.3012 41.0141C35.2796 40.0792 32.8296 37.6809 31.7679 34.7136C31.2371 33.2503 31.0329 31.665 31.2371 30.1203C31.4004 28.5757 31.9721 27.0717 32.7887 25.771C33.6054 24.4702 34.7487 23.3321 36.0962 22.5191C37.4029 21.7061 38.9137 21.2183 40.4654 21.0558C43.5687 20.7306 46.7537 21.9094 48.8771 24.145ZM48.8771 24.145C46.7129 21.95 43.5687 20.7712 40.5062 21.1371C38.9954 21.2996 37.4846 21.8281 36.2187 22.641C34.9121 23.454 33.8504 24.5922 33.0337 25.8523C32.2579 27.153 31.7271 28.6164 31.6046 30.1203C31.4821 31.6243 31.6862 33.169 32.1762 34.551C32.6662 35.9737 33.5646 37.2338 34.6262 38.2907C35.7287 39.3475 37.0354 40.1198 38.4646 40.567L38.5462 40.6076L38.5871 40.6889L40.3021 45.4448L39.9754 45.4041L42.7112 41.0548L42.7521 41.0141H42.8337C44.6712 40.8109 46.4271 40.0792 47.8971 38.9004C48.2646 38.6159 48.5912 38.2907 48.9179 37.9655C49.2446 37.6403 49.5304 37.2745 49.8162 36.9086C50.3471 36.1363 50.7962 35.3233 51.1229 34.4697C51.4496 33.6161 51.6537 32.6812 51.6946 31.7463C51.7354 31.2991 51.6946 30.8114 51.6946 30.3642C51.6129 29.9171 51.6129 29.4293 51.4904 28.9822C51.0821 27.1937 50.1429 25.4864 48.8771 24.145Z" fill="#BDBDBD"/>
<path d="M41.9764 38.006C41.5272 37.5995 41.4455 37.0305 41.813 36.5833C42.2214 36.1362 42.793 36.0955 43.2422 36.502C43.6914 36.8679 43.773 37.4776 43.4055 37.9247C43.038 38.3719 42.4255 38.3719 41.9764 38.006ZM40.3839 36.1362L34.0547 31.1364L35.1164 29.917L41.1597 35.2826L40.3839 36.1362Z" fill="#FF9900"/>
<path d="M44.4676 35.0387C44.0184 34.6322 43.9367 34.0632 44.3042 33.616C44.7126 33.1689 45.2842 33.1283 45.7334 33.5347C46.1826 33.9006 46.2642 34.5103 45.8967 34.9574C45.5292 35.4046 44.9167 35.4046 44.4676 35.0387ZM42.9159 33.1689L36.5459 28.1692L37.6076 26.9497L43.6509 32.3153L42.9159 33.1689Z" fill="#FF9900"/>
<path d="M46.9578 32.0715C46.5086 31.665 46.427 31.0959 46.7945 30.6488C47.2028 30.2016 47.7745 30.161 48.2236 30.5675C48.6728 30.9333 48.7545 31.543 48.387 31.9902C48.0195 32.4373 47.407 32.4779 46.9578 32.0715ZM45.4061 30.2016L39.0361 25.2019L40.0978 23.9824L46.1411 29.348L45.4061 30.2016Z" fill="#FF9900"/>
</g>
<defs>
<clipPath id="clip0_78_7427">
<rect width="196" height="163" fill="white"/>
</clipPath>
</defs>
</svg>
