<svg width="242" height="174" viewBox="0 0 242 174" fill="none" xmlns="http://www.w3.org/2000/svg">
<g clip-path="url(#clip0_78_7151)">
<path d="M231.554 173.609C216.288 173.609 9.90903 173.167 9.90903 173.136C9.82662 172.94 -16.2863 140.968 16.5943 107.535C32.8904 90.9672 1.63738 69.5118 16.5943 51.092C42.2231 19.5314 67.584 37.3029 88.7112 28.4326C92.4402 26.8685 96.1897 24.3473 99.9392 20.4782C102.051 18.3069 104.358 16.4032 106.841 14.7567C107.222 14.4994 107.603 14.2525 107.995 14.0158C109.478 13.1 111.013 12.2664 112.599 11.5152C113.66 11.011 114.742 10.5479 115.854 10.126C117.605 9.44687 119.408 8.87061 121.242 8.37667C123.848 7.67693 126.536 7.15212 129.276 6.80225C130.471 6.64789 131.676 6.5244 132.892 6.43179C156.502 4.66185 183.058 14.6332 196.768 29.2044C199.529 32.1372 212.075 47.3258 202.186 68.1946C195.944 81.3766 222.108 93.9618 231.41 109.006C255.041 147.266 231.771 173.115 231.554 173.609Z" fill="#EBEBEB"/>
<g opacity="0.8">
<path d="M178.144 84.6588C177.516 86.3876 176.743 88.0341 175.836 89.5673C173.673 93.2616 170.799 96.359 167.452 98.7567C159.674 104.334 149.363 106.104 139.69 102.585C128.184 98.4068 120.788 87.9209 119.995 76.4471C119.892 74.9344 119.902 73.4115 120.036 71.8782C120.253 69.3056 120.819 66.7124 121.736 64.1707C122.488 62.1126 123.436 60.1883 124.558 58.4081C124.569 58.3875 124.579 58.3669 124.6 58.3463C127.71 53.4275 132.14 49.6407 137.229 47.2636C138.671 46.5844 140.164 46.0288 141.709 45.5863C142.441 45.3805 143.182 45.1952 143.934 45.0409C149.188 43.9604 154.792 44.2794 160.2 46.2346C160.921 46.4918 161.621 46.78 162.301 47.0887C163.269 47.5209 164.196 48.0045 165.093 48.5293C168.873 50.7315 172.035 53.6848 174.456 57.1218C175.97 59.2622 177.186 61.5878 178.092 64.0472C178.566 65.3335 178.958 66.661 179.256 67.9987C179.442 68.8322 179.586 69.6863 179.699 70.5404C179.967 72.5985 180.029 74.6875 179.854 76.797C179.648 79.4313 179.092 82.0657 178.144 84.6588Z" fill="#D7E5FF"/>
<path d="M144.954 58.3259C143.182 59.6945 143.656 63.3682 140.586 61.2998C137.517 59.2314 135.59 58.1098 134.725 59.9106C133.85 61.7217 136.579 62.7096 135.858 64.6751C135.137 66.6405 133.685 66.8463 132.15 65.2307C130.615 63.6151 130.574 62.0613 128.081 62.1127C125.598 62.1642 124.527 61.1455 124.651 59.2726C124.671 58.9433 124.64 58.6552 124.568 58.4082C124.579 58.3876 124.589 58.3671 124.61 58.3465C127.72 53.4277 132.15 49.6408 137.239 47.2637C138.681 46.5846 140.174 46.0289 141.719 45.5864C142.451 45.3806 143.192 45.1954 143.944 45.041C144.81 45.3909 145.737 46.1112 146.231 47.5416C147.313 50.6904 149.074 49.9495 147.581 52.5942C146.087 55.2388 146.705 55.8871 148.333 56.3707C149.96 56.8544 151.835 57.5335 151.577 58.8198C151.31 60.1061 146.726 56.9573 144.954 58.3259Z" fill="#C2C2C2"/>
<path d="M178.143 84.6592C177.515 86.388 176.742 88.0344 175.836 89.5677C173.673 93.2619 170.799 96.3593 167.451 98.757C166.617 98.7261 165.854 98.4483 165.216 97.8823C162.208 95.1965 166.194 92.3461 168.285 90.9672C170.387 89.578 166.493 89.1252 164.525 86.4188C162.558 83.7125 167.163 80.0594 164.206 79.8639C161.25 79.6683 157.655 79.4728 157.057 76.3137C156.46 73.1545 159.56 73.8028 159.014 71.1376C158.469 68.4724 161.044 67.9785 163.794 68.74C166.544 69.5014 166.884 67.4742 170.294 68.3901C173.704 69.3059 172.097 73.5044 175.857 74.5437C179.616 75.5934 179.143 76.3754 179.143 76.3754C179.41 76.468 179.647 76.6121 179.843 76.8179C179.647 79.4317 179.091 82.066 178.143 84.6592Z" fill="#C2C2C2"/>
<path d="M179.709 70.5507C176.135 70.9212 176.372 66.4655 173.333 66.7227C170.274 66.9903 171.582 64.8087 170.068 62.5654C168.553 60.3221 163.434 61.5364 164.474 59.2622C165.515 56.988 168.368 58.7683 169.707 57.1321C171.046 55.4959 173.879 57.0601 173.879 57.0601C174.075 57.0601 174.27 57.0806 174.466 57.1321C175.98 59.2725 177.196 61.5981 178.102 64.0575C178.576 65.3438 178.968 66.6713 179.266 68.009C179.442 68.8528 179.596 69.6966 179.709 70.5507Z" fill="#C2C2C2"/>
<path d="M157.026 53.1705C157.026 53.1705 159.457 51.452 157.171 49.857C154.884 48.262 154.606 49.1675 152.721 48.2414C150.825 47.3152 149.496 48.5604 150.372 50.7625C151.248 52.9647 151.278 56.5869 153.236 55.3726C155.183 54.1378 155.389 52.7589 157.026 53.1705Z" fill="#C2C2C2"/>
</g>
<path d="M16.7285 173.228H27.1943C27.7505 172.755 26.8029 171.674 25.814 171.602C25.3813 171.571 24.8354 171.664 24.2173 171.788C24.0731 169.873 23.249 161.291 20.1485 161.631C16.6667 162.022 20.1484 165.418 21.1373 167.424C21.8687 168.916 22.6413 171.047 22.9915 172.055C22.7134 172.117 22.4147 172.179 22.1159 172.23C21.6524 170.81 19.9321 166.045 17.7483 166.323C15.1834 166.653 16.2135 168.556 18.0368 169.699C19.3759 170.532 21.0137 171.715 21.7863 172.292C21.127 172.395 20.4369 172.477 19.7364 172.456C17.944 172.415 17.0685 172.94 16.7285 173.228Z" fill="#A8D29F"/>
<path d="M183.284 173.228H173.56C173.035 172.786 173.921 171.787 174.838 171.715C175.239 171.685 175.744 171.767 176.321 171.89C176.455 170.12 177.217 162.135 180.101 162.454C183.336 162.814 180.101 165.963 179.185 167.836C178.505 169.215 177.794 171.201 177.464 172.137C177.732 172.199 178 172.251 178.278 172.302C178.711 170.985 180.308 166.56 182.337 166.817C184.716 167.116 183.758 168.896 182.069 169.946C180.833 170.717 179.308 171.818 178.587 172.353C179.195 172.456 179.844 172.518 180.493 172.508C182.162 172.477 182.975 172.961 183.284 173.228Z" fill="#A8D29F"/>
<path d="M190.227 109.572C190.227 109.572 190.454 107.277 189.259 107.349C188.054 107.432 187.734 107.977 187.868 108.42C188.002 108.862 189.176 110.323 189.176 110.323L190.227 109.572Z" fill="#FFB27D"/>
<path d="M208.975 114.182C208.975 114.182 207.646 115.747 204.782 117.547C204.514 117.722 204.226 117.887 203.927 118.062C202.815 118.71 201.506 119.369 200.002 119.986C199.838 120.058 199.642 120.13 199.426 120.213C197.705 120.83 194.553 121.715 192.596 121.787C192.421 121.797 192.266 121.797 192.112 121.787C189.135 121.663 188.774 110.118 188.774 110.118C188.774 110.118 189.104 108.965 190.639 109.253C190.639 109.253 192.967 115.777 193.801 116.312C194.543 116.786 198.797 110.344 202.454 109.891C204.906 109.593 208.975 114.182 208.975 114.182Z" fill="#2C3E50"/>
<path d="M200.971 170.512C200.971 170.512 201.188 173.053 200.652 173.321L193.761 173.311C193.761 173.311 193.761 172.518 194.863 172.343C195.965 172.168 197.912 171.52 198.242 170.079C198.582 168.628 200.971 170.512 200.971 170.512Z" fill="#2C3E50"/>
<path d="M195.923 139.733C195.954 141.4 196.037 143.109 196.191 144.652C196.933 151.969 197.201 160.808 197.304 162.506C197.489 165.459 198.076 170.193 198.076 170.193C198.076 170.193 199.24 171.294 201.496 170.769C201.496 170.769 203.371 163.967 203.793 156.795C203.804 156.682 203.804 156.558 203.814 156.445C203.865 155.498 203.917 154.418 203.968 153.245C204.308 145.424 204.689 133.796 204.689 133.796L196.047 131.769C196.037 131.769 195.831 135.586 195.923 139.733Z" fill="#737373"/>
<path d="M195.923 139.733C198.117 143.51 202.289 150.466 203.958 153.245C204.298 145.424 204.679 133.796 204.679 133.796L196.037 131.769C196.037 131.769 195.831 135.586 195.923 139.733Z" fill="#7A7A7A"/>
<path d="M199.426 120.213C197.706 120.83 194.554 121.715 192.597 121.787C192.895 121.735 195.079 121.303 195.883 120.326C196.748 119.276 198.211 116.446 199.364 117.599C199.9 118.154 199.746 119.235 199.426 120.213Z" fill="#F3F4F6"/>
<path d="M213.94 138.509C213.94 138.509 214.476 140.608 214.394 141.081C214.301 141.544 213.786 143.129 213.456 143.52C213.127 143.911 213.116 141.812 212.9 141.483C212.684 141.153 212.797 142.265 212.622 142.357C212.447 142.45 212.158 141.513 212.024 141.184C211.89 140.855 212.488 139.702 212.539 138.879C212.601 138.046 213.94 138.509 213.94 138.509Z" fill="#FFB27D"/>
<path d="M218.133 167.62C218.133 167.62 219.359 168.742 219.122 169.534C218.885 170.326 217.772 170.861 217.628 171.829C217.473 172.796 216.876 173.331 216.34 173.331C215.805 173.331 213.775 173.331 213.775 173.331C213.775 173.331 213.384 172.652 214.332 172.446C215.29 172.24 215.65 171.098 215.588 170.038C215.527 168.978 215.681 167.569 215.681 167.569L217.71 167.095L218.133 167.62Z" fill="#2C3E50"/>
<path d="M197.396 133.971C197.396 133.971 205.483 151.259 209.789 158.843C214.094 166.427 215.433 168.546 215.433 168.546C215.433 168.546 217.895 167.579 218.122 166.91C218.122 166.91 216.474 152.267 213.59 148.696C211.962 146.679 210.046 140.629 209.953 138.509C209.861 136.389 207.976 131.336 207.976 131.336L197.396 133.971Z" fill="#737373"/>
<path d="M195.882 133.075C195.882 133.075 198.519 135.905 202.99 136.759C204.958 137.14 208.944 137.5 209.933 136.101C210.17 135.771 210.17 135.288 210.118 134.526C209.984 132.55 209.49 128.743 211.725 121.087C211.931 120.377 212.076 119.687 212.158 119.039C212.642 115.118 212.591 112.165 209.191 110.58C204.092 108.214 202.001 110.158 202.001 110.158C202.001 110.158 199.292 111.424 198.056 115.108C195.584 122.507 195.882 133.075 195.882 133.075Z" fill="#2C3E50"/>
<path d="M206.132 109.942C205.277 110.55 203.763 110.91 202.321 110.189C202.207 110.138 202.228 109.376 202.249 108.625C202.279 107.895 202.341 107.174 202.341 107.174L204.154 105.981L205.885 104.849C205.689 108.749 206.523 109.665 206.132 109.942Z" fill="#FFB27D"/>
<path d="M205.596 106.465C205.596 106.465 204.422 108.224 202.259 108.626C202.29 107.895 202.362 107.082 202.362 107.082L204.164 105.981L205.596 106.465Z" fill="#ED985F"/>
<path d="M200.735 106.711C200.735 106.711 205.123 108.347 206.101 105.651C207.08 102.955 208.306 101.34 205.545 100.187C202.785 99.0243 201.868 99.8682 201.312 100.691C200.755 101.504 199.612 106.217 200.735 106.711Z" fill="#FFB27D"/>
<path d="M208.831 100.486C208.883 100.444 208.986 100.424 209.202 100.455C209.202 100.455 209.058 100.321 208.831 100.269C208.841 99.971 208.79 99.4153 208.306 99.189C208.306 99.189 208.553 99.3845 208.522 99.7035C208.058 98.9832 206.884 98.304 203.361 97.8924C198.705 97.347 199.643 100.578 200.168 101.041C200.693 101.504 202.372 100.846 203.464 101.154C204.556 101.463 204.443 103.099 204.783 103.387C205.112 103.676 205.04 103.264 205.597 103.13C206.153 102.996 206.029 103.85 205.782 104.365C205.524 104.88 206.081 105.744 206.081 105.744C206.081 105.744 206.081 105.744 206.936 105.127C207.791 104.509 209.089 101.432 208.903 100.681C208.862 100.619 208.841 100.558 208.831 100.486Z" fill="#2C3A64"/>
<path d="M210.119 134.526C209.985 132.551 209.49 128.743 211.726 121.087C211.932 120.377 212.076 119.688 212.158 119.039C210.49 118.494 207.461 119.708 207.461 119.708C207.461 119.708 206.75 129.834 210.119 134.526Z" fill="#F3F4F6"/>
<path d="M210.118 111.105C210.118 111.105 212.168 111.846 213.477 117.269C214.342 120.85 215.928 126.109 216.103 127.766C216.278 129.422 214.29 139.095 214.29 139.095C214.29 139.095 214.012 139.301 213.322 139.167C212.663 139.034 212.354 138.591 212.354 138.591C212.354 138.591 211.88 132.139 212.004 129.093C212.055 127.827 206.142 119.821 202.949 118.792C201.682 118.381 210.118 111.105 210.118 111.105Z" fill="#2C3E50"/>
<path d="M181.461 104.087C181.461 104.087 187.384 103.923 194.214 105.178L194.924 103.377L195.707 101.412C195.707 101.412 188.847 98.4584 184.726 94.3525L181.461 104.087Z" fill="#C2C2C2"/>
<path d="M184.83 94.26L181.43 104.283C180.936 104.139 180.658 103.604 180.833 103.11L183.82 94.6922C183.964 94.2909 184.428 94.0851 184.83 94.26Z" fill="#FF9900"/>
<path d="M188.075 111.548C188.734 111.681 189.383 111.249 189.517 110.591L190.691 104.746C190.825 104.087 190.392 103.439 189.733 103.305C189.074 103.171 188.425 103.603 188.291 104.262L187.117 110.107C186.972 110.766 187.405 111.414 188.075 111.548Z" fill="#FF9900"/>
<path d="M181.461 104.087C181.461 104.087 187.384 103.922 194.214 105.178L194.924 103.377C188.507 102.07 181.461 104.087 181.461 104.087Z" fill="#2C3E50"/>
<path d="M192.329 104.818L194.183 105.147C194.152 105.147 195.904 105.487 196.47 103.943C196.522 103.84 196.552 103.737 196.583 103.614C197.026 101.69 195.965 101.329 195.965 101.329L193.586 100.403L192.834 103.079C192.834 103.079 192.834 103.079 192.834 103.089L192.329 104.818Z" fill="#FF9900"/>
<path d="M192.329 104.818L194.183 105.147C194.152 105.147 195.904 105.487 196.47 103.943C195.419 103.182 192.824 103.079 192.824 103.079C192.824 103.079 192.824 103.079 192.824 103.089L192.329 104.818Z" fill="#FF9900"/>
<path d="M188.229 105.888C188.229 105.888 189.135 106.249 188.971 106.65C188.806 107.051 187.652 107.597 187.477 107.278C187.291 106.959 187.662 105.549 188.229 105.888Z" fill="#FFB27D"/>
<path d="M190.248 109.212C190.248 109.212 190.423 108.286 190.434 107.864C190.444 107.442 190.496 107.092 190.393 107.082C190.289 107.072 190.217 107.144 190.176 107.288C190.135 107.422 189.98 108.276 189.98 108.276L190.063 109.089L190.248 109.212Z" fill="#FFB27D"/>
<path d="M100.733 108.605L95.6026 169.503C95.6026 169.503 95.067 173.197 97.8173 173.197C102.339 173.208 120.315 173.197 120.315 173.197C120.315 173.197 116.915 172.426 116.956 170.697C117.008 168.659 122.952 108.018 122.952 108.018L100.733 108.605Z" fill="#2C3E50"/>
<path d="M122.004 172.127C121.118 172.127 103.71 172.158 99.3112 172.106C97.3952 172.086 97.0553 170.398 97.045 169.318C97.0347 168.793 97.1068 168.412 97.1068 168.412L97.2407 166.827L97.5806 162.794L97.8793 159.233L98.2605 154.654L98.5901 150.785L102.237 107.514L124.445 106.938C124.445 106.938 121.942 132.314 120.171 150.785C119.975 152.843 119.789 154.819 119.614 156.661C119.563 157.247 119.501 157.823 119.449 158.379C119.285 160.128 119.13 161.734 119.007 163.154C118.934 163.905 118.873 164.594 118.821 165.232C118.595 167.723 118.461 169.318 118.461 169.616C118.461 169.791 118.471 169.956 118.502 170.11C118.862 172.034 121.675 172.127 122.004 172.127Z" fill="#C2C2C2"/>
<path d="M46.7969 75.4697L59.2816 125.584L60.9916 132.448L66.8116 155.786H174.868L153.432 75.4697H46.7969Z" fill="#C2C2C2"/>
<path d="M46.797 75.4697L45.0664 76.046L64.5146 157.525L66.8117 155.786L46.797 75.4697Z" fill="#C2C2C2"/>
<path d="M64.5146 157.525H171.902L174.869 155.786H66.8118L64.5146 157.525Z" fill="#2C3E50"/>
<path d="M102.225 173.225H125.475V172.124H102.225V173.225Z" fill="#C2C2C2"/>
<path d="M119.563 157.525L119.45 158.369L97.5811 162.784L97.8798 159.223L98.024 157.525H119.563Z" fill="#2C3E50"/>
<path opacity="0.4" d="M122.004 172.127C121.118 172.127 103.71 172.158 99.3111 172.106C97.3952 172.086 97.0552 170.398 97.0449 169.318L118.811 165.222C118.584 167.712 118.45 169.307 118.45 169.606C118.45 169.781 118.461 169.945 118.491 170.1C118.862 172.034 121.674 172.127 122.004 172.127Z" fill="#2C3E50"/>
<path d="M46.7969 75.4697H153.432L170.738 140.021H62.8766L46.7969 75.4697Z" fill="#C2C2C2"/>
<path d="M165.711 137.222H65.8638L62.2893 123.022L60.909 117.526L60.3528 115.283L56.6856 100.691L56.4899 99.9402L54.5533 92.2224L53.688 88.7751L52.9464 85.8321L51.2158 78.9272H149.621L151.526 85.8321L152.34 88.7751L153.288 92.2224L159.561 114.954V114.964L160.097 116.888L160.344 117.784L164.67 133.477L165.711 137.222Z" fill="#2C3E50"/>
<path d="M151.526 85.8321H52.9464L51.2158 78.9272H149.621L151.526 85.8321Z" fill="#2C3E50"/>
<path d="M55.2848 82.0451C55.1612 81.5717 55.4599 81.1807 55.9338 81.1807C56.4076 81.1807 56.8917 81.5717 57.0154 82.0451C57.139 82.5184 56.8402 82.9094 56.3664 82.9094C55.8823 82.9094 55.3981 82.5184 55.2848 82.0451Z" fill="#FFF8E1"/>
<path d="M58.1481 82.0451C58.0245 81.5717 58.3232 81.1807 58.797 81.1807C59.2709 81.1807 59.755 81.5717 59.8786 82.0451C60.0022 82.5184 59.7035 82.9094 59.2297 82.9094C58.7558 82.9094 58.2717 82.5184 58.1481 82.0451Z" fill="#FFF8E1"/>
<path d="M61.2389 82.0451C61.1153 81.5717 61.414 81.1807 61.8879 81.1807C62.3617 81.1807 62.8458 81.5717 62.9695 82.0451C63.0931 82.5184 62.7943 82.9094 62.3205 82.9094C61.8467 82.9094 61.3625 82.5184 61.2389 82.0451Z" fill="#FFF8E1"/>
<path d="M130.039 38.8051C134.077 34.0715 140.299 24.5632 144.491 19.6958C145.356 18.6977 144.635 17.1438 143.317 17.1438H135.694L142.884 0.895321C143.193 0.205866 142.245 -0.349815 141.792 0.257318L124.404 23.5033C123.899 24.1824 124.456 25.1395 125.29 25.0365L133.922 23.9766L128.792 38.0642C128.504 38.8462 129.503 39.4328 130.039 38.8051Z" fill="#FF9900"/>
<path d="M94.1503 67.6284C95.0568 62.9772 95.6337 54.3332 96.5917 49.5379C96.7874 48.55 95.7367 47.7886 94.8508 48.2825L89.7827 51.1329L88.4848 37.6628C88.4333 37.0866 87.5989 37.0763 87.5165 37.6422L84.6735 59.5813C84.5911 60.2193 85.3121 60.6515 85.8375 60.2605L91.1734 56.3296L93.0378 67.6078C93.1408 68.2355 94.0267 68.2561 94.1503 67.6284Z" fill="#C2C2C2"/>
<path d="M170.068 138.591L83.3132 145.897C76.7206 146.453 71.9616 139.743 74.6604 133.713L111.414 51.5344C114.206 45.2984 122.776 44.5781 126.567 50.2584L176.557 125.131C180.235 130.626 176.65 138.035 170.068 138.591Z" fill="#E6EFFF"/>
<path d="M170.346 141.874L83.5916 149.18C79.327 149.54 75.2993 147.667 72.8168 144.179C70.3343 140.69 69.9016 136.276 71.6528 132.376L108.407 50.1966C110.209 46.1628 113.928 43.5284 118.337 43.158C122.745 42.7875 126.845 44.7633 129.307 48.4369L179.308 123.31C181.687 126.87 181.996 131.295 180.132 135.144C178.268 139.003 174.611 141.513 170.346 141.874ZM118.883 49.7129C116.895 49.8776 115.226 51.061 114.412 52.8824L77.6582 135.061C76.8754 136.821 77.0711 138.807 78.1836 140.371C79.2961 141.946 81.109 142.779 83.0353 142.625L169.79 135.319C171.706 135.154 173.354 134.022 174.199 132.293C175.033 130.554 174.899 128.568 173.828 126.963L123.817 52.09C122.715 50.4333 120.871 49.538 118.883 49.7129Z" fill="#FF9900"/>
<path d="M116.853 126.026C116.761 124.904 116.874 123.865 117.193 122.877C117.513 121.9 118.007 121.025 118.677 120.274C119.346 119.523 120.181 118.905 121.169 118.432C122.158 117.958 123.302 117.66 124.579 117.557C125.867 117.454 127.041 117.547 128.112 117.845C129.184 118.144 130.121 118.617 130.904 119.245C131.687 119.873 132.325 120.655 132.799 121.56C133.273 122.476 133.561 123.495 133.654 124.606C133.747 125.728 133.634 126.767 133.314 127.724C132.995 128.691 132.5 129.545 131.831 130.307C131.161 131.058 130.317 131.676 129.307 132.159C128.298 132.633 127.154 132.931 125.867 133.034C124.579 133.147 123.415 133.044 122.354 132.746C121.293 132.447 120.376 131.974 119.583 131.346C118.8 130.719 118.162 129.947 117.688 129.052C117.234 128.146 116.946 127.138 116.853 126.026ZM130.265 110.344L117.77 111.393L112.403 68.8837L128.442 67.5356L130.265 110.344Z" fill="#FF9900"/>
<path d="M62.9795 112.947C62.9795 112.947 63.2473 112.34 63.4327 112.042C63.6078 111.754 64.3598 110.9 64.4937 111.095C64.6173 111.291 65.1324 112.577 64.8646 112.937C64.5967 113.297 64.8852 113.925 63.5254 114.306L62.9795 112.947Z" fill="#FFB27D"/>
<path d="M47.9297 109.088C47.9297 109.088 54.8622 114.872 57.5611 114.336C59.6728 113.915 63.0206 112.855 63.0206 112.855C63.0206 112.855 63.9065 113.688 63.6489 114.697C63.6489 114.697 59.3946 118.7 56.3559 118.72C51.6174 118.761 49.3821 116.374 49.3821 116.374L47.9297 109.088Z" fill="#FF9900"/>
<path d="M35.7744 170.059C35.7744 170.059 35.9804 173.301 36.5985 173.352C36.6809 173.362 39.7815 173.362 39.7815 173.362L43.737 173.342C43.737 173.342 43.7061 172.385 42.5524 172.189C41.3987 171.983 39.4622 171.17 38.7617 169.647C38.0303 168.022 35.7744 170.059 35.7744 170.059Z" fill="#113C68"/>
<path d="M35.5479 170.275C35.5479 170.275 36.7531 170.677 37.6905 170.677C38.7412 170.677 39.6889 170.388 39.6889 170.388C39.6889 170.388 39.9155 168.197 41.1619 163.381C41.8109 160.849 42.7483 157.597 44.0771 153.564C47.7545 142.399 48.8671 135.874 48.9701 135.257C48.9804 135.226 48.9804 135.206 48.9804 135.206L48.9701 135.195L37.6802 130.246C37.6802 130.246 39.0709 145.63 37.2991 151.536C37.0519 152.36 36.8356 153.327 36.6501 154.366C35.517 160.787 35.5479 170.275 35.5479 170.275Z" fill="#737373"/>
<path d="M41.1615 163.381C41.8105 160.849 42.7479 157.597 44.0767 153.564C47.7542 142.399 48.8667 135.874 48.9697 135.257C48.9697 135.236 48.9697 135.226 48.9697 135.206L37.6798 130.256C37.6798 130.256 39.0705 145.64 37.2987 151.547C37.0412 152.37 41.1615 163.381 41.1615 163.381Z" fill="#7A7A7A"/>
<path d="M44.5918 170.059C44.5918 170.059 44.7978 173.301 45.4159 173.352C45.4983 173.362 48.5989 173.362 48.5989 173.362L52.5544 173.342C52.5544 173.342 52.5235 172.385 51.3698 172.189C50.2161 171.983 48.2795 171.17 47.5791 169.647C46.8477 168.022 44.5918 170.059 44.5918 170.059Z" fill="#15447C"/>
<path d="M50.9992 130.616C50.9992 130.616 51.1434 140.588 49.4231 152.823C47.6926 165.068 48.2797 170.255 48.2797 170.255C48.2797 170.255 47.0951 170.635 46.611 170.677C45.3955 170.78 44.1388 170.389 44.1388 170.389C44.1388 170.389 41.6665 158.143 42.3773 152.02C43.0881 145.897 38.9883 130.997 38.9883 130.997L50.9992 130.616Z" fill="#737373"/>
<path d="M42.9854 107.277L45.1898 108.718L47.1984 108.152C47.5693 107.627 47.662 106.619 47.6723 105.744C47.6826 104.88 47.5899 104.139 47.5899 104.139L44.6129 102.832L43.5004 102.348C43.5004 102.369 43.5828 103.254 43.6034 103.387C43.8094 105.713 42.9854 107.277 42.9854 107.277Z" fill="#FFB27D"/>
<path d="M51.0403 133.384C48.3003 136.029 37.9169 135.586 37.2783 132.674C36.6396 129.762 37.9787 107.854 42.6656 106.485C43.6339 106.197 48.8359 107.874 48.8359 107.874C48.8359 107.874 49.6497 110.004 50.1853 112.721C50.2883 113.246 50.5871 118.844 50.824 124.081C50.927 126.531 51.0197 128.897 51.0609 130.636C51.1021 132.262 51.1021 133.322 51.0403 133.384Z" fill="#FF9900"/>
<path d="M43.8302 103.439C44.4379 104.458 46.5496 105.353 47.6724 105.754C47.6827 104.89 47.59 104.149 47.59 104.149L44.6131 102.842C43.9641 102.832 43.5624 102.976 43.8302 103.439Z" fill="#FCA56B"/>
<path d="M48.7124 103.974C48.7124 103.974 43.9225 105.466 43.0366 102.472C42.1507 99.4773 40.9352 97.6559 43.9637 96.5754C46.9818 95.4949 47.9192 96.4622 48.4549 97.3884C48.9905 98.3145 49.9382 103.511 48.7124 103.974Z" fill="#FFB27D"/>
<path d="M48.2698 97.1002C48.2698 97.1002 47.9608 100.589 47.2397 100.434C46.5186 100.28 45.7255 99.9609 45.8285 101.011C45.9315 102.06 45.128 103.861 44.0876 103.861C41.8523 103.851 39.4316 98.1293 40.0393 97.0488C41.8008 93.9102 50.8141 93.2825 48.2698 97.1002Z" fill="#2C3E50"/>
<path d="M47.559 106.557C47.4972 106.526 43.9948 104.962 43.5828 105.096C43.1708 105.23 42.666 106.485 42.666 106.485L48.8363 107.874C48.8363 107.874 48.3521 106.887 47.559 106.557Z" fill="#FF9900"/>
<path d="M69.3762 123.516L49.7323 141.997C49.3512 142.357 48.8567 142.47 48.6507 142.254L47.9915 141.555C47.7854 141.339 47.9297 140.855 48.3108 140.495L67.9547 122.013C68.3358 121.653 68.8303 121.54 69.0363 121.756L69.6955 122.456C69.9119 122.672 69.7677 123.155 69.3762 123.516Z" fill="#2C3E50"/>
<path d="M58.3542 133.888L49.7323 141.997C49.3512 142.357 48.8567 142.47 48.6507 142.254L47.9915 141.554C47.7854 141.338 47.9297 140.855 48.3108 140.495L56.9327 132.386L58.3542 133.888Z" fill="#2C3E50"/>
<path d="M64.8646 116.539C65.6166 119.019 67.0175 121.344 69.0468 123.258C75.2377 129.082 84.9824 128.784 90.8127 122.6C96.5606 116.497 96.3443 106.938 90.3904 101.093C90.3079 101.01 90.2255 100.938 90.1534 100.856C83.9626 95.0316 74.2179 95.3301 68.3875 101.515C64.4629 105.672 63.3092 111.434 64.8646 116.539ZM69.2631 102.338C72.6521 98.7362 77.4833 97.3058 82.026 98.0879C84.6733 98.5407 87.2177 99.7549 89.3088 101.731C95.0155 107.092 95.2833 116.055 89.9165 121.756C87.9387 123.855 85.4768 125.213 82.8707 125.831C78.3898 126.891 73.4762 125.748 69.8709 122.363C64.1745 117.002 63.8963 108.039 69.2631 102.338Z" fill="#2C3E50"/>
<g opacity="0.5">
<path d="M89.9265 121.756C87.9487 123.855 85.4868 125.213 82.8807 125.831C78.3998 126.891 73.4862 125.748 69.8809 122.363C64.1742 117.002 63.9064 108.039 69.2731 102.338C72.6622 98.7362 77.4933 97.3059 82.036 98.0879C84.6834 98.5407 87.2277 99.755 89.3188 101.731C95.0152 107.092 95.2933 116.055 89.9265 121.756Z" fill="#B3CFF9"/>
</g>
<path d="M51.0615 130.637C40.2352 122.929 41.1314 112.649 41.1314 112.649C45.0869 114.882 49.0116 119.811 50.8142 124.082C50.9276 126.531 51.01 128.897 51.0615 130.637Z" fill="#FF9900"/>
<path d="M61.7432 127.128C62.5055 126.953 63.0205 126.376 63.1236 126.273C63.1236 126.273 63.4532 126.294 63.0721 126.994C63.0411 127.056 62.969 127.2 62.9175 127.302C62.8969 127.344 62.9278 127.395 62.969 127.395C63.412 127.426 63.8549 127.251 64.6996 127.436C64.8129 127.457 64.8541 127.745 64.8438 127.858C64.8335 128.064 64.8541 128.29 64.6172 128.599C64.4833 128.784 64.1021 128.97 63.2472 129.319C62.9278 129.453 62.0008 129.35 61.1355 129.052L60.4453 128.733L60.6616 127.447L60.8367 127.488C61.1149 127.529 61.4548 127.189 61.7432 127.128Z" fill="#FFB27D"/>
<path d="M44.4997 107.874C44.4997 107.874 34.7756 109.726 47.3634 123.793C49.3721 126.047 60.2499 128.969 60.2499 128.969C60.2499 128.969 61.3521 128.033 60.7958 127.271C60.7958 127.271 53.307 121.838 51.6589 120.974C50.9172 120.583 48.7849 112.299 47.5694 110.303C46.3642 108.317 44.4997 107.874 44.4997 107.874Z" fill="#FF9900"/>
<path d="M63.2373 113.122C63.2373 113.122 63.5566 112.515 63.6184 112.196C63.6802 111.877 64.082 110.941 64.2468 110.776C64.3086 110.714 64.5352 110.797 64.5558 111.075C64.5661 111.198 64.5043 111.424 64.4013 111.692C64.2262 112.124 64.2571 112.721 64.1953 112.917C64.0511 113.4 63.2373 113.122 63.2373 113.122Z" fill="#FFB27D"/>
<path d="M67.1101 89.0118C66.9452 89.1971 66.9246 89.4132 67.007 89.6395C67.1616 90.0615 67.656 90.5245 68.2432 90.9876C68.3153 91.0493 68.3874 91.1008 68.4389 91.1522C68.4492 91.1625 68.4698 91.1831 68.4801 91.1934C68.4904 91.2037 68.5007 91.214 68.511 91.2243C69.0569 91.7182 68.8509 91.8417 69.8192 92.8501C70.9317 94.0027 71.694 94.0233 71.9103 93.9204C72.0957 93.8277 71.7249 93.2206 71.3025 92.5311C71.2819 92.5003 71.2613 92.4694 71.2407 92.4282C71.1892 92.3356 71.1274 92.243 71.0759 92.1504C70.5918 91.3272 70.7154 90.9361 70.8287 89.7013C70.9214 88.7031 72.3841 84.1136 72.3841 84.1136L70.2621 83.7432C70.2621 83.7432 69.6235 87.3962 68.9127 87.9622C68.5316 88.2606 68.1092 88.2606 67.7487 88.487C67.7281 88.5076 67.6972 88.5179 67.6766 88.5385C67.4912 88.6825 67.2749 88.8266 67.1101 89.0118Z" fill="#FFB27D"/>
<path d="M67.1101 89.0119C66.9452 89.1972 66.9246 89.4133 67.007 89.6396C67.1925 90.0615 67.6766 90.5246 68.2432 90.9877C68.3153 91.0494 68.3771 91.1009 68.4389 91.1523C68.4492 91.1626 68.4698 91.1832 68.4801 91.1935C68.4904 91.2038 68.5007 91.2141 68.511 91.2244C69.0569 91.7183 68.8509 91.8418 69.8192 92.8502C70.9317 94.0028 71.694 94.0233 71.9103 93.9204C72.0957 93.8278 71.7249 93.2207 71.3025 92.5312C71.0862 92.4489 70.087 92.0476 69.3248 91.07C68.6861 90.2468 68.2432 89.2074 67.8105 88.5591C67.759 88.5489 67.7384 88.5489 67.6869 88.5386C67.4912 88.6826 67.2749 88.8267 67.1101 89.0119Z" fill="#7A7A7A"/>
<path d="M84.2606 87.6949C84.3946 88.3535 85.3319 88.2403 86.3723 87.983C87.4127 87.7258 87.1655 88.0345 88.6591 87.8698C90.1425 87.7052 90.5957 87.1495 90.6472 86.9334C90.6884 86.7379 89.9571 86.6659 89.1639 86.5733C89.0609 86.563 88.9682 86.5527 88.8652 86.5424C87.9793 86.4292 87.32 85.8529 86.5166 85.3899C85.7543 84.9474 84.6109 83.126 84.6109 83.126L82.5713 83.2906C82.5713 83.2906 83.6426 84.9165 84.0546 85.6265C84.3018 86.0382 84.2812 86.5938 84.2503 87.0157C84.2297 87.2215 84.2091 87.4582 84.2606 87.6949Z" fill="#FFB27D"/>
<path d="M86.3723 87.983C87.4127 87.7258 87.1654 88.0345 88.6591 87.8698C90.1424 87.7052 90.5957 87.1495 90.6472 86.9334C90.6884 86.7379 89.957 86.6659 89.1638 86.5732L89.1535 86.5835C89.1535 86.5835 88.2573 87.2112 87.0212 87.2421C86.0117 87.2627 84.9404 86.9746 84.2503 86.9849C84.2297 87.2112 84.2194 87.4479 84.2709 87.6846C84.3842 88.3432 85.3216 88.2403 86.3723 87.983Z" fill="#7A7A7A"/>
<path d="M76.4426 74.6571L74.5369 79.7817L72.0441 86.4704C72.0441 86.4704 71.3642 86.5322 70.7256 86.347C70.1281 86.172 69.4482 85.7295 69.4482 85.7295C69.4482 85.7295 70.1384 78.5469 71.4363 74.4204C71.766 73.3605 72.1368 72.5064 72.5488 72.0228C74.5369 69.6663 76.4426 74.6571 76.4426 74.6571Z" fill="#7A7A7A"/>
<path d="M74.5055 66.5173C73.4239 66.1674 70.5912 66.507 67.5112 67.0627C66.6665 67.2171 65.8115 66.826 65.3583 66.0954L57.6223 65.4883C57.6223 65.4883 55.0677 71.1377 56.4686 74.7393C56.6746 75.2641 57.1278 75.6037 57.818 75.614C57.818 75.614 62.4946 75.6243 63.9883 75.6243C67.8305 75.6243 72.126 72.99 72.6823 72.8768C73.5887 72.6915 73.9493 74.5129 74.8661 76.4167C75.7725 78.3204 83.4055 84.8651 83.4055 84.8651C83.4055 84.8651 84.5799 84.8753 85.064 84.7004C85.5893 84.5049 85.7748 84.2476 85.7748 84.2476C85.7748 84.2476 77.328 67.4229 74.5055 66.5173Z" fill="#737373"/>
<path d="M64.5548 43.4051C63.9779 43.0655 63.4217 43.014 63.0818 43.0243C62.8448 43.0346 62.6079 43.014 62.371 42.9831C59.4249 42.551 57.6429 46.8318 57.5398 48.1283C57.3441 50.5054 56.0874 50.8656 54.3156 52.3577C50.7618 55.3419 51.8022 58.8097 53.7491 60.096C54.9131 60.8678 56.963 60.096 56.963 60.096C56.9939 60.1166 62.577 56.9781 65.3377 55.4654C69.4477 54.8685 66.2132 44.3929 64.5548 43.4051Z" fill="#7A7A7A"/>
<path d="M63.0201 54.1584C63.0304 54.1687 61.6604 54.6317 60.7539 54.2304C59.8989 53.8497 59.2396 52.4399 59.2602 52.4399C59.6517 52.4193 60.0843 52.0797 60.4139 49.8364L60.5788 49.8982L63.3806 50.9066C63.3806 50.9066 63.1746 51.8019 63.051 52.656C62.9274 53.3763 62.8656 54.0658 63.0201 54.1584Z" fill="#FFB27D"/>
<path d="M63.3702 50.9069C63.3702 50.9069 63.2569 51.3905 63.0921 52.2961C61.4851 52.008 60.795 50.7731 60.5684 49.8984L63.3702 50.9069Z" fill="#ED975D"/>
<path d="M63.7825 51.7919C63.7825 51.7919 59.9505 51.2774 60.311 48.9003C60.6716 46.5232 60.4141 44.8562 62.876 45.0826C65.3379 45.309 65.6778 46.2865 65.7499 47.1098C65.822 47.933 64.792 51.8639 63.7825 51.7919Z" fill="#FFB27D"/>
<path d="M65.6167 45.8128C65.6167 45.8128 63.1651 47.9223 61.4963 48.0972C59.8276 48.2619 59.1992 47.7268 59.1992 47.7268C59.1992 47.7268 60.1778 46.9138 60.7753 45.5967C60.9504 45.2056 61.3212 44.9381 61.7436 44.9072C62.9282 44.8043 65.1841 44.7529 65.6167 45.8128Z" fill="#7A7A7A"/>
<path d="M64.0811 45.6176C64.0811 45.6176 64.9051 46.41 65.1627 46.9965C65.4099 47.5625 65.482 48.9208 65.2863 49.4559C65.2863 49.4559 66.5636 46.9759 65.8425 45.7617C65.0699 44.4959 64.0811 45.6176 64.0811 45.6176Z" fill="#7A7A7A"/>
<path d="M66.2451 59.7974C66.1215 67.5461 66.2142 65.9305 65.3592 66.6611C65.1532 66.8361 64.5763 66.939 63.8244 66.9904C61.4449 67.1448 57.2627 66.7537 57.1082 66.3113C56.5622 64.7883 56.9434 64.3149 56.4901 61.9893C56.4386 61.7423 56.3871 61.4748 56.315 61.1866C55.9339 59.5916 55.563 59.0463 56.9124 56.4839C58.1383 54.1583 59.4156 52.2752 59.5289 52.3369C62.7634 54.2612 63.0312 52.6456 63.0312 52.6456C63.0312 52.6456 66.2966 56.0209 66.2451 59.7974Z" fill="#FF9900"/>
<path d="M74.5369 79.7817L72.0441 86.4704C72.0441 86.4704 71.3642 86.5322 70.7256 86.347C70.1281 86.172 69.4482 85.7295 69.4482 85.7295C69.4482 85.7295 70.1384 78.5469 71.4363 74.4204L74.5369 79.7817Z" fill="#737373"/>
<path d="M63.0303 52.6562C63.0303 52.6562 66.3678 53.2222 66.7489 54.6526C67.1403 56.0829 68.428 64.7886 68.428 64.7886C68.428 64.7886 67.4906 65.7044 66.7077 64.9224C65.9248 64.1403 64.2458 56.7827 64.2458 56.7827L63.0303 52.6562Z" fill="#FF9900"/>
<path d="M63.8235 67.0009C61.444 67.1552 57.2618 66.7642 57.1073 66.3217C56.5614 64.7987 56.9425 64.3254 56.4893 61.9997L57.6327 58.7686C57.6327 58.7686 57.4369 62.3599 58.4979 63.3066C59.5589 64.2533 62.8449 65.128 63.36 65.9204C63.6072 66.3114 63.772 66.6921 63.8235 67.0009Z" fill="#FF9900"/>
<path d="M61.0938 65.4883C61.0938 65.4883 63.4424 64.9635 63.8235 65.1796C64.2046 65.3854 65.1317 66.1469 65.245 66.4042C65.3583 66.6717 64.4004 66.2087 64.0913 66.1161C63.8853 66.0646 63.36 66.2498 63.0921 66.3322C61.9796 66.7026 61.3101 66.5071 61.3101 66.5071L61.0938 65.4883Z" fill="#FFB27D"/>
<path d="M59.5284 52.3472C59.5284 52.3472 56.3763 52.5427 55.2844 54.0554C53.7496 56.1958 50.7005 65.313 52.4413 66.5273C54.4088 67.8959 61.3826 66.8875 61.3826 66.8875C61.3826 66.8875 61.6195 65.807 61.2899 65.2822C60.9705 64.7574 55.717 63.9033 55.4698 63.6666C55.2226 63.4196 58.4983 58.9433 58.4983 58.223C58.5189 57.4924 59.5284 52.3472 59.5284 52.3472Z" fill="#FF9900"/>
<path d="M63.9375 65.8276C63.9375 65.8276 64.4319 66.4656 64.5865 66.5377C64.7513 66.6097 64.8543 66.5994 64.8543 66.5994L64.5247 66.0026L63.9375 65.8276Z" fill="#FFB27D"/>
<path d="M63.8242 65.1694L65.2561 65.8589C65.2561 65.8589 65.1942 65.9618 65.0191 65.9515C64.844 65.9412 64.4011 65.7766 64.4011 65.7766L63.8242 65.1694Z" fill="#FFB27D"/>
<path d="M76.0301 66.8052H61.0938V67.1345H75.8962L76.0301 66.8052Z" fill="#7A7A7A"/>
<path d="M64.5859 67.1344H75.8964L79.2957 58.686H68.0059L64.5859 67.1344Z" fill="#7A7A7A"/>
<path d="M73.0436 62.9052C73.126 62.6068 72.9612 62.3701 72.6625 62.3701C72.3638 62.3701 72.0547 62.6068 71.9723 62.9052C71.8899 63.2036 72.0547 63.4403 72.3535 63.4403C72.6522 63.4506 72.9612 63.2036 73.0436 62.9052Z" fill="white"/>
<path d="M149.558 98.9938C148.034 98.4896 146.983 99.1276 146.983 99.1276C142.595 99.3025 142.43 103.799 142.945 105.466C143.666 107.813 141.111 109.665 143.944 110.612C147.24 111.713 150.001 110.406 149.805 110.972C160.23 111.795 153.019 100.146 149.558 98.9938Z" fill="#2C3E50"/>
<path d="M145.016 120.83C145.016 120.83 144.604 121.653 143.842 122.6C142.935 123.742 138.145 121.036 138.557 120.83C138.969 120.624 141.369 113.709 141.946 112.845C142.523 111.98 144.47 111.527 144.47 111.527L145.016 120.83Z" fill="#FF9900"/>
<path d="M161.148 167.466C161.148 167.466 162.466 168.67 162.209 169.524C161.951 170.378 160.756 170.944 160.602 171.994C160.437 173.043 159.798 173.609 159.221 173.609C158.645 173.609 156.461 173.609 156.461 173.609C156.461 173.609 156.038 172.879 157.068 172.652C158.099 172.426 158.49 171.201 158.418 170.059C158.356 168.917 158.511 167.404 158.511 167.404L160.694 166.9L161.148 167.466Z" fill="#1F447F"/>
<path d="M149.981 167.98C149.981 167.98 150.454 173.074 149.878 173.362L142.461 173.352C142.461 173.352 142.461 172.498 143.656 172.302C144.851 172.117 146.942 171.417 147.292 169.864C147.642 168.31 149.981 167.98 149.981 167.98Z" fill="#2C3E50"/>
<path d="M155.677 117.393C155.677 117.393 155.791 118.947 155.677 120.82C155.605 122.055 154.349 123.711 154.173 124.123C153.731 125.152 153.226 125.317 153.226 125.317L149.332 126.274L147.962 126.613L143.646 125.327C143.646 125.327 141.678 119.842 142.472 116.755C143.265 113.668 144.47 111.528 144.47 111.528C144.47 111.528 147.406 110.869 152.577 111.24L155.677 117.393Z" fill="#FF9900"/>
<path d="M156.049 120.861C155.976 122.096 154.349 123.711 154.174 124.123C153.731 125.152 153.226 125.317 153.226 125.317L149.332 126.274L148.632 124.257C148.632 124.257 154.318 122.765 153.401 117.506L156.049 120.861Z" fill="#FF9900"/>
<path d="M143.924 126.15C143.924 126.15 141.782 132.797 141.648 135.061C141.514 137.325 145.737 167.209 145.902 168.258C146.067 169.246 147.282 169.863 147.282 169.863C147.282 169.863 147.849 170.193 148.642 169.966C149.754 169.658 150.105 169.277 150.105 169.277C150.105 169.277 151.773 147.966 150.743 140.351C149.713 132.736 149.703 126.15 149.703 126.15H143.924Z" fill="#7A7A7A"/>
<path d="M152.978 125.955C152.978 125.955 156.244 130.328 156.543 133.281C156.852 136.235 157.016 146.618 157.665 149.499C158.314 152.38 160.694 157.927 160.694 166.91C160.694 166.91 160.447 167.425 159.684 167.703C159.437 167.795 159.118 167.878 158.799 167.95C158.17 168.094 157.521 167.785 157.233 167.209C155.626 163.978 150.496 153.533 150.238 151.372C150.053 149.839 148.436 139.692 144.903 133.734C144.058 132.304 145.418 126.623 145.418 126.623L152.978 125.955Z" fill="#737373"/>
<path d="M143.584 125.131C143.584 125.131 144.439 125.811 146.149 125.841C148.189 125.883 153.236 125.327 153.236 125.327C153.236 125.327 153.463 125.955 153.453 126.613C153.453 126.613 147.293 128.167 143.718 126.84C143.708 126.829 143.244 125.965 143.584 125.131Z" fill="#7A7A7A"/>
<path d="M145.655 127.591C145.14 127.591 144.728 127.118 144.728 126.541C144.728 125.965 145.14 125.492 145.655 125.492C146.17 125.492 146.582 125.965 146.582 126.541C146.582 127.118 146.17 127.591 145.655 127.591ZM145.655 125.8C145.315 125.8 145.037 126.13 145.037 126.541C145.037 126.953 145.315 127.282 145.655 127.282C145.995 127.282 146.273 126.953 146.273 126.541C146.273 126.13 145.995 125.8 145.655 125.8Z" fill="white"/>
<path d="M150.105 129.505L140.844 129.587L136.291 118.885L145.552 118.803L150.105 129.505Z" fill="#B5453C"/>
<path d="M148.9 124.669L148.22 123.835C148.22 123.835 147.756 123.423 147.427 123.351C147.097 123.279 146.386 122.878 146.324 122.991C146.252 123.104 146.87 123.917 146.87 123.917H146.901C146.201 124.442 144.439 123.979 144.223 124.195C143.955 124.452 144.583 125.018 144.923 125.327C145.263 125.636 146.221 126.171 146.973 125.934C147.519 125.759 148.385 125.595 148.385 125.595L148.9 124.669Z" fill="#FFB27D"/>
<path d="M136.981 120.768C136.981 120.768 137.568 120.11 137.929 120.429C138.3 120.748 137.836 122.301 137.476 122.147C137.115 121.993 136.786 120.964 136.981 120.768Z" fill="#FFB27D"/>
<path d="M152.577 111.229C152.577 111.229 155.224 111.517 157.13 114.975C158.634 117.702 161.199 122.723 160.231 124.133C159.808 124.761 155.729 126.973 147.88 125.708C147.88 125.708 148.003 124.72 148.642 124.257C148.642 124.257 155.255 122.137 155.245 121.715C155.224 120.912 154.349 120.223 150.661 116.539C149.641 115.541 152.577 111.229 152.577 111.229Z" fill="#FF9900"/>
<path d="M150.537 111.373C150.63 111.25 150.506 110.859 150.362 110.138C150.228 109.48 150.001 108.471 150.011 107.329L149.816 107.36L146.53 107.916C146.53 107.916 146.602 108.79 146.602 109.624C146.602 109.634 146.602 109.634 146.602 109.644C146.602 110.365 146.406 111.445 146.653 111.589C147.9 112.31 150.187 111.847 150.537 111.373Z" fill="#FFB27D"/>
<path d="M146.53 107.905C146.53 107.905 146.592 109.14 146.602 109.974C148.446 109.932 149.425 108.142 149.816 107.36L146.53 107.905Z" fill="#E8945B"/>
<path d="M146.334 109.387C146.334 109.387 150.64 108.769 150.218 106.104C149.795 103.439 150.063 101.546 147.292 101.823C144.521 102.101 144.15 103.202 144.078 104.128C144.006 105.055 145.201 109.469 146.334 109.387Z" fill="#FFB27D"/>
<path d="M145.325 102.06C145.325 102.06 147.004 105.014 148.879 105.189C150.754 105.364 151.465 104.756 151.465 104.756C151.465 104.756 149.909 103.882 149.312 102.009C149.312 102.009 145.974 100.435 145.325 102.06Z" fill="#2C3E50"/>
<path d="M145.665 102.277C145.665 102.277 144.84 102.74 144.583 103.429C144.336 104.108 144.161 104.973 144.398 105.981C144.398 105.981 143.172 103.995 143.975 102.626C144.82 101.176 145.665 102.277 145.665 102.277Z" fill="#2C3E50"/>
<path d="M240.578 174H1.77138C1.60657 174 1.47266 173.867 1.47266 173.702V173.527C1.47266 173.362 1.60657 173.229 1.77138 173.229H240.578C240.743 173.229 240.877 173.362 240.877 173.527V173.702C240.877 173.867 240.743 174 240.578 174Z" fill="#7A7A7A"/>
</g>
<defs>
<clipPath id="clip0_78_7151">
<rect width="242" height="174" fill="white"/>
</clipPath>
</defs>
</svg>
