<svg width="308" height="289" viewBox="0 0 308 289" fill="none" xmlns="http://www.w3.org/2000/svg">
<path d="M184.929 285.631C185.323 286.074 185.674 286.555 185.977 287.065H178.288C177.226 286.572 176.146 286.094 175.049 285.631C174.776 285.516 174.503 285.401 174.226 285.285C173.317 284.908 172.279 284.396 172.379 283.698C172.465 283.11 173.35 282.713 174.207 282.512C177.862 281.651 182.149 282.923 184.336 285.013C184.547 285.214 184.743 285.419 184.929 285.63V285.631Z" fill="#E6E6E6"/>
<path d="M189.571 286.864C189.528 286.912 189.489 286.955 189.451 287.003C189.303 287.18 189.164 287.362 189.04 287.544C188.875 287.781 188.731 288.032 188.609 288.294C188.533 288.038 188.44 287.788 188.332 287.544C188.246 287.337 188.149 287.136 188.04 286.941C187.146 285.43 185.983 284.095 184.609 283.001C182.691 281.38 180.451 279.931 178.408 278.372C177.523 277.698 176.633 276.78 177.245 275.986C177.753 275.326 179.054 275.131 180.193 275.116C184.495 275.044 188.777 276.531 191.069 278.894C192.595 280.462 193.232 282.494 192.126 284.206C191.499 285.167 190.38 285.961 189.571 286.864H189.571Z" fill="#E6E6E6"/>
<path d="M207.231 287.065C207.092 286.955 206.954 286.845 206.809 286.74C206.238 286.319 205.631 285.948 204.996 285.631C203.423 284.841 201.698 284.399 199.939 284.335C197.862 284.293 195.804 284.737 193.929 285.631C193.637 285.765 193.353 285.908 193.087 286.057C192.582 286.336 192.093 286.642 191.622 286.975C191.579 287.003 191.537 287.032 191.493 287.065H207.231Z" fill="#E6E6E6"/>
<path d="M193.824 287.065H191.403C191.475 287.032 191.552 287.003 191.624 286.974C192.049 286.792 192.475 286.616 192.877 286.415C193.04 286.351 193.218 286.333 193.391 286.363C193.563 286.392 193.725 286.468 193.858 286.582C193.89 286.614 193.915 286.653 193.931 286.696C193.947 286.739 193.954 286.785 193.951 286.831C193.948 286.877 193.935 286.921 193.913 286.962C193.891 287.002 193.861 287.037 193.824 287.065Z" fill="#60C352"/>
<path d="M179.618 75.2349L122.636 50.0407C121.854 49.6965 120.968 49.6758 120.171 49.9831C119.374 50.2905 118.731 50.9008 118.383 51.6807L90.6036 114.42C90.2593 115.202 90.2393 116.089 90.5478 116.886C90.8563 117.682 91.4683 118.324 92.2496 118.671L149.231 143.865C150.013 144.209 150.9 144.23 151.697 143.923C152.494 143.615 153.137 143.005 153.485 142.225L181.264 79.4857C181.609 78.7037 181.629 77.8172 181.32 77.0204C181.012 76.2237 180.4 75.5816 179.618 75.2349Z" fill="#D6D6E3"/>
<path d="M121.915 51.6857C121.744 51.6096 121.559 51.5679 121.372 51.5631C121.185 51.5582 120.999 51.5902 120.825 51.6573C120.65 51.7243 120.49 51.8251 120.355 51.9539C120.219 52.0826 120.11 52.2368 120.034 52.4077L92.2553 115.147C92.1042 115.493 92.096 115.885 92.2326 116.237C92.3691 116.589 92.6393 116.872 92.9843 117.026L149.966 142.22C150.137 142.296 150.321 142.338 150.508 142.343C150.695 142.348 150.881 142.316 151.056 142.248C151.23 142.181 151.39 142.081 151.526 141.952C151.661 141.823 151.77 141.669 151.846 141.498L179.625 78.7586C179.777 78.4127 179.785 78.0211 179.648 77.6692C179.512 77.3173 179.241 77.0335 178.896 76.8798L121.915 51.6857Z" fill="#F2F2F2"/>
<path d="M134.544 71.4799L121.952 65.9093L122.241 65.2532L134.835 70.8238L134.544 71.4799Z" fill="#D3D3D3"/>
<path d="M163.942 89.8553L119.962 70.4039L120.251 69.7479L164.233 89.1997L163.942 89.8553Z" fill="#D3D3D3"/>
<path d="M161.951 94.35L117.971 74.8986L118.26 74.2425L162.241 93.6943L161.951 94.35Z" fill="#D3D3D3"/>
<path d="M119.506 105.444L106.914 99.873L107.203 99.217L119.797 104.788L119.506 105.444Z" fill="#D3D3D3"/>
<path d="M148.903 123.819L104.923 104.368L105.212 103.712L149.193 123.163L148.903 123.819Z" fill="#D3D3D3"/>
<path d="M146.913 128.314L102.933 108.867L103.222 108.211L147.203 127.658L146.913 128.314Z" fill="#D3D3D3"/>
<path d="M127.023 88.4592L114.431 82.8936L114.72 82.2376L127.313 87.8036L127.023 88.4592Z" fill="#D3D3D3"/>
<path d="M156.426 106.835L112.44 87.3883L112.729 86.7322L156.716 106.179L156.426 106.835Z" fill="#D3D3D3"/>
<path d="M154.434 111.33L110.449 91.883L110.738 91.2269L154.724 110.674L154.434 111.33Z" fill="#D3D3D3"/>
<path d="M307.491 287.783C307.491 287.877 307.473 287.97 307.437 288.058C307.401 288.145 307.348 288.224 307.281 288.29C307.215 288.357 307.135 288.41 307.048 288.446C306.961 288.482 306.868 288.5 306.773 288.5H1.2091C1.02163 288.496 0.843298 288.418 0.712242 288.284C0.581187 288.15 0.507813 287.97 0.507812 287.783C0.507813 287.596 0.581187 287.416 0.712242 287.282C0.843298 287.148 1.02163 287.07 1.2091 287.066H306.774C306.868 287.066 306.961 287.084 307.048 287.12C307.135 287.156 307.215 287.209 307.281 287.276C307.348 287.342 307.401 287.421 307.437 287.508C307.473 287.595 307.491 287.689 307.491 287.783Z" fill="#F2F2F2"/>
<path d="M77.0318 0.499786L71.3477 1.30923L104.425 233.279L110.109 232.47L77.0318 0.499786Z" fill="#2C3E50"/>
<path d="M140.455 284.197H47.1523V287.544H140.455V284.197Z" fill="#D6D6E3"/>
<path d="M92.5217 176.198L64.8273 287.381L61.5928 286.52L89.2872 175.343L92.5217 176.198Z" fill="#D6D6E3"/>
<path d="M92.6079 180.913C95.2503 180.913 97.3925 178.773 97.3925 176.132C97.3925 173.491 95.2503 171.35 92.6079 171.35C89.9654 171.35 87.8232 173.491 87.8232 176.132C87.8232 178.773 89.9654 180.913 92.6079 180.913Z" fill="#2C3E50"/>
<path d="M238.59 25.1096C239.138 26.4371 239.349 27.8793 239.204 29.3078L245.594 42.7922L238.862 45.7999L233.102 31.799C232.02 30.8657 231.188 29.6775 230.681 28.342C229.365 25.0187 230.067 21.6 232.25 20.7116C234.433 19.8231 237.269 21.7921 238.585 25.1153L238.59 25.1096Z" fill="#FFB8B8"/>
<path d="M262.723 114.5L228.939 40.2669L242.265 31.5168C242.265 31.5168 271.045 103.102 271.715 106.464C272.385 109.826 262.725 114.497 262.725 114.497L262.723 114.5Z" fill="#FF9900"/>
<path d="M270.127 68.3353H259.007V85.965L271.261 81.9389L270.127 68.3353Z" fill="#FFB8B8"/>
<path d="M260.524 73.2122C267.268 73.2122 272.735 67.749 272.735 61.0097C272.735 54.2704 267.268 48.8072 260.524 48.8072C253.78 48.8072 248.313 54.2704 248.313 61.0097C248.313 67.749 253.78 73.2122 260.524 73.2122Z" fill="#FFB8B8"/>
<path d="M263.634 61.9568C269.889 59.3111 269.166 68.8042 269.166 68.8042L270.357 71.0665L275.614 61.0776C278.776 51.39 267.719 45.824 267.719 45.824C264.116 41.5828 256.86 46.5461 256.86 46.5461C246.406 44.227 251.454 53.0346 251.454 53.0346C251.454 53.0346 255.018 53.1159 255.018 55.9993C255.018 58.8828 258.904 58.6834 258.904 58.6834L261.947 64.0101L263.631 61.9683V61.9587L263.634 61.9568Z" fill="#2C3E50"/>
<path d="M274.941 264.912H264.922V279.118H274.941V264.912Z" fill="#FFB8B8"/>
<path d="M266.022 287.257C265.974 287.266 259.553 287.721 255.156 287.721C254.103 287.721 253.165 287.697 252.457 287.63C249.792 287.386 247.256 285.421 245.979 284.273C245.699 284.022 245.505 283.69 245.422 283.323C245.34 282.957 245.373 282.574 245.518 282.227C245.623 281.977 245.783 281.754 245.986 281.575C246.189 281.395 246.43 281.264 246.69 281.189L253.724 279.181L265.111 271.502L265.241 271.732C265.863 272.833 266.379 273.99 266.781 275.189C266.856 275.398 266.885 275.62 266.866 275.842C266.847 276.063 266.781 276.277 266.671 276.47C266.541 276.664 266.358 276.817 266.145 276.91C266.35 277.125 266.996 277.565 268.987 277.881C271.891 278.344 272.503 275.337 272.527 275.208L272.546 275.107L272.632 275.05C274.014 274.16 274.867 273.754 275.159 273.84C275.345 273.892 275.652 273.983 276.474 282.179C276.876 283.454 276.968 284.806 276.743 286.124C276.312 288.089 267.738 287.41 266.025 287.257H266.022Z" fill="#2C3E50"/>
<path d="M247.878 169.237L261.878 268.03H276.73L277.344 172.259C282.435 156.355 278.406 141.092 278.406 141.092L252.123 142.434L247.879 169.237L247.878 169.237Z" fill="#2C3E50"/>
<path d="M256.557 78.5527L252.141 97.3542L246.586 142.441L278.409 141.099C278.409 141.099 282.227 118.204 284.381 105.906C286.534 93.6077 270.983 70.9047 270.983 70.9047L256.557 78.5554L256.557 78.5527Z" fill="#FF9900"/>
<path d="M271.652 268.367L262.975 263.361L255.867 275.664L264.544 280.67L271.652 268.367Z" fill="#FFB8B8"/>
<path d="M258.892 287.257C258.844 287.266 252.423 287.721 248.026 287.721C246.973 287.721 246.035 287.697 245.327 287.63C242.662 287.386 240.126 285.421 238.849 284.273C238.569 284.022 238.375 283.69 238.292 283.323C238.21 282.957 238.243 282.574 238.388 282.227C238.494 281.977 238.653 281.754 238.856 281.575C239.059 281.395 239.3 281.264 239.56 281.189L246.594 279.181L257.982 271.502L258.111 271.732C258.733 272.833 259.249 273.99 259.652 275.189C259.727 275.398 259.756 275.62 259.737 275.842C259.718 276.063 259.651 276.277 259.541 276.47C259.412 276.664 259.229 276.817 259.015 276.91C259.221 277.125 259.867 277.565 261.857 277.881C264.762 278.344 265.374 275.337 265.398 275.208L265.417 275.107L265.503 275.05C266.884 274.16 267.737 273.754 268.029 273.84C268.216 273.892 268.522 273.983 269.345 282.179C269.746 283.454 269.838 284.806 269.613 286.124C269.183 288.089 260.609 287.41 258.895 287.257H258.89H258.892Z" fill="#2C3E50"/>
<path d="M248.483 168.88L260.196 268.028H272.621L277.768 171.913C282.027 155.952 278.657 140.634 278.657 140.634L252.034 141.983L248.483 168.88Z" fill="#2C3E50"/>
<path d="M234.356 167.444C234.807 166.081 235.588 164.851 236.629 163.863L240.586 149.475L247.648 151.584L242.878 165.952C243.088 167.365 242.943 168.808 242.455 170.151C241.283 173.531 238.522 175.659 236.288 174.913C234.054 174.168 233.187 170.82 234.36 167.444L234.356 167.444Z" fill="#FFB8B8"/>
<path d="M274.285 84.0666L251.514 162.134L235.748 160.083C235.748 160.083 260.581 87.2683 262.261 84.2898C263.941 81.3112 274.29 84.0597 274.29 84.0597L274.285 84.0666Z" fill="#FF9900"/>
<path d="M231.461 22.7714H148.689C147.553 22.7725 146.464 23.2236 145.661 24.0258C144.857 24.828 144.405 25.9159 144.402 27.0509V118.188C144.404 119.324 144.857 120.412 145.66 121.214C146.464 122.017 147.553 122.468 148.689 122.469H231.461C232.597 122.468 233.686 122.017 234.489 121.215C235.293 120.412 235.746 119.325 235.748 118.189V27.0509C235.746 25.9159 235.293 24.828 234.489 24.0258C233.686 23.2236 232.597 22.7725 231.461 22.7714Z" fill="#D6D6E3"/>
<path d="M148.69 25.1621C148.188 25.1622 147.707 25.3611 147.352 25.7152C146.996 26.0693 146.796 26.5496 146.795 27.051V118.188C146.796 118.689 146.996 119.17 147.352 119.524C147.707 119.878 148.188 120.077 148.69 120.077H231.461C231.963 120.077 232.444 119.878 232.799 119.524C233.154 119.17 233.355 118.689 233.356 118.188V27.051C233.355 26.5496 233.154 26.0693 232.799 25.7152C232.444 25.3611 231.963 25.1622 231.461 25.1621H148.69Z" fill="#F2F2F2"/>
<path d="M174.686 42.3091H156.389V41.5917H174.686V42.3091Z" fill="#2C3E50"/>
<path d="M220.28 48.8359H156.389V48.1185H220.28V48.8359Z" fill="#2C3E50"/>
<path d="M220.28 55.3678H156.389V54.6504H220.28V55.3678Z" fill="#2C3E50"/>
<path d="M174.686 91.646H156.389V90.9286H174.686V91.646Z" fill="#2C3E50"/>
<path d="M220.28 98.1775H156.389V97.4601H220.28V98.1775Z" fill="#2C3E50"/>
<path d="M220.28 104.709H156.389V103.992H220.28V104.709Z" fill="#2C3E50"/>
<path d="M174.686 66.9775H156.389V66.2601H174.686V66.9775Z" fill="#2C3E50"/>
<path d="M220.28 73.5094H156.389V72.792H220.28V73.5094Z" fill="#2C3E50"/>
<path d="M220.28 80.0363H156.389V79.3188H220.28V80.0363Z" fill="#2C3E50"/>
<path opacity="0.5" d="M268.648 108.386L257.911 146.811" stroke="black" stroke-miterlimit="10"/>
<path d="M146.676 33.1622C152.754 33.1622 157.681 28.2383 157.681 22.1644C157.681 16.0905 152.754 11.1667 146.676 11.1667C140.598 11.1667 135.671 16.0905 135.671 22.1644C135.671 28.2383 140.598 33.1622 146.676 33.1622Z" fill="white"/>
<path fill-rule="evenodd" clip-rule="evenodd" d="M146.935 10.3438C144.431 10.3438 141.983 11.0859 139.901 12.4763C137.818 13.8667 136.196 15.8429 135.237 18.155C134.279 20.4671 134.028 23.0113 134.517 25.4658C135.005 27.9203 136.211 30.175 137.982 31.9446C139.753 33.7142 142.009 34.9193 144.465 35.4076C146.921 35.8958 149.467 35.6452 151.781 34.6875C154.094 33.7298 156.072 32.108 157.463 30.0271C158.854 27.9463 159.597 25.4999 159.597 22.9973C159.597 21.3355 159.27 19.69 158.634 18.1546C157.998 16.6193 157.065 15.2243 155.889 14.0492C154.713 12.8742 153.317 11.9422 151.781 11.3064C150.245 10.6706 148.598 10.3435 146.935 10.3438ZM152.015 19.2472C152.155 19.0404 152.208 18.787 152.163 18.5416C152.118 18.2961 151.978 18.0781 151.774 17.9342C151.57 17.7904 151.318 17.7322 151.071 17.772C150.825 17.8119 150.604 17.9467 150.456 18.1475L145.063 25.8075L142.838 23.5452C142.657 23.3812 142.42 23.2925 142.175 23.2973C141.931 23.302 141.697 23.3998 141.523 23.5708C141.348 23.7417 141.245 23.9728 141.235 24.2169C141.226 24.461 141.309 24.6997 141.47 24.8842L144.498 27.9635C144.597 28.063 144.716 28.1397 144.847 28.1882C144.979 28.2368 145.119 28.2561 145.258 28.2447C145.398 28.2333 145.533 28.1915 145.655 28.1222C145.777 28.053 145.882 27.958 145.963 27.8439L152.015 19.2472Z" fill="#43A047"/>
</svg>
