<svg width="43" height="43" viewBox="0 0 43 43" fill="none" xmlns="http://www.w3.org/2000/svg">
<g clip-path="url(#clip0_21_6226)">
<path d="M28.9178 17.4325C13.3258 -28.4927 42.7154 58.0752 28.9178 17.4325V17.4325ZM0.000537866 25.0702C-0.0243215 22.7056 0.811323 20.5793 2.76094 19.7429C2.83333 19.6259 2.9043 19.5351 3.03061 19.4216C3.25586 19.219 3.46036 19.1589 3.72525 19.0507C13.0726 15.3634 16.6599 9.61807 18.7002 6.35047C19.2958 5.3966 19.7709 4.6358 20.2611 4.11104C20.533 3.81989 20.7469 3.63275 21.0683 3.50334C21.4004 3.36952 21.7096 3.35736 22.1402 3.43157C23.0857 3.5943 24.0553 4.27062 25.0032 5.32347C27.1022 7.65503 29.3154 12.0738 30.8763 16.6712C32.4446 21.2911 33.3728 26.1566 32.893 29.36C32.6952 30.6813 32.259 31.7656 31.5369 32.5129L31.5358 32.5117C31.4939 32.5549 31.448 32.5949 31.3983 32.6311C30.9023 32.9925 30.4344 33.1329 29.9502 33.1528C29.5318 33.17 29.1653 33.0937 28.758 33.003C28.0249 32.8395 27.323 32.6249 26.5665 32.3937C24.1031 31.6407 21.0301 30.7019 16.1472 31.3162C16.0499 31.663 15.9785 32.0335 15.9755 32.3643C15.9735 32.5842 15.9942 32.7587 16.0541 32.8174L16.1365 32.898C16.5935 33.3438 16.8187 33.5628 16.9535 34.1036C17.0589 34.5265 17.0149 34.8908 16.9283 35.6081L16.8993 35.8495C16.8505 36.261 17.0476 36.3512 17.2444 36.4412C17.8212 36.7049 18.3979 36.9685 18.7107 37.864C18.7964 38.0716 18.8209 38.3024 18.7809 38.5254C18.5303 39.9055 17.7706 40.6059 17.0114 41.306C16.8622 41.4436 16.7126 41.5815 16.5792 41.7169L16.5775 41.715C16.5559 41.7368 16.5334 41.758 16.5099 41.7783C14.6993 43.3307 13.4402 42.8681 12.4662 41.5619C11.8452 40.7292 11.4519 39.5666 11.0848 38.4813L10.9338 38.0417C10.4097 36.5208 10.0166 34.7023 9.61919 32.8094L9.51916 32.8424C9.11724 32.9702 8.71666 33.1028 8.31751 33.2402C8.27812 33.2538 8.25771 33.2625 8.241 33.2697C7.8839 33.4219 7.70485 33.498 7.41703 33.3874C5.03885 34.0422 3.06152 32.7997 1.73314 30.8067C1.19093 29.993 0.76194 29.0488 0.466819 28.065C0.173378 27.0864 0.0110359 26.0579 0.000537866 25.0702Z" fill="#3C444C"/>
<path fill-rule="evenodd" clip-rule="evenodd" d="M3.45567 20.6661C-1.46413 22.2181 1.75868 34.302 7.52152 32.1878C7.74341 32.3365 7.7403 32.2664 7.99965 32.1767C8.79198 31.902 9.59016 31.6471 10.3935 31.4121C10.8707 33.6678 11.3035 35.886 11.9135 37.6564C12.6918 39.9148 13.5023 42.9302 15.8615 40.9073C16.6057 40.1516 17.5294 39.5692 17.7571 38.3151C17.3784 37.0967 15.6178 37.8152 15.8675 35.7092C16.0405 34.2507 16.0785 34.3548 15.3526 33.644C14.6176 32.9242 15.0006 31.2878 15.3836 30.2939C17.9461 29.9137 20.0416 29.9365 21.8189 30.1512C19.5678 27.421 17.9741 24.5309 16.9888 21.517C16.0002 18.492 15.6274 15.3558 15.8209 12.1433C13.3714 14.897 9.75299 17.8644 4.08471 20.1004C3.62356 20.2824 3.71854 20.2162 3.45567 20.6661Z" fill="#F6F4FC"/>
<path d="M25.8159 32.1847C25.2024 32.0035 23.0471 31.5616 22.6516 31.1206C19.9562 28.1083 18.0913 24.8903 16.9888 21.5173C15.8425 18.0096 15.524 14.3524 15.9565 10.6C15.9573 10.6001 16.1398 10.0934 16.1686 10.0531C16.8556 9.09764 17.5427 8.04461 18.1675 7.08731C19.0167 5.78573 19.7576 4.65039 20.2615 4.11104C20.5335 3.81989 20.7473 3.63275 21.0687 3.50334C21.4009 3.36952 21.71 3.35736 22.1406 3.43157C23.0861 3.5943 24.0558 4.27062 25.0036 5.32347C27.1027 7.65503 29.3158 12.0738 30.8767 16.6712C32.4451 21.2911 33.3733 26.1566 32.8935 29.36C32.6957 30.6813 32.2595 31.7656 31.5374 32.5129L31.5363 32.5117C31.4944 32.5549 31.4484 32.5949 31.3987 32.6311C30.9026 32.9926 30.4346 33.1328 29.9506 33.1526C29.532 33.1699 29.1657 33.0936 28.7585 33.003C28.0623 32.8478 26.9537 32.5205 25.8159 32.1847Z" fill="#3C444C"/>
<path fill-rule="evenodd" clip-rule="evenodd" d="M23.4014 30.3461C24.4564 30.6144 25.9071 31.059 27.1518 31.4203C24.6049 28.6843 22.525 24.4807 21.1186 20.1774C19.6174 15.5839 18.8793 10.8076 19.1521 7.52246C18.479 8.55325 17.727 9.71317 16.992 10.7355C16.1792 17.7862 18.1301 24.4547 23.4014 30.3461Z" fill="#43A047"/>
<path fill-rule="evenodd" clip-rule="evenodd" d="M10.3828 31.4032C10.7795 33.2939 11.3969 36.1582 11.9131 37.6562C12.6912 39.9146 13.5019 42.93 15.8611 40.9071C16.6053 40.1514 17.529 39.569 17.7567 38.3149C17.378 37.0965 15.6174 37.815 15.8671 35.7089C16.0401 34.2505 16.0781 34.3546 15.3523 33.6438C14.6446 32.9507 14.9733 31.4081 15.3405 30.4072C16.3011 29.9018 18.9097 29.8526 21.7818 30.1595C19.9767 27.9692 18.6124 25.923 17.3934 22.7318C14.6452 25.3168 13.131 28.8181 10.3828 31.4032Z" fill="#DBD9E5"/>
<path d="M19.7302 4.88789C19.9011 4.44941 20.1335 4.10521 20.4198 3.84954C21.0597 3.27787 21.8253 3.21014 22.6676 3.56578C23.2753 3.82235 23.9333 4.32639 24.6068 5.02829C26.1225 6.6077 27.8482 9.3247 29.2815 12.4885C31.1064 16.5162 32.5906 21.269 33.1099 25.0945C33.3653 26.9756 33.3893 28.6637 33.1115 29.9813C32.7769 31.5694 32.0192 32.6665 30.7384 33.0462C30.2992 33.1763 29.8185 33.2115 29.2948 33.1413C29.0908 33.115 28.8988 33.0244 28.7428 32.881C25.4687 30.37 22.8083 25.3453 21.1193 20.1772C19.1393 14.1187 18.4862 7.74106 19.7302 4.88789ZM29.811 6.18218C29.4677 6.4854 28.9609 6.43479 28.6781 6.06709C28.3954 5.69894 28.4423 5.15545 28.7855 4.85232L33.6119 0.573564C33.9548 0.270435 34.4619 0.320957 34.7447 0.688746C35.0271 1.05672 34.9803 1.6003 34.637 1.9037L29.811 6.18218ZM36.5912 27.3282C36.1469 27.35 35.7742 26.9784 35.7581 26.5005C35.738 26.0246 36.0843 25.6243 36.53 25.6074L42.1668 25.3804C42.6081 25.3648 42.9811 25.7366 42.9999 26.208C43.0082 26.4364 42.9319 26.6591 42.7876 26.8274C42.6433 26.9956 42.4427 27.0958 42.2297 27.1059L36.5912 27.3282ZM36.4302 21.4559C35.9895 21.519 35.5845 21.186 35.5272 20.7183C35.4685 20.2458 35.7791 19.8114 36.2151 19.75L41.4228 19.008C41.8635 18.9447 42.2686 19.2779 42.3257 19.7456C42.3847 20.2179 42.0738 20.6525 41.6381 20.7138L36.4302 21.4559ZM35.3345 16.0648C34.9144 16.2209 34.4556 15.9826 34.3095 15.5319C34.2748 15.4248 34.2601 15.3113 34.2663 15.1981C34.2725 15.0849 34.2994 14.9741 34.3455 14.872C34.3916 14.7699 34.4561 14.6786 34.5351 14.6032C34.6142 14.5279 34.7063 14.4699 34.8063 14.4328L40.1462 12.4455C40.5649 12.2841 41.0256 12.5275 41.1712 12.978C41.2412 13.1944 41.2281 13.4318 41.135 13.638C41.0418 13.8441 40.8762 14.0022 40.6744 14.0774L35.3345 16.0648ZM32.8163 10.8726C32.4305 11.1089 31.9401 10.9648 31.7197 10.5514C31.4995 10.1378 31.6339 9.61207 32.0196 9.37576L37.0792 6.26314C37.4649 6.02665 37.9553 6.17074 38.1756 6.5841C38.3958 6.99773 38.2614 7.52348 37.8756 7.75979L32.8163 10.8726Z" fill="#3C444C"/>
<path fill-rule="evenodd" clip-rule="evenodd" d="M20.6918 5.3199C21.759 2.57183 25.5811 6.87841 28.3429 12.9741C32.1077 21.2836 34.3798 32.6951 29.4212 32.0301C22.676 26.9608 18.5308 10.1077 20.6918 5.3199Z" fill="white"/>
<path fill-rule="evenodd" clip-rule="evenodd" d="M28.9719 14.4257C32.3433 22.5481 34.0967 32.6571 29.4212 32.0301C27.3169 30.4488 25.4659 27.7205 23.9803 24.5697C21.2709 17.9454 20.1339 10.1587 21.4935 7.14671C22.5387 4.45528 26.2259 8.53051 28.9719 14.4257Z" fill="#F6F4FC"/>
<path fill-rule="evenodd" clip-rule="evenodd" d="M26.3363 20.3724C26.3363 22.124 24.3419 25.6377 23.668 24.1342C22.6318 21.8222 21.7892 19.4325 21.256 16.8745C21.0858 16.0542 26.3363 16.163 26.3363 20.3724Z" fill="#3C444C"/>
</g>
<defs>
<clipPath id="clip0_21_6226">
<rect width="43" height="42.381" fill="white" transform="translate(0 0.30957)"/>
</clipPath>
</defs>
</svg>
