<svg width="134" height="133" viewBox="0 0 134 133" fill="none" xmlns="http://www.w3.org/2000/svg">
<g clip-path="url(#clip0_21_5947)">
<path d="M60.7295 119.637C64.2328 121.599 71.3568 123.092 77.0983 122.057C82.8397 121.021 89.2046 117.279 91.5898 114.07L60.7295 119.637Z" fill="#FF9900"/>
<path d="M118.75 96.2025L114.444 96.9793C114.12 95.1851 113.891 95.9675 113.826 95.6087C110.913 79.4608 102.375 97.8595 91.796 59.752L90.5337 52.7546C87.9768 38.5804 74.9283 28.8924 60.7541 31.4493C46.5799 34.0063 37.7067 47.4635 40.296 61.8172L41.5582 68.8146C44.9933 108.396 30.5327 93.9609 33.478 110.288C33.5428 110.647 33.0544 109.994 33.3781 111.788L29.072 112.565C26.919 112.953 25.6454 114.109 26.0338 116.263L26.5193 118.954C26.8754 120.927 28.5049 121.745 30.658 121.357L120.368 105.174C122.521 104.785 123.762 103.45 123.374 101.297L122.889 98.6053C122.5 96.4523 120.903 95.8141 118.75 96.2025Z" fill="#FF9900"/>
<path d="M118.75 96.2025L114.444 96.9793C114.12 95.1851 113.891 95.9675 113.826 95.6087C110.913 79.4608 102.375 97.8595 91.796 59.752L90.5337 52.7546C87.9768 38.5804 74.9283 28.8924 60.7541 31.4493C46.5799 34.0063 37.7067 47.4635 40.296 61.8172L41.5582 68.8146C44.9933 108.396 30.5327 93.9609 33.478 110.288C33.5428 110.647 33.0544 109.994 33.3781 111.788L29.072 112.565C26.919 112.953 25.6454 114.109 26.0338 116.263L26.5193 118.954C26.8754 120.927 28.5049 121.745 30.658 121.357L120.368 105.174C122.521 104.785 123.762 103.45 123.374 101.297L122.889 98.6053C122.5 96.4523 120.903 95.8141 118.75 96.2025Z" fill="#FF9900"/>
<path d="M61.6923 36.6525C54.3361 37.9796 47.3471 33.1268 46.0201 25.7705C44.6931 18.4143 49.5459 11.4253 56.9021 10.0983C64.2584 8.77129 71.2473 13.6241 72.5743 20.9803C73.9014 28.3366 69.0486 35.3255 61.6923 36.6525ZM57.8731 15.4809C53.567 16.2577 50.6259 20.4934 51.4027 24.7995C52.1795 29.1056 56.4152 32.0467 60.7213 31.2699C65.0274 30.4931 67.9685 26.2574 67.1917 21.9513C66.4149 17.6452 62.1792 14.7041 57.8731 15.4809Z" fill="#FF9900"/>
<path d="M41.5574 68.8145C43.4066 99.6045 36.3325 97.3607 33.765 102.641C59.522 96.5121 75.4039 73.6392 72.2081 49.7615C71.3694 43.0582 70.2365 36.7784 68.842 31.1017C66.2006 30.8372 63.7711 30.7197 61.0798 31.2052C46.9055 33.7621 37.6735 47.2841 40.2628 61.6377L41.5574 68.8145Z" fill="#FF9900"/>
<path d="M71.729 18.3537C69.3726 12.48 63.1809 8.96549 56.9011 10.0983C49.5449 11.4253 44.6921 18.4143 46.0191 25.7705C47.0225 31.3326 51.273 35.3825 56.294 36.5146C64.7443 34.064 70.6736 26.8808 71.729 18.3537ZM57.8721 15.4809C62.1782 14.7041 66.414 17.6452 67.1907 21.9513C67.9675 26.2574 65.0265 30.4931 60.7204 31.2699C56.4143 32.0467 52.1785 29.1056 51.4017 24.7995C50.625 20.4934 53.566 16.2577 57.8721 15.4809Z" fill="#FF9900"/>
</g>
<defs>
<clipPath id="clip0_21_5947">
<rect width="113.765" height="113.765" fill="white" transform="translate(0.922852 20.1965) rotate(-10.2258)"/>
</clipPath>
</defs>
</svg>
