<svg width="43" height="40" viewBox="0 0 43 40" fill="none" xmlns="http://www.w3.org/2000/svg">
<g clip-path="url(#clip0_21_9062)">
<path d="M28.9178 16.161C13.3258 -27.1841 42.7154 54.5204 28.9178 16.161V16.161ZM0.000537866 23.3696C-0.0243215 21.1378 0.811323 19.131 2.76094 18.3416C2.83333 18.2311 2.9043 18.1454 3.03061 18.0383C3.25586 17.8471 3.46036 17.7904 3.72525 17.6882C13.0726 14.2081 16.6599 8.78555 18.7002 5.70152C19.2958 4.80123 19.7709 4.08318 20.2611 3.5879C20.533 3.3131 20.7469 3.13648 21.0683 3.01434C21.4004 2.88803 21.7096 2.87656 22.1402 2.9466C23.0857 3.10019 24.0553 3.73851 25.0032 4.73221C27.1022 6.93279 29.3154 11.1033 30.8763 15.4424C32.4446 19.8028 33.3728 24.3949 32.893 27.4184C32.6952 28.6654 32.259 29.6889 31.5369 30.3942L31.5358 30.3931C31.4939 30.4338 31.448 30.4715 31.3983 30.5057C30.9023 30.8468 30.4344 30.9794 29.9502 30.9981C29.5318 31.0143 29.1653 30.9423 28.758 30.8567C28.0249 30.7024 27.323 30.4999 26.5665 30.2816C24.1031 29.571 21.0301 28.6849 16.1472 29.2646C16.0499 29.592 15.9785 29.9417 15.9755 30.2539C15.9735 30.4615 15.9942 30.6261 16.0541 30.6815L16.1365 30.7576C16.5935 31.1783 16.8187 31.3851 16.9535 31.8955C17.0589 32.2946 17.0149 32.6385 16.9283 33.3154L16.8993 33.5433C16.8505 33.9316 17.0476 34.0168 17.2444 34.1017C17.8212 34.3507 18.3979 34.5995 18.7107 35.4446C18.7964 35.6406 18.8209 35.8584 18.7809 36.0689C18.5303 37.3715 17.7706 38.0325 17.0114 38.6933C16.8622 38.8231 16.7126 38.9533 16.5792 39.0811L16.5775 39.0792C16.5559 39.0999 16.5334 39.1199 16.5099 39.139C14.6993 40.6042 13.4402 40.1676 12.4662 38.9347C11.8452 38.1489 11.4519 37.0515 11.0848 36.0272L10.9338 35.6124C10.4097 34.1769 10.0166 32.4605 9.61919 30.674L9.51916 30.7052C9.11724 30.8258 8.71666 30.9509 8.31751 31.0806C8.27812 31.0934 8.25771 31.1017 8.241 31.1084C7.8839 31.2521 7.70485 31.3239 7.41703 31.2196C5.03885 31.8376 3.06152 30.6649 1.73314 28.7838C1.19093 28.0159 0.76194 27.1247 0.466819 26.1962C0.173378 25.2725 0.0110359 24.3018 0.000537866 23.3696Z" fill="#3C444C"/>
<path fill-rule="evenodd" clip-rule="evenodd" d="M3.45567 19.213C-1.46413 20.6777 1.75868 32.0828 7.52152 30.0873C7.74341 30.2276 7.7403 30.1615 7.99965 30.0769C8.79198 29.8176 9.59016 29.577 10.3935 29.3552C10.8707 31.4842 11.3035 33.5778 11.9135 35.2488C12.6918 37.3802 13.5023 40.2263 15.8615 38.317C16.6057 37.6038 17.5294 37.0541 17.7571 35.8704C17.3784 34.7205 15.6178 35.3986 15.8675 33.4109C16.0405 32.0343 16.0785 32.1326 15.3526 31.4617C14.6176 30.7823 15.0006 29.2379 15.3836 28.2998C17.9461 27.941 20.0416 27.9625 21.8189 28.1652C19.5678 25.5883 17.9741 22.8606 16.9888 20.016C16.0002 17.161 15.6274 14.201 15.8209 11.1689C13.3714 13.7679 9.75299 16.5686 4.08471 18.679C3.62356 18.8508 3.71854 18.7883 3.45567 19.213Z" fill="#F6F4FC"/>
<path d="M25.8159 30.0843C25.2024 29.9134 23.0471 29.4963 22.6516 29.0801C19.9562 26.237 18.0913 23.1998 16.9888 20.0163C15.8425 16.7057 15.524 13.2539 15.9565 9.71236C15.9573 9.71244 16.1398 9.23416 16.1686 9.19617C16.8556 8.29435 17.5427 7.30048 18.1675 6.39696C19.0167 5.1685 19.7576 4.09695 20.2615 3.5879C20.5335 3.3131 20.7473 3.13648 21.0687 3.01434C21.4009 2.88803 21.71 2.87656 22.1406 2.9466C23.0861 3.10019 24.0558 3.73851 25.0036 4.73221C27.1027 6.93279 29.3158 11.1033 30.8767 15.4424C32.4451 19.8028 33.3733 24.3949 32.8935 27.4184C32.6957 28.6654 32.2595 29.6889 31.5374 30.3942L31.5363 30.3931C31.4944 30.4338 31.4484 30.4715 31.3987 30.5057C30.9026 30.8469 30.4346 30.9792 29.9506 30.9979C29.532 31.0142 29.1657 30.9422 28.7585 30.8567C28.0623 30.7103 26.9537 30.4013 25.8159 30.0843Z" fill="#3C444C"/>
<path fill-rule="evenodd" clip-rule="evenodd" d="M23.4014 28.349C24.4564 28.6023 25.9071 29.0219 27.1518 29.3628C24.6049 26.7805 22.525 22.8131 21.1186 18.7516C19.6174 14.4162 18.8793 9.90822 19.1521 6.80762C18.479 7.78049 17.727 8.87525 16.992 9.84014C16.1792 16.4947 18.1301 22.7886 23.4014 28.349Z" fill="#EC7474"/>
<path fill-rule="evenodd" clip-rule="evenodd" d="M10.3828 29.3468C10.7795 31.1313 11.3969 33.8347 11.9131 35.2486C12.6912 37.38 13.5019 40.2261 15.8611 38.3168C16.6053 37.6036 17.529 37.0539 17.7567 35.8702C17.378 34.7203 15.6174 35.3984 15.8671 33.4107C16.0401 32.0341 16.0781 32.1324 15.3523 31.4615C14.6446 30.8074 14.9733 29.3515 15.3405 28.4068C16.3011 27.9298 18.9097 27.8833 21.7818 28.173C19.9767 26.1058 18.6124 24.1746 17.3934 21.1626C14.6452 23.6024 13.131 26.9069 10.3828 29.3468Z" fill="#DBD9E5"/>
<path d="M19.7302 4.32117C19.9011 3.90732 20.1335 3.58246 20.4198 3.34115C21.0597 2.80159 21.8253 2.73767 22.6676 3.07333C23.2753 3.31548 23.9333 3.79121 24.6068 4.45368C26.1225 5.94435 27.8482 8.50871 29.2815 11.4947C31.1064 15.2962 32.5906 19.7819 33.1099 23.3925C33.3653 25.168 33.3893 26.7613 33.1115 28.0048C32.7769 29.5037 32.0192 30.5392 30.7384 30.8976C30.2992 31.0203 29.8185 31.0536 29.2948 30.9874C29.0908 30.9625 28.8988 30.877 28.7428 30.7416C25.4687 28.3717 22.8083 23.6292 21.1193 18.7515C19.1393 13.0334 18.4862 7.01404 19.7302 4.32117ZM29.811 5.54274C29.4677 5.82893 28.9609 5.78116 28.6781 5.43412C28.3954 5.08665 28.4423 4.57369 28.7855 4.28759L33.6119 0.249218C33.9548 -0.0368819 34.4619 0.0108014 34.7447 0.357929C35.0271 0.705227 34.9803 1.21827 34.637 1.50462L29.811 5.54274ZM36.5912 25.5008C36.1469 25.5214 35.7742 25.1707 35.7581 24.7196C35.738 24.2705 36.0843 23.8927 36.53 23.8767L42.1668 23.6624C42.6081 23.6477 42.9811 23.9986 42.9999 24.4435C43.0082 24.6591 42.9319 24.8693 42.7876 25.0281C42.6433 25.1869 42.4427 25.2814 42.2297 25.2909L36.5912 25.5008ZM36.4302 19.9584C35.9895 20.0179 35.5845 19.7037 35.5272 19.2623C35.4685 18.8163 35.7791 18.4063 36.2151 18.3483L41.4228 17.648C41.8635 17.5883 42.2686 17.9027 42.3257 18.3441C42.3847 18.7899 42.0738 19.2001 41.6381 19.2579L36.4302 19.9584ZM35.3345 14.8701C34.9144 15.0175 34.4556 14.7925 34.3095 14.3672C34.2748 14.2661 34.2601 14.159 34.2663 14.0522C34.2725 13.9453 34.2994 13.8407 34.3455 13.7444C34.3916 13.648 34.4561 13.5618 34.5351 13.4907C34.6142 13.4196 34.7063 13.3649 34.8063 13.3298L40.1462 11.4542C40.5649 11.3019 41.0256 11.5315 41.1712 11.9568C41.2412 12.1611 41.2281 12.3851 41.135 12.5797C41.0418 12.7742 40.8762 12.9234 40.6744 12.9944L35.3345 14.8701ZM32.8163 9.96964C32.4305 10.1927 31.9401 10.0567 31.7197 9.66654C31.4995 9.27615 31.6339 8.77994 32.0196 8.55691L37.0792 5.61916C37.4649 5.39595 37.9553 5.53195 38.1756 5.92209C38.3958 6.31248 38.2614 6.80869 37.8756 7.03172L32.8163 9.96964Z" fill="#3C444C"/>
<path fill-rule="evenodd" clip-rule="evenodd" d="M20.6918 4.72887C21.759 2.13519 25.5811 6.19983 28.3429 11.953C32.1077 19.7958 34.3798 30.5662 29.4212 29.9385C22.676 25.154 18.5308 9.24774 20.6918 4.72887Z" fill="white"/>
<path fill-rule="evenodd" clip-rule="evenodd" d="M28.9719 13.3231C32.3433 20.9892 34.0967 30.5303 29.4212 29.9384C27.3169 28.446 25.4659 25.871 23.9803 22.8972C21.2709 16.6451 20.1339 9.29582 21.4935 6.45302C22.5387 3.9128 26.2259 7.75908 28.9719 13.3231Z" fill="#F6F4FC"/>
<path fill-rule="evenodd" clip-rule="evenodd" d="M26.3363 18.9357C26.3363 20.5889 24.3419 23.9052 23.668 22.4862C22.6318 20.304 21.7892 18.0486 21.256 15.6343C21.0858 14.8601 26.3363 14.9627 26.3363 18.9357Z" fill="#3C444C"/>
</g>
<defs>
<clipPath id="clip0_21_9062">
<rect width="43" height="40" fill="white"/>
</clipPath>
</defs>
</svg>
