<svg width="356" height="288" viewBox="0 0 356 288" fill="none" xmlns="http://www.w3.org/2000/svg">
<g clip-path="url(#clip0_74_6444)">
<path d="M283.905 52.4599C282.061 72.784 276.807 94.2145 268.568 114.892C258.379 140.463 244.458 162.985 228.309 180.025L227.413 179.243C243.483 162.286 257.341 139.863 267.488 114.398C276.658 91.3856 282.112 67.438 283.268 45.1544L284.413 45.3462C284.292 47.6996 284.122 50.0709 283.905 52.4599Z" fill="#F2F2F2"/>
<path d="M291.25 170.498C268.569 206.592 241.052 232.381 213.767 243.114L213.215 242.102C240.311 231.443 267.667 205.786 290.245 169.857L291.25 170.498Z" fill="#F2F2F2"/>
<path d="M283.355 77.7641C281.51 98.0882 276.257 119.519 268.017 140.196C257.828 165.767 243.907 188.29 227.758 205.329L226.862 204.547C242.932 187.59 256.79 165.167 266.937 139.702C276.107 116.69 281.561 92.7422 282.717 70.4586L283.862 70.6504C283.741 73.0038 283.572 75.3751 283.355 77.7641Z" fill="#F2F2F2"/>
<path d="M28.7278 129.942H13.8461C13.5282 129.943 13.2142 129.871 12.9277 129.733C12.6413 129.595 12.3898 129.394 12.1921 129.145C11.9969 128.902 11.8591 128.619 11.7892 128.315C11.7193 128.011 11.719 127.696 11.7884 127.392C13.2058 121.137 13.1167 114.634 11.5286 108.419C11.4282 108.01 11.4525 107.58 11.5984 107.185C11.7443 106.79 12.0051 106.447 12.3473 106.202C19.9995 100.697 26.0258 100.856 30.2591 106.677C30.4499 106.943 30.5767 107.249 30.6295 107.571C31.7605 114.373 31.8231 121.309 30.815 128.13C30.7449 128.633 30.4949 129.094 30.1111 129.428C29.7274 129.761 29.236 129.944 28.7278 129.942Z" fill="#E6E6E6"/>
<path d="M24.1144 115.035H18.9951C18.712 115.035 18.4405 114.923 18.2404 114.723C18.0402 114.523 17.9277 114.251 17.9277 113.968C17.9277 113.685 18.0402 113.413 18.2404 113.213C18.4405 113.013 18.712 112.9 18.9951 112.9H24.1144C24.3971 112.901 24.6681 113.013 24.8678 113.214C25.0674 113.414 25.1796 113.685 25.1796 113.968C25.1796 114.251 25.0674 114.522 24.8678 114.722C24.6681 114.922 24.3971 115.035 24.1144 115.035Z" fill="white"/>
<path d="M24.1144 118.78H18.9951C18.712 118.78 18.4405 118.667 18.2404 118.467C18.0402 118.267 17.9277 117.995 17.9277 117.712C17.9277 117.429 18.0402 117.157 18.2404 116.957C18.4405 116.757 18.712 116.645 18.9951 116.645H24.1144C24.3971 116.645 24.6681 116.758 24.8678 116.958C25.0674 117.158 25.1796 117.429 25.1796 117.712C25.1796 117.995 25.0674 118.266 24.8678 118.466C24.6681 118.666 24.3971 118.779 24.1144 118.78Z" fill="white"/>
<path d="M24.1144 122.524H18.9951C18.712 122.524 18.4405 122.412 18.2404 122.211C18.0402 122.011 17.9277 121.74 17.9277 121.457C17.9277 121.173 18.0402 120.902 18.2404 120.702C18.4405 120.501 18.712 120.389 18.9951 120.389H24.1144C24.3971 120.389 24.6681 120.502 24.8678 120.702C25.0674 120.903 25.1796 121.174 25.1796 121.457C25.1796 121.739 25.0674 122.011 24.8678 122.211C24.6681 122.411 24.3971 122.524 24.1144 122.524Z" fill="white"/>
<path d="M299.188 196.404H284.306C283.988 196.405 283.674 196.334 283.388 196.196C283.101 196.058 282.85 195.857 282.652 195.607C282.457 195.365 282.319 195.081 282.249 194.777C282.179 194.474 282.179 194.158 282.248 193.854C283.666 187.599 283.577 181.096 281.989 174.882C281.888 174.473 281.912 174.043 282.058 173.647C282.204 173.252 282.465 172.91 282.807 172.664C290.459 167.159 296.486 167.319 300.719 173.14C300.91 173.405 301.037 173.711 301.089 174.033C302.221 180.835 302.283 187.771 301.275 194.592C301.205 195.096 300.955 195.557 300.571 195.89C300.187 196.223 299.696 196.406 299.188 196.404Z" fill="#E6E6E6"/>
<path d="M294.574 181.498H289.455C289.172 181.497 288.901 181.384 288.701 181.184C288.502 180.984 288.39 180.713 288.39 180.43C288.39 180.147 288.502 179.876 288.701 179.676C288.901 179.476 289.172 179.363 289.455 179.362H294.574C294.857 179.362 295.129 179.475 295.329 179.675C295.529 179.875 295.642 180.147 295.642 180.43C295.642 180.713 295.529 180.985 295.329 181.185C295.129 181.385 294.857 181.498 294.574 181.498Z" fill="white"/>
<path d="M294.574 185.242H289.455C289.172 185.242 288.901 185.129 288.701 184.929C288.502 184.728 288.39 184.457 288.39 184.174C288.39 183.892 288.502 183.62 288.701 183.42C288.901 183.22 289.172 183.107 289.455 183.107H294.574C294.857 183.107 295.129 183.219 295.329 183.42C295.529 183.62 295.642 183.891 295.642 184.174C295.642 184.458 295.529 184.729 295.329 184.929C295.129 185.13 294.857 185.242 294.574 185.242Z" fill="white"/>
<path d="M294.574 188.986H289.455C289.172 188.986 288.901 188.873 288.701 188.673C288.502 188.473 288.39 188.202 288.39 187.919C288.39 187.636 288.502 187.365 288.701 187.165C288.901 186.964 289.172 186.852 289.455 186.851H294.574C294.857 186.851 295.129 186.964 295.329 187.164C295.529 187.364 295.642 187.636 295.642 187.919C295.642 188.202 295.529 188.474 295.329 188.674C295.129 188.874 294.857 188.986 294.574 188.986Z" fill="white"/>
<path d="M355.5 287.443C355.5 287.516 355.486 287.589 355.458 287.656C355.43 287.724 355.389 287.786 355.337 287.837C355.286 287.889 355.224 287.93 355.156 287.958C355.089 287.986 355.016 288 354.943 288H1.05683C0.90915 288 0.767524 287.941 0.663098 287.837C0.558672 287.732 0.5 287.591 0.5 287.443C0.5 287.295 0.558672 287.154 0.663098 287.049C0.767524 286.945 0.90915 286.886 1.05683 286.886H354.943C355.016 286.886 355.089 286.9 355.157 286.928C355.224 286.956 355.286 286.997 355.337 287.049C355.389 287.1 355.43 287.162 355.458 287.23C355.486 287.297 355.5 287.37 355.5 287.443Z" fill="#CCCCCC"/>
<path d="M93.8529 253.341L92.9248 240.429C86.8449 237.388 80.1149 235.879 73.3193 236.031C82.8798 243.423 82.114 258.196 88.7352 268.307C90.8244 271.445 93.5927 274.072 96.835 275.994C100.077 277.916 103.71 279.083 107.465 279.41L115.422 283.988C116.332 277.971 115.927 271.828 114.235 265.983C112.543 260.137 109.605 254.728 105.621 250.127C103.361 247.569 100.788 245.305 97.9624 243.39C96.2233 248.384 93.8529 253.341 93.8529 253.341Z" fill="#F2F2F2"/>
<path d="M262.148 255.213L263.076 242.301C269.156 239.261 275.886 237.751 282.681 237.903C273.121 245.295 273.887 260.068 267.266 270.179C265.176 273.317 262.408 275.944 259.166 277.866C255.924 279.788 252.29 280.955 248.536 281.282L240.579 285.861C239.669 279.843 240.074 273.7 241.766 267.855C243.458 262.009 246.396 256.6 250.379 251.999C252.64 249.441 255.213 247.177 258.038 245.262C259.778 250.256 262.148 255.213 262.148 255.213Z" fill="#F2F2F2"/>
<path d="M173.789 109.495C178.699 109.495 182.68 105.514 182.68 100.603C182.68 95.6912 178.699 91.7097 173.789 91.7097C168.879 91.7097 164.898 95.6912 164.898 100.603C164.898 105.514 168.879 109.495 173.789 109.495Z" fill="#43A047"/>
<path d="M178.353 96.8963C178.219 96.7687 178.041 96.6975 177.856 96.6975C177.672 96.6975 177.494 96.7687 177.36 96.8963C175.474 98.4012 173.779 100.132 172.315 102.051C171.956 101.355 171.596 100.659 171.237 99.9637C170.822 99.1606 169.61 99.87 170.025 100.672C170.55 101.69 171.076 102.708 171.602 103.725C171.665 103.829 171.754 103.915 171.861 103.974C171.967 104.034 172.086 104.065 172.208 104.065C172.33 104.065 172.449 104.034 172.555 103.974C172.662 103.915 172.751 103.829 172.814 103.725C174.374 101.527 176.239 99.562 178.353 97.8892C178.483 97.757 178.557 97.5786 178.557 97.3927C178.557 97.2069 178.483 97.0285 178.353 96.8963Z" fill="white"/>
<path d="M134.008 125.819L120.602 104.759L136.126 96.4431L140.201 112.511L168.911 128.029C170.044 127.621 171.272 127.551 172.444 127.829C173.616 128.107 174.682 128.72 175.512 129.593C176.342 130.467 176.9 131.563 177.118 132.748C177.336 133.933 177.204 135.156 176.739 136.267C176.274 137.379 175.496 138.331 174.5 139.008C173.503 139.685 172.331 140.057 171.127 140.079C169.922 140.101 168.737 139.773 167.717 139.133C166.696 138.493 165.883 137.57 165.378 136.476L134.008 125.819Z" fill="#A0616A"/>
<path d="M110.806 79.5001C106.593 85.6865 121.563 108.174 121.563 108.174C122.293 106.601 129.264 124.259 130.432 123.216C133.75 120.251 138.945 111.994 141.833 111.625C143.484 111.415 138.003 99.7004 138.003 99.7004C138.003 99.7004 135.498 92.7829 132.098 83.9466C131.184 81.4306 129.648 79.187 127.633 77.4246C125.618 75.6623 123.19 74.4384 120.575 73.8671C120.575 73.8671 115.018 73.3136 110.806 79.5001Z" fill="#3F3D56"/>
<path d="M111.012 281.056L117.379 281.056L120.408 256.491L111.011 256.491L111.012 281.056Z" fill="#A0616A"/>
<path d="M109.388 278.977L111.18 278.977L118.177 276.131L121.927 278.976H121.927C124.047 278.977 126.079 279.819 127.578 281.318C129.076 282.817 129.918 284.85 129.918 286.969V287.229L109.388 287.23L109.388 278.977Z" fill="#2F2E41"/>
<path d="M140.593 281.056L146.96 281.056L149.989 256.491L140.592 256.491L140.593 281.056Z" fill="#A0616A"/>
<path d="M138.968 278.977L140.76 278.977L147.757 276.131L151.507 278.976H151.507C153.627 278.977 155.659 279.819 157.158 281.318C158.656 282.817 159.498 284.85 159.498 286.969V287.229L138.968 287.23L138.968 278.977Z" fill="#2F2E41"/>
<path d="M143.348 146.756L101.934 147.792C94.068 152.065 93.9486 161.314 96.5257 172.295C96.5257 172.295 95.6557 178.822 97.3958 180.562C99.1358 182.303 100.006 182.303 99.1358 185.349C98.2658 188.394 102.862 193.369 102.304 193.928C101.746 194.486 100.441 197.532 100.441 197.532L104.791 222.334C104.791 222.334 107.836 265.411 108.706 266.281C109.576 267.151 110.446 266.281 109.576 268.456C108.706 270.632 107.836 269.762 108.706 270.632C109.477 271.463 110.203 272.335 110.881 273.243H121.398C121.398 273.243 122.191 268.892 122.191 268.456C122.191 268.021 123.061 265.411 123.061 264.976C123.061 264.54 122.292 263.771 122.292 263.771C122.027 262.887 121.847 261.979 121.756 261.059C121.756 260.189 119.146 226.685 119.146 226.685L124.366 183.173L136.982 225.815C136.982 225.815 136.982 263.235 137.852 264.105C138.722 264.976 138.722 264.54 138.287 266.281C137.852 268.021 136.111 267.586 137.416 268.892C138.722 270.197 139.157 268.021 138.722 270.197L138.287 272.373L151.337 272.559C151.337 272.559 153.077 268.892 152.207 267.586C151.337 266.281 151.389 266.637 152.45 264.501C153.512 262.365 153.947 261.93 153.512 261.495C153.077 261.059 153.077 258.745 153.077 258.745L150.902 217.112C150.902 217.112 150.467 173.165 150.467 171.86C150.434 171.188 150.558 170.518 150.828 169.902V168.13L149.162 161.852L143.348 146.756Z" fill="#2F2E41"/>
<path d="M118.47 60.6187C125.577 60.6187 131.338 54.8561 131.338 47.7476C131.338 40.6391 125.577 34.8766 118.47 34.8766C111.364 34.8766 105.603 40.6391 105.603 47.7476C105.603 54.8561 111.364 60.6187 118.47 60.6187Z" fill="#A0616A"/>
<path d="M124.904 69.1256C127.677 70.7741 129.335 73.803 130.287 76.8852C132.049 82.5914 133.11 88.4912 133.446 94.4541L134.451 112.306L146.904 150.318C136.112 159.452 95.545 152.394 95.545 152.394C95.545 152.394 94.2997 151.978 95.545 150.733C96.7903 149.487 98.0025 150.591 96.7573 149.345C95.5121 148.1 96.3705 149.487 96.7856 148.242C97.2007 146.996 96.7856 147.826 96.3705 147.411C95.9554 146.996 99.5839 143.259 99.5839 143.259L96.2632 121.44L92.1123 77.4295C97.0934 71.2016 107.111 67.5302 107.111 67.5302L109.699 62.8699L122.641 63.9055L124.904 69.1256Z" fill="#3F3D56"/>
<path d="M129.078 40.9095C130.078 41.6556 130.819 42.6967 131.196 43.8861C131.341 41.9423 131.35 39.9907 131.224 38.0455C131.072 36.6787 130.11 36.3712 128.996 36.015C127.99 35.6931 126.852 35.3295 126.546 34.0026C122.501 30.0667 115.46 30.2652 110.641 31.6381C107.989 32.3936 106.464 33.3642 106.327 33.9328L106.299 34.0499L106.191 34.1038C104.147 35.126 103.749 38.354 103.776 40.8819C103.825 45.6447 105.469 51.0539 106.396 51.4934C106.445 51.5166 106.457 51.5075 106.478 51.4898C107.873 50.375 109.574 51.5745 110.322 52.2266C110.763 49.2665 112.183 46.5395 114.355 44.4813C116.527 42.4231 119.326 41.1524 122.305 40.8721C123.278 40.778 124.243 40.6161 125.193 40.3876C125.676 40.2629 126.171 40.1979 126.669 40.194C127.526 40.181 128.367 40.4306 129.078 40.9095Z" fill="#2F2E41"/>
<path d="M208.959 157.012L233.712 131.87L240.234 111.761L229.739 107.515C224.54 112.76 219.189 128.818 219.189 128.818L202.294 151.499C202.159 151.549 202.024 151.602 201.892 151.664C201.114 152.032 200.444 152.594 199.947 153.296C199.45 153.998 199.142 154.816 199.053 155.672C198.964 156.528 199.098 157.392 199.441 158.181C199.784 158.97 200.324 159.657 201.01 160.177C201.696 160.696 202.504 161.029 203.357 161.144C204.209 161.26 205.077 161.153 205.876 160.835C206.675 160.517 207.379 159.998 207.919 159.328C208.459 158.658 208.817 157.861 208.959 157.012Z" fill="#FFB8B8"/>
<path d="M226.876 109.815L240.148 113.655L240.197 113.646C245.076 112.698 248.935 104.589 251.313 97.9531C252.095 95.7643 252.017 93.36 251.095 91.2264C250.173 89.0927 248.476 87.3888 246.346 86.4591C244.77 85.7839 243.037 85.563 241.342 85.8215C239.647 86.08 238.059 86.8075 236.756 87.9218L230.138 93.6213L226.876 109.815Z" fill="#FF9900"/>
<path d="M215.521 280.309L208.384 280.309L204.988 252.772L215.522 252.772L215.521 280.309Z" fill="#FFB8B8"/>
<path d="M217.342 277.978L215.333 277.978L207.489 274.788L203.286 277.978H203.285C200.909 277.978 198.631 278.922 196.951 280.602C195.271 282.283 194.327 284.562 194.327 286.938V287.229L217.342 287.23L217.342 277.978Z" fill="#2C3E50"/>
<path d="M247.191 280.309L240.053 280.309L236.658 252.772L247.193 252.772L247.191 280.309Z" fill="#FFB8B8"/>
<path d="M249.012 277.978L247.003 277.978L239.159 274.788L234.956 277.978H234.955C232.579 277.978 230.301 278.922 228.621 280.602C226.941 282.283 225.997 284.562 225.997 286.938V287.229L249.011 287.23L249.012 277.978Z" fill="#2C3E50"/>
<path d="M258.075 161.695C258.075 161.695 258.909 171.699 256.825 181.286C254.742 190.873 254.742 217.873 254.742 217.873L250.158 270.486L236.406 269.236L232.656 181.286L219.321 210.88L220.571 215.049L218.905 216.091C218.905 216.091 220.154 224.219 219.321 224.219C218.487 224.219 216.404 225.469 216.404 225.469L218.07 268.402L203.902 267.985L198.901 207.546L204.319 172.949L204.735 166.28L206.611 166.357L207.566 163.571L209.319 158.777L258.075 161.695Z" fill="#2C3E50"/>
<path d="M258.795 163.796L258.869 163.692C262.836 158.137 256.87 144.79 255.97 142.855L259.76 141.625L258.906 134.369L258.502 131.134L261.399 128.237L261.407 128.164L263.074 113.575L265.497 103.886C266.41 100.223 266.333 96.3823 265.272 92.7593C264.211 89.1362 262.205 85.8608 259.461 83.2692L253.859 77.9859L247.05 67.9094H236.071L232.307 75.0219C228.657 75.8657 225.419 77.9634 223.156 80.9497C220.894 83.936 219.75 87.6215 219.925 91.3644L220.778 110.018L217.438 133.244L217.436 137.447L213.677 141.626L214.498 145.731L211.638 146.957L210.374 152.853C209.852 153.543 206.401 158.145 206.401 159.403C206.401 159.591 206.541 159.774 206.84 159.977C209.191 161.569 222.188 164.816 227.94 162.514C234.067 160.063 258.423 163.739 258.668 163.777L258.795 163.796Z" fill="#FF9900"/>
<path d="M240.143 64.6566C248.174 64.6566 254.684 58.1449 254.684 50.1124C254.684 42.0798 248.174 35.5681 240.143 35.5681C232.113 35.5681 225.603 42.0798 225.603 50.1124C225.603 58.1449 232.113 64.6566 240.143 64.6566Z" fill="#FFB8B8"/>
<path d="M238.75 64.8921C241.002 64.8691 243.248 64.6537 245.463 64.2483C247.656 63.743 252.494 60.0005 253.813 57.7896C254.793 56.1469 255.381 53.6061 255.702 51.7639C256.135 49.326 256.052 46.8242 255.457 44.4206C254.862 42.017 253.769 39.7652 252.249 37.8109C251.663 36.9922 250.867 36.3471 249.944 35.9439C249.863 35.9144 249.779 35.8886 249.694 35.8668C248.357 35.5516 247.145 34.8438 246.213 33.8343C246.032 33.63 245.836 33.4389 245.628 33.2626C244.582 32.4253 243.353 31.8473 242.042 31.576C239.923 31.067 236.892 31.7048 233.033 33.4735C231.094 34.3621 228.942 34.1142 227.284 33.7989C227.191 33.7834 227.095 33.7926 227.007 33.8254C226.919 33.8583 226.84 33.9137 226.78 33.9862C226.095 34.6632 225.18 35.0559 224.217 35.0854C223.629 35.1265 223.031 35.959 222.311 37.0429C222.148 37.289 221.957 37.5762 221.819 37.7514L221.791 37.4223L221.467 37.7986C220.958 38.3901 220.607 39.1008 220.446 39.8646C220.285 40.6285 220.32 41.4205 220.548 42.1671C220.776 42.9137 221.189 43.5905 221.748 44.1345C222.308 44.6785 222.996 45.072 223.749 45.2783C224.346 45.4208 224.956 45.5019 225.569 45.5205C225.941 45.5443 226.326 45.5689 226.696 45.6233C227.882 45.8346 228.994 46.3502 229.923 47.1197C230.851 47.8891 231.564 48.8862 231.992 50.0136C232.093 50.2741 232.252 50.5079 232.458 50.697C232.664 50.886 232.91 51.0253 233.178 51.1039C233.446 51.1826 233.729 51.1986 234.004 51.1507C234.279 51.1028 234.54 50.9923 234.766 50.8277C235.141 50.5193 235.586 50.3064 236.061 50.207C236.537 50.1076 237.029 50.1248 237.497 50.257C237.903 50.4696 238.225 50.8155 238.406 51.2368C238.626 51.7057 238.981 52.0984 239.425 52.3649C240.939 53.0968 241.13 56.5073 240.667 59.3665C240.22 62.1225 239.249 64.1329 238.305 64.2554C237.578 64.3497 237.496 64.4036 237.447 64.5339L237.403 64.6505L237.487 64.7563C237.893 64.8919 238.324 64.9382 238.75 64.8921Z" fill="#2C3E50"/>
<path d="M226.686 111.371L219.697 102.463C212.578 104.424 199.945 115.686 199.945 115.686L174.003 126.947C173.137 126.802 172.248 126.887 171.426 127.194C170.603 127.502 169.876 128.02 169.318 128.698C168.759 129.376 168.389 130.189 168.245 131.055C168.1 131.921 168.187 132.81 168.495 133.633C168.803 134.455 169.323 135.182 170.001 135.739C170.679 136.297 171.492 136.666 172.358 136.81C173.225 136.953 174.113 136.866 174.935 136.556C175.757 136.247 176.483 135.727 177.039 135.048L211.023 125.564L226.686 111.371Z" fill="#FFB8B8"/>
<path d="M225.011 113.407L236.04 101.11L236.652 92.3973C236.766 90.6864 236.399 88.9776 235.593 87.4642C234.787 85.9507 233.574 84.6929 232.091 83.8329C230.073 82.6807 227.692 82.338 225.431 82.8742C223.17 83.4104 221.196 84.7854 219.91 86.7213C216.013 92.5956 211.821 100.538 213.978 105.016L214 105.061L225.011 113.407Z" fill="#FF9900"/>
<path d="M123.367 159.626L94.705 144.943C92.6663 143.899 91.9909 141.129 93.1996 138.768L111.888 102.268C113.097 99.9076 115.739 98.8368 117.778 99.8812L146.44 114.564C148.479 115.609 149.154 118.379 147.945 120.74L129.257 157.239C128.048 159.6 125.406 160.671 123.367 159.626Z" fill="#E6E6E6"/>
<path d="M118.47 152.877L98.9964 142.901C97.0869 141.922 96.4543 139.328 97.5863 137.117L113.112 106.794C114.244 104.583 116.719 103.58 118.628 104.558L142.148 116.607C144.058 117.585 144.69 120.18 143.558 122.39L135.124 138.864C130.081 148.712 126.975 157.234 118.47 152.877Z" fill="white"/>
<path d="M128.099 136.317L110.85 127.481C110.639 127.331 110.49 127.109 110.428 126.858C110.367 126.606 110.398 126.341 110.516 126.11C110.634 125.88 110.831 125.699 111.071 125.602C111.311 125.505 111.578 125.497 111.823 125.58L129.072 134.416C129.283 134.567 129.432 134.788 129.494 135.04C129.555 135.291 129.524 135.557 129.406 135.787C129.288 136.018 129.091 136.198 128.851 136.295C128.611 136.393 128.344 136.4 128.099 136.317Z" fill="#090814"/>
<path d="M112.864 133.252L108.927 131.236C108.716 131.085 108.567 130.864 108.505 130.613C108.444 130.361 108.475 130.096 108.593 129.865C108.711 129.634 108.908 129.454 109.148 129.357C109.388 129.26 109.655 129.252 109.9 129.335L113.837 131.352C114.048 131.502 114.197 131.723 114.259 131.975C114.32 132.226 114.289 132.492 114.171 132.722C114.053 132.953 113.856 133.133 113.616 133.231C113.376 133.328 113.109 133.336 112.864 133.252Z" fill="#FF9900"/>
<path d="M117.912 140.578L107.005 134.991C106.794 134.84 106.644 134.619 106.582 134.367C106.521 134.116 106.552 133.85 106.67 133.62C106.788 133.389 106.985 133.209 107.225 133.112C107.465 133.014 107.732 133.007 107.978 133.09L118.885 138.678C119.096 138.828 119.246 139.049 119.308 139.301C119.369 139.553 119.338 139.818 119.22 140.049C119.102 140.279 118.905 140.46 118.665 140.557C118.425 140.654 118.158 140.662 117.912 140.578Z" fill="#FF9900"/>
<path d="M134.924 122.986L117.675 114.15C117.465 114 117.315 113.779 117.253 113.527C117.192 113.275 117.223 113.01 117.341 112.779C117.459 112.549 117.656 112.369 117.896 112.271C118.136 112.174 118.403 112.166 118.649 112.25L135.897 121.086C136.108 121.236 136.258 121.457 136.319 121.709C136.38 121.96 136.349 122.226 136.231 122.456C136.113 122.687 135.916 122.867 135.676 122.964C135.436 123.062 135.169 123.069 134.924 122.986Z" fill="#090814"/>
<path d="M119.689 119.921L115.753 117.905C115.542 117.755 115.392 117.533 115.331 117.282C115.269 117.03 115.3 116.765 115.418 116.534C115.536 116.304 115.733 116.123 115.973 116.026C116.214 115.929 116.48 115.921 116.726 116.004L120.662 118.021C120.873 118.171 121.023 118.392 121.084 118.644C121.145 118.896 121.114 119.161 120.996 119.392C120.878 119.622 120.681 119.802 120.441 119.9C120.201 119.997 119.934 120.005 119.689 119.921Z" fill="#090814"/>
<path d="M124.738 127.248L113.831 121.66C113.62 121.509 113.47 121.288 113.409 121.037C113.347 120.785 113.378 120.52 113.497 120.289C113.615 120.058 113.812 119.878 114.052 119.781C114.292 119.684 114.559 119.676 114.804 119.759L125.712 125.347C125.923 125.497 126.072 125.719 126.134 125.97C126.195 126.222 126.164 126.487 126.046 126.718C125.928 126.948 125.731 127.129 125.491 127.226C125.251 127.323 124.984 127.331 124.738 127.248Z" fill="#090814"/>
<path d="M99.6158 127.85L93.1406 103.738L110.444 100.461L109.514 117.012L132.249 140.428C133.453 140.378 134.645 140.681 135.68 141.297C136.714 141.914 137.548 142.818 138.077 143.901C138.607 144.983 138.811 146.196 138.664 147.392C138.516 148.587 138.024 149.715 137.247 150.636C136.47 151.557 135.443 152.232 134.289 152.578C133.135 152.925 131.906 152.928 130.75 152.588C129.594 152.248 128.563 151.579 127.781 150.662C126.999 149.746 126.5 148.621 126.346 147.426L99.6158 127.85Z" fill="#A0616A"/>
<path d="M91.37 76.7025C85.4965 81.3405 93.0351 107.283 93.0351 107.283C94.2023 106.002 95.5586 124.938 96.9852 124.293C101.04 122.461 108.471 116.142 111.336 116.657C112.975 116.951 111.258 104.132 111.258 104.132C111.258 104.132 110.943 96.7811 110.349 87.3318C110.231 84.6572 109.438 82.056 108.045 79.7704C106.651 77.4847 104.702 75.589 102.379 74.2595C102.379 74.2595 97.2434 72.0645 91.37 76.7025Z" fill="#3F3D56"/>
<path d="M189.098 181.369L173.457 173.981C173.123 173.824 172.828 173.593 172.596 173.306C172.363 173.019 172.199 172.683 172.115 172.323C172.03 171.971 172.026 171.604 172.103 171.25C172.18 170.896 172.336 170.565 172.56 170.28C177.091 164.488 180.202 157.715 181.644 150.503C181.753 149.951 182.05 149.454 182.484 149.096C182.919 148.738 183.464 148.543 184.027 148.542C192.004 148.569 197.966 151.483 201.746 157.2C201.945 157.498 202.077 157.835 202.133 158.189C202.189 158.543 202.166 158.904 202.068 159.248C199.879 166.795 196.548 173.962 192.191 180.501C191.868 180.995 191.376 181.355 190.808 181.515C190.239 181.675 189.632 181.623 189.098 181.369Z" fill="#E6E6E6"/>
<path d="M193.699 171.008L181.74 165.359C181.443 165.218 181.213 164.965 181.102 164.655C180.991 164.346 181.008 164.004 181.148 163.707C181.289 163.409 181.541 163.18 181.851 163.069C182.161 162.957 182.502 162.974 182.8 163.115L194.759 168.763C194.906 168.833 195.038 168.931 195.148 169.051C195.257 169.172 195.342 169.313 195.397 169.467C195.452 169.62 195.476 169.783 195.468 169.946C195.46 170.108 195.421 170.268 195.351 170.415C195.281 170.563 195.184 170.695 195.063 170.804C194.942 170.914 194.801 170.999 194.648 171.054C194.494 171.109 194.332 171.133 194.169 171.125C194.006 171.117 193.847 171.077 193.699 171.008Z" fill="white"/>
<path d="M195.558 167.072L183.599 161.423C183.301 161.283 183.072 161.03 182.96 160.72C182.849 160.41 182.866 160.069 183.006 159.771C183.147 159.474 183.4 159.244 183.71 159.133C184.019 159.022 184.361 159.039 184.658 159.179L196.617 164.828C196.915 164.968 197.144 165.221 197.255 165.531C197.366 165.841 197.35 166.182 197.209 166.48C197.069 166.778 196.816 167.007 196.506 167.118C196.197 167.229 195.855 167.213 195.558 167.072Z" fill="white"/>
<path d="M179.577 43.5352L178.464 43.6572C173.501 24.147 163.88 10.6306 150.641 4.56891C133.81 -3.1366 112.999 2.03779 92.0405 19.1391C70.9753 36.3278 52.327 63.4784 39.5313 95.5908L38.4512 95.0964C51.303 62.8437 70.047 35.5619 91.2303 18.2777C112.52 0.906116 133.756 -4.30622 151.026 3.60105C164.645 9.83646 174.518 23.6455 179.577 43.5352Z" fill="#F2F2F2"/>
<path d="M56.7594 68.9446C53.8482 75.0791 51.0791 81.4344 48.529 87.8339C33.8547 124.661 26.4184 162.271 27.0261 196.6L25.8792 196.477C25.2709 162.021 32.7286 124.281 47.4489 87.3395C50.0063 80.9219 52.7832 74.5486 55.7029 68.3968L56.7594 68.9446Z" fill="#F2F2F2"/>
<path d="M56.2087 94.2488C53.2974 100.383 50.5283 106.739 47.9783 113.138C33.3039 149.965 25.8676 187.575 26.4753 221.904L25.3284 221.782C24.7201 187.325 32.1778 149.585 46.8981 112.644C49.4555 106.226 52.2324 99.8528 55.1521 93.701L56.2087 94.2488Z" fill="#F2F2F2"/>
<path d="M25.3834 103.452C26.6512 101.545 25.9008 98.817 23.7073 97.3573C21.5138 95.8976 18.7079 96.2594 17.4401 98.1655C16.1723 100.072 16.9227 102.8 19.1162 104.26C21.3096 105.72 24.1156 105.358 25.3834 103.452Z" fill="#CCCCCC"/>
<path d="M295.349 172.286C296.617 170.38 295.867 167.652 293.673 166.192C291.48 164.732 288.674 165.094 287.406 167C286.138 168.906 286.889 171.635 289.082 173.095C291.275 174.554 294.081 174.193 295.349 172.286Z" fill="#CCCCCC"/>
</g>
<defs>
<clipPath id="clip0_74_6444">
<rect width="355" height="288" fill="white" transform="translate(0.5)"/>
</clipPath>
</defs>
</svg>
