<svg width="352" height="288" viewBox="0 0 352 288" fill="none" xmlns="http://www.w3.org/2000/svg">
<g clip-path="url(#clip0_74_6598)">
<path d="M351.5 279.195C351.607 290.415 280.833 291.444 279.484 279.196C279.377 267.976 350.152 266.948 351.5 279.195Z" fill="#E6E6E6"/>
<path d="M296.126 240.244L290.866 243.11L294.214 254.097L299.473 254.574L302.342 248.364L296.126 240.244Z" fill="#FFB8B8"/>
<path d="M312.384 262.218V267.472L320.513 266.994L320.399 262.667L312.384 262.218Z" fill="#FFB8B8"/>
<path d="M294.214 177.187L297.083 213.015L306.168 265.561L320.513 263.65L315.731 222.091L317.644 183.875L294.214 177.187Z" fill="#2C3E50"/>
<path d="M332.467 150.437L298.039 150.914L294.214 177.188L317.644 188.175L323.382 209.193L294.214 240.244L305.69 254.574C305.69 254.574 321.948 232.6 333.902 220.18C345.856 207.76 340.118 170.022 340.118 170.022L332.467 150.437Z" fill="#2C3E50"/>
<path d="M311.906 82.6035C317.716 82.6035 322.426 77.8983 322.426 72.0941C322.426 66.29 317.716 61.5848 311.906 61.5848C306.097 61.5848 301.387 66.29 301.387 72.0941C301.387 77.8983 306.097 82.6035 311.906 82.6035Z" fill="#FFB8B8"/>
<path d="M308.081 79.2596V89.7689L315.254 101.234C315.254 101.234 326.251 93.1128 323.861 91.202C321.47 89.2912 320.992 74.4826 320.992 74.4826L308.081 79.2596Z" fill="#FFB8B8"/>
<path d="M308.081 87.8582L300.908 96.4565L303.777 156.168L326.251 155.691L330.076 103.622L325.295 90.2465L322.015 85.7883L316.21 94.5457L308.081 87.8582Z" fill="#FF9900"/>
<path d="M296.604 118.908L291.345 138.972L296.604 159.035L287.997 170.5L280.347 134.195C280.347 134.195 286.085 104.578 286.563 101.234C287.041 97.8898 287.997 97.4121 287.997 97.4121L291.823 97.8898L296.604 118.908Z" fill="#2C3E50"/>
<path d="M334.857 126.551L338.205 132.762L339.161 143.271L337.249 155.213L343.943 166.2L350.637 136.105L343.465 97.4117H340.595L334.857 126.551Z" fill="#2C3E50"/>
<path d="M294.214 239.766C294.214 239.766 287.52 241.677 285.129 242.154C282.738 242.632 286.563 251.708 286.563 251.708C286.563 251.708 288.954 264.128 289.432 266.517C289.911 268.905 293.258 277.026 297.561 277.982C301.865 278.937 298.996 261.262 298.996 261.262C298.996 261.262 300.908 255.53 300.908 253.619C300.908 251.708 298.039 252.664 298.039 252.664C290.389 251.708 294.214 239.766 294.214 239.766Z" fill="#2C3E50"/>
<path d="M309.993 276.548C310.471 279.415 309.515 279.415 317.165 280.37C324.816 281.325 322.903 275.115 322.903 275.115C322.584 272.188 321.942 269.304 320.991 266.517C319.556 262.695 311.906 267.472 311.906 267.472C311.906 267.472 309.515 273.682 309.993 276.548Z" fill="#2C3E50"/>
<path d="M321.004 74.8162L321.253 79.0646C321.253 79.0646 324.338 72.0941 324.816 64.9287C325.295 57.7632 317.166 56.3301 312.384 55.8524C307.602 55.3747 299.474 58.7186 299.474 62.5402C299.474 66.3618 308.081 65.4064 311.428 64.451C314.775 63.4956 316.209 71.6164 316.209 71.6164L318.122 72.0941L321.004 74.8162Z" fill="#2C3E50"/>
<path d="M305.259 91.241L308.081 87.8582L316.21 94.5457L308.081 100.278L305.259 91.241Z" fill="#FF9900"/>
<path d="M325.294 90.2466L321.947 85.9474L316.209 94.5457L323.382 99.8006L325.294 90.2466Z" fill="#FF9900"/>
<path d="M295.17 125.596L297.083 143.749L293.257 154.736L290.866 165.245C290.866 165.245 290.866 175.277 300.43 175.754C309.993 176.232 318.122 145.66 318.122 145.66C318.122 145.66 319.556 152.347 320.513 156.169C321.469 159.99 337.727 175.277 337.727 175.277C337.727 175.277 341.552 174.799 344.899 167.156C348.246 159.513 338.205 152.347 338.205 152.347L335.336 142.316L336.292 129.896L342.987 97.4121L323.143 87.1416L325.294 114.609L318.122 136.106L307.363 88.5747L303.777 91.202L288.476 97.4121L295.17 125.596Z" fill="#2C3E50"/>
<path d="M106.195 197.849C105.249 197.841 104.293 197.835 103.354 197.806L103.383 196.86C104.312 196.888 105.263 196.901 106.195 196.902C107.131 196.902 108.085 196.887 109.032 196.856L109.062 197.802C108.105 197.833 107.141 197.849 106.195 197.849ZM97.6575 197.449C95.7711 197.27 93.866 197.029 91.9954 196.731L92.1449 195.796C93.9956 196.091 95.8803 196.33 97.7468 196.507L97.6575 197.449ZM114.758 197.439L114.667 196.497C116.533 196.318 118.418 196.076 120.268 195.779L120.419 196.713C118.548 197.014 116.643 197.258 114.758 197.439ZM86.3907 195.65C84.5437 195.232 82.6853 194.748 80.8674 194.211L81.136 193.303C82.9345 193.834 84.773 194.313 86.6003 194.727L86.3907 195.65ZM126.022 195.627L125.812 194.704C127.643 194.287 129.481 193.806 131.274 193.274L131.544 194.181C129.732 194.719 127.874 195.205 126.022 195.627ZM75.4478 192.419C73.6656 191.765 71.8824 191.045 70.1478 190.278L70.5314 189.413C72.2472 190.171 74.0112 190.884 75.7745 191.531L75.4478 192.419ZM136.961 192.382L136.633 191.494C138.386 190.849 140.144 190.137 141.858 189.377L142.243 190.242C140.509 191.01 138.732 191.731 136.961 192.382ZM64.9988 187.801C63.3216 186.926 61.6467 185.983 60.0211 184.999L60.5124 184.189C62.1209 185.164 63.7778 186.096 65.4372 186.961L64.9988 187.801ZM147.377 187.766L146.939 186.927C148.594 186.062 150.247 185.13 151.851 184.156L152.344 184.965C150.722 185.95 149.051 186.892 147.377 187.766ZM55.2346 181.884C53.6812 180.801 52.1416 179.653 50.6582 178.471L51.2491 177.731C52.7167 178.9 54.2401 180.036 55.7769 181.108L55.2346 181.884ZM157.122 181.85L156.579 181.075C158.116 180.002 159.637 178.866 161.101 177.698L161.692 178.437C160.213 179.618 158.675 180.766 157.122 181.85ZM46.3097 174.773C44.9055 173.499 43.5248 172.165 42.2069 170.807L42.887 170.148C44.1911 171.492 45.5572 172.812 46.9468 174.072L46.3097 174.773ZM166.036 174.74L165.399 174.039C166.785 172.782 168.15 171.461 169.456 170.114L170.136 170.772C168.817 172.134 167.437 173.468 166.036 174.74ZM38.3657 166.59C37.1361 165.15 35.9373 163.652 34.8021 162.137L35.5607 161.57C36.6838 163.068 37.8699 164.551 39.0865 165.975L38.3657 166.59ZM173.976 166.551L173.256 165.937C174.472 164.511 175.658 163.027 176.781 161.526L177.54 162.093C176.405 163.61 175.206 165.11 173.976 166.551ZM31.5307 157.467C30.4941 155.881 29.4965 154.243 28.5656 152.599L29.3906 152.133C30.3113 153.76 31.2984 155.381 32.3242 156.949L31.5307 157.467ZM180.813 157.416L180.019 156.899C181.045 155.327 182.032 153.704 182.953 152.073L183.778 152.538C182.847 154.187 181.849 155.828 180.813 157.416ZM25.9195 147.553C25.095 145.849 24.3161 144.098 23.6045 142.348L24.4822 141.992C25.1864 143.723 25.957 145.455 26.7727 147.14L25.9195 147.553ZM186.425 147.479L185.572 147.067C186.387 145.379 187.158 143.642 187.863 141.903L188.742 142.258C188.029 144.016 187.25 145.773 186.425 147.479ZM21.6265 136.999C21.0271 135.201 20.4796 133.361 19.9988 131.532L20.9154 131.292C21.3908 133.101 21.9326 134.921 22.5255 136.699L21.6265 136.999ZM190.716 136.898L189.816 136.601C190.406 134.824 190.946 133.004 191.42 131.191L192.337 131.43C191.857 133.263 191.312 135.103 190.716 136.898ZM18.7276 125.973C18.3656 124.116 18.0593 122.222 17.8171 120.344L18.7568 120.223C18.9964 122.081 19.2995 123.955 19.6576 125.792L18.7276 125.973ZM193.602 125.869L192.672 125.69C193.027 123.853 193.328 121.979 193.565 120.119L194.506 120.239C194.265 122.119 193.961 124.013 193.602 125.869ZM17.2692 114.669C17.1478 112.782 17.0851 110.864 17.083 108.969L18.0306 108.968C18.0327 110.843 18.0947 112.741 18.215 114.608L17.2692 114.669ZM195.047 114.563L194.101 114.503C194.219 112.638 194.279 110.74 194.279 108.864L194.278 108.657H195.226L195.226 108.861C195.226 110.76 195.166 112.678 195.047 114.563ZM18.2018 103.329L17.2561 103.27C17.3735 101.38 17.5533 99.4699 17.7904 97.5933L18.7306 97.7116C18.4958 99.5688 18.3179 101.458 18.2018 103.329ZM194.088 103.018C193.965 101.147 193.781 99.2577 193.54 97.4033L194.479 97.2812C194.723 99.1556 194.91 101.065 195.034 102.956L194.088 103.018ZM19.6181 92.1408L18.6876 91.9619C19.045 90.104 19.4684 88.2327 19.9454 86.3999L20.8624 86.638C20.3905 88.4513 19.9718 90.3025 19.6181 92.1408ZM192.631 91.8355C192.27 89.9963 191.845 88.1465 191.367 86.3371L192.283 86.0958C192.766 87.9246 193.196 89.7943 193.561 91.6534L192.631 91.8355ZM22.4601 81.2267L21.5602 80.9299C22.1549 79.1311 22.817 77.3268 23.5284 75.5669L24.407 75.9214C23.7033 77.6624 23.0484 79.4473 22.4601 81.2267ZM189.752 80.9315C189.157 79.1547 188.496 77.3749 187.789 75.6413L188.666 75.284C189.381 77.0363 190.049 78.8353 190.65 80.6311L189.752 80.9315ZM26.6927 70.7537L25.8386 70.3432C26.6605 68.6362 27.5493 66.9329 28.48 65.2809L29.3059 65.7455C28.3849 67.3797 27.5058 69.0647 26.6927 70.7537ZM185.493 70.4955C184.676 68.8147 183.794 67.1358 182.869 65.5058L183.693 65.0389C184.628 66.6863 185.52 68.3834 186.345 70.0828L185.493 70.4955ZM32.2347 60.9159L31.4403 60.3996C32.4737 58.8128 33.5728 57.2377 34.7068 55.7186L35.4665 56.2844C34.3445 57.7875 33.257 59.3457 32.2347 60.9159ZM179.929 60.6931C178.904 59.1287 177.813 57.5754 176.687 56.0764L177.445 55.5083C178.583 57.0235 179.686 58.5934 180.722 60.1745L179.929 60.6931ZM38.9871 51.8699L38.2653 51.2569C39.4925 49.8146 40.7827 48.3927 42.1 47.0312L42.7815 47.689C41.4782 49.0362 40.2016 50.443 38.9871 51.8699ZM173.156 51.6748C171.938 50.2518 170.657 48.8492 169.351 47.506L170.03 46.8464C171.351 48.2037 172.645 49.6213 173.876 51.0596L173.156 51.6748ZM46.8339 43.7584L46.1959 43.0586C47.598 41.7826 49.0583 40.5367 50.5356 39.3557L51.1278 40.0948C49.666 41.2633 48.2213 42.4961 46.8339 43.7584ZM165.286 43.5867C163.896 42.3302 162.448 41.1011 160.979 39.934L161.57 39.193C163.053 40.3729 164.518 41.6149 165.922 42.8851L165.286 43.5867ZM55.6457 36.7125L55.1021 35.9373C56.6525 34.8518 58.2589 33.8023 59.8767 32.8177L60.3697 33.6262C58.7693 34.6003 57.1797 35.6387 55.6457 36.7125ZM156.448 36.5618C154.905 35.4892 153.311 34.4543 151.708 33.4857L152.199 32.6758C153.818 33.6546 155.43 34.7006 156.989 35.7848L156.448 36.5618ZM65.2797 30.8491L64.8397 30.0106C66.5148 29.1328 68.2415 28.2976 69.9713 27.5282L70.3567 28.3931C68.6452 29.1541 66.9372 29.9806 65.2797 30.8491ZM146.78 30.7192C145.116 29.8539 143.402 29.0314 141.684 28.2743L142.066 27.408C143.803 28.1733 145.536 29.0048 147.218 29.8793L146.78 30.7192ZM75.5792 26.2696L75.2502 25.3816C77.0269 24.725 78.8487 24.1177 80.6652 23.5766L80.9359 24.484C79.1388 25.019 77.3367 25.6199 75.5792 26.2696ZM136.438 26.1621C134.677 25.5185 132.872 24.924 131.075 24.3957L131.342 23.4874C133.159 24.0215 134.983 24.6224 136.764 25.2732L136.438 26.1621ZM86.3967 23.0476L86.1853 22.125C88.0288 21.703 89.9136 21.3353 91.7872 21.0314L91.9389 21.966C90.0852 22.2664 88.2206 22.6302 86.3967 23.0476ZM125.609 22.9787C123.781 22.5674 121.915 22.2101 120.062 21.9165L120.211 20.9815C122.084 21.2782 123.97 21.6394 125.817 22.0552L125.609 22.9787ZM97.5392 21.2415L97.4476 20.2994C99.3289 20.1171 101.245 19.9925 103.143 19.9294L103.174 20.8756C101.296 20.938 99.4006 21.0612 97.5392 21.2415ZM114.46 21.2121C112.595 21.0381 110.699 20.9216 108.823 20.8659L108.852 19.9197C110.747 19.9761 112.664 20.0938 114.548 20.2696L114.46 21.2121Z" fill="#D0CDE1"/>
<path d="M102.838 44.4924C115.137 44.4924 125.106 34.5325 125.106 22.2463C125.106 9.96014 115.137 0.000213623 102.838 0.000213623C90.54 0.000213623 80.5703 9.96014 80.5703 22.2463C80.5703 34.5325 90.54 44.4924 102.838 44.4924Z" fill="#2C3E50"/>
<path d="M189.067 105.078C201.365 105.078 211.335 95.1177 211.335 82.8315C211.335 70.5453 201.365 60.5854 189.067 60.5854C176.769 60.5854 166.799 70.5453 166.799 82.8315C166.799 95.1177 176.769 105.078 189.067 105.078Z" fill="#2C3E50"/>
<path d="M162.061 197.849C174.359 197.849 184.329 187.889 184.329 175.603C184.329 163.316 174.359 153.356 162.061 153.356C149.763 153.356 139.793 163.316 139.793 175.603C139.793 187.889 149.763 197.849 162.061 197.849Z" fill="#2C3E50"/>
<path d="M54.9857 201.635C67.284 201.635 77.2537 191.675 77.2537 179.389C77.2537 167.103 67.284 157.143 54.9857 157.143C42.6875 157.143 32.7178 167.103 32.7178 179.389C32.7178 191.675 42.6875 201.635 54.9857 201.635Z" fill="#2C3E50"/>
<path d="M22.768 105.078C35.0662 105.078 45.0359 95.1177 45.0359 82.8315C45.0359 70.5453 35.0662 60.5854 22.768 60.5854C10.4697 60.5854 0.5 70.5453 0.5 82.8315C0.5 95.1177 10.4697 105.078 22.768 105.078Z" fill="#2C3E50"/>
<path d="M112.38 20.4727H104.613C103.907 20.4727 103.229 20.1924 102.73 19.6935C102.231 19.1946 101.95 18.5179 101.95 17.8123V10.0528C101.95 10.0236 101.944 9.99481 101.933 9.96791C101.922 9.94101 101.906 9.91657 101.885 9.89598C101.864 9.8754 101.84 9.85907 101.813 9.84793C101.786 9.83678 101.757 9.83105 101.728 9.83105H96.624C95.6822 9.83105 94.7791 10.2048 94.1132 10.87C93.4473 11.5352 93.0732 12.4375 93.0732 13.3783V31.1144C93.0732 32.0552 93.4473 32.9574 94.1132 33.6226C94.7791 34.2879 95.6822 34.6616 96.624 34.6616H109.051C109.993 34.6616 110.896 34.2879 111.562 33.6226C112.228 32.9574 112.602 32.0552 112.602 31.1144V20.6944C112.602 20.6653 112.596 20.6365 112.585 20.6096C112.574 20.5827 112.558 20.5582 112.537 20.5377C112.517 20.5171 112.492 20.5007 112.465 20.4896C112.438 20.4785 112.409 20.4727 112.38 20.4727ZM107.276 29.3408H98.3993C98.1639 29.3408 97.9381 29.2473 97.7716 29.081C97.6051 28.9147 97.5116 28.6892 97.5116 28.454C97.5116 28.2188 97.6051 27.9932 97.7716 27.8269C97.9381 27.6606 98.1639 27.5672 98.3993 27.5672H107.276C107.512 27.5672 107.737 27.6606 107.904 27.8269C108.07 27.9932 108.164 28.2188 108.164 28.454C108.164 28.6892 108.07 28.9147 107.904 29.081C107.737 29.2473 107.512 29.3408 107.276 29.3408ZM107.276 24.9067H98.3993C98.1639 24.9067 97.9381 24.8133 97.7716 24.647C97.6051 24.4807 97.5116 24.2551 97.5116 24.0199C97.5116 23.7847 97.6051 23.5592 97.7716 23.3929C97.9381 23.2266 98.1639 23.1331 98.3993 23.1331H107.276C107.512 23.1331 107.737 23.2266 107.904 23.3929C108.07 23.5592 108.164 23.7847 108.164 24.0199C108.164 24.2551 108.07 24.4807 107.904 24.647C107.737 24.8133 107.512 24.9067 107.276 24.9067Z" fill="white"/>
<path d="M111.893 18.5101L103.915 10.5394C103.899 10.524 103.88 10.5135 103.858 10.5092C103.837 10.505 103.814 10.5072 103.794 10.5156C103.774 10.5239 103.757 10.538 103.744 10.5562C103.732 10.5743 103.726 10.5957 103.726 10.6175V17.8123C103.726 18.0475 103.819 18.273 103.986 18.4394C104.152 18.6057 104.378 18.6991 104.613 18.6991H111.815C111.837 18.699 111.858 18.6925 111.876 18.6803C111.895 18.6681 111.909 18.6508 111.917 18.6306C111.926 18.6104 111.928 18.5882 111.923 18.5667C111.919 18.5453 111.909 18.5256 111.893 18.5101Z" fill="white"/>
<path d="M165.282 171.22C165.009 171.22 164.744 171.315 164.534 171.488C164.323 171.661 164.178 171.902 164.125 172.17C164.072 172.437 164.113 172.715 164.242 172.955C164.371 173.196 164.579 173.384 164.832 173.489C165.084 173.593 165.364 173.606 165.626 173.527C165.887 173.448 166.113 173.281 166.264 173.054C166.416 172.827 166.484 172.555 166.457 172.283C166.43 172.012 166.31 171.758 166.117 171.565C166.007 171.456 165.877 171.369 165.734 171.31C165.591 171.251 165.437 171.22 165.282 171.22Z" fill="white"/>
<path d="M171.852 166.506V166.502C171.814 166.338 171.732 166.188 171.614 166.069C171.496 165.949 171.346 165.865 171.183 165.826C169.865 165.505 167.792 165.847 165.495 166.766C163.287 167.624 161.266 168.902 159.545 170.53C159.075 170.997 158.638 171.497 158.238 172.025C157.355 171.964 156.469 172.106 155.649 172.44C153.096 173.563 152.367 176.435 152.172 177.615C152.144 177.782 152.155 177.954 152.205 178.116C152.254 178.279 152.34 178.428 152.456 178.552C152.573 178.676 152.716 178.772 152.875 178.831C153.035 178.891 153.205 178.913 153.375 178.895H153.38L156.224 178.585C156.228 178.622 156.232 178.655 156.235 178.685C156.271 179.031 156.426 179.355 156.673 179.6L158.061 180.988C158.306 181.235 158.63 181.389 158.976 181.426L159.071 181.436L158.762 184.273V184.279C158.747 184.423 158.761 184.569 158.802 184.708C158.843 184.847 158.912 184.977 159.003 185.089C159.095 185.202 159.208 185.295 159.336 185.364C159.463 185.433 159.603 185.476 159.748 185.491C159.782 185.495 159.816 185.497 159.85 185.497C159.911 185.497 159.973 185.492 160.033 185.482C161.221 185.291 164.095 184.572 165.215 182.007C165.547 181.191 165.69 180.31 165.633 179.43C166.164 179.032 166.665 178.595 167.134 178.125C168.763 176.422 170.044 174.419 170.906 172.227C171.821 169.959 172.165 167.872 171.852 166.506ZM167.118 174.231C166.755 174.594 166.292 174.841 165.788 174.942C165.284 175.042 164.761 174.991 164.287 174.795C163.812 174.598 163.406 174.266 163.12 173.839C162.834 173.412 162.681 172.911 162.681 172.397C162.681 171.884 162.833 171.382 163.118 170.955C163.404 170.528 163.809 170.195 164.284 169.998C164.759 169.801 165.281 169.75 165.785 169.849C166.289 169.949 166.753 170.196 167.116 170.559L167.118 170.561C167.605 171.04 167.882 171.693 167.887 172.376C167.892 173.059 167.625 173.716 167.146 174.203L167.118 174.231Z" fill="white"/>
<path d="M157.902 181.364C157.731 181.343 157.558 181.385 157.416 181.482C157.133 181.675 156.849 181.866 156.563 182.052C156.438 182.132 156.291 182.168 156.143 182.154C155.996 182.14 155.858 182.077 155.751 181.975C155.644 181.873 155.574 181.738 155.553 181.592C155.532 181.446 155.56 181.297 155.634 181.169L156.171 180.241C156.248 180.129 156.291 179.997 156.294 179.861C156.298 179.725 156.262 179.591 156.192 179.475C156.121 179.359 156.018 179.265 155.896 179.206C155.773 179.147 155.636 179.124 155.501 179.141C154.905 179.216 154.351 179.487 153.926 179.912C153.764 180.074 153.272 180.566 153.007 182.441C152.931 182.98 152.884 183.522 152.864 184.065C152.862 184.158 152.878 184.251 152.911 184.337C152.945 184.424 152.995 184.503 153.059 184.57C153.123 184.638 153.199 184.692 153.284 184.729C153.369 184.767 153.461 184.788 153.554 184.79C153.56 184.79 153.566 184.79 153.572 184.79H153.59C154.134 184.771 154.677 184.724 155.217 184.649C157.095 184.384 157.587 183.892 157.749 183.73C158.176 183.305 158.447 182.749 158.518 182.151C158.541 181.965 158.488 181.778 158.373 181.63C158.257 181.483 158.088 181.387 157.902 181.364Z" fill="white"/>
<path d="M47.3215 191.478H45.7081C45.3872 191.478 45.0794 191.35 44.8525 191.124C44.6255 190.897 44.498 190.589 44.498 190.269V183.016C44.498 182.695 44.6255 182.388 44.8525 182.161C45.0794 181.934 45.3872 181.807 45.7081 181.807H47.3215C47.6424 181.807 47.9502 181.934 48.1771 182.161C48.404 182.388 48.5315 182.695 48.5315 183.016V190.269C48.5315 190.589 48.404 190.897 48.1771 191.124C47.9502 191.35 47.6424 191.478 47.3215 191.478Z" fill="white"/>
<path d="M58.6154 191.478H57.0021C56.6811 191.478 56.3733 191.35 56.1464 191.124C55.9195 190.897 55.792 190.589 55.792 190.269V178.18C55.792 177.86 55.9195 177.552 56.1464 177.325C56.3733 177.099 56.6811 176.971 57.0021 176.971H58.6154C58.9364 176.971 59.2441 177.099 59.4711 177.325C59.698 177.552 59.8255 177.86 59.8255 178.18V190.269C59.8255 190.589 59.698 190.897 59.4711 191.124C59.2441 191.35 58.9364 191.478 58.6154 191.478Z" fill="white"/>
<path d="M64.2629 191.478H62.6495C62.3286 191.478 62.0208 191.35 61.7939 191.124C61.5669 190.897 61.4395 190.589 61.4395 190.269V172.539C61.4395 172.218 61.5669 171.911 61.7939 171.684C62.0208 171.457 62.3286 171.33 62.6495 171.33H64.2629C64.5838 171.33 64.8916 171.457 65.1185 171.684C65.3455 171.911 65.4729 172.218 65.4729 172.539V190.269C65.4729 190.589 65.3455 190.897 65.1185 191.124C64.8916 191.35 64.5838 191.478 64.2629 191.478Z" fill="white"/>
<path d="M52.9689 191.478H51.3556C51.0346 191.478 50.7269 191.35 50.4999 191.124C50.273 190.897 50.1455 190.589 50.1455 190.269V168.509C50.1455 168.189 50.273 167.881 50.4999 167.655C50.7269 167.428 51.0346 167.301 51.3556 167.301H52.9689C53.2899 167.301 53.5977 167.428 53.8246 167.655C54.0515 167.881 54.179 168.189 54.179 168.509V190.269C54.179 190.428 54.1477 190.585 54.0869 190.731C54.0261 190.878 53.9369 191.011 53.8246 191.124C53.7122 191.236 53.5788 191.325 53.432 191.386C53.2852 191.446 53.1278 191.478 52.9689 191.478Z" fill="white"/>
<path d="M190.134 82.2489L188.981 81.0969C188.717 80.8331 188.359 80.6844 187.986 80.6834C187.612 80.6824 187.254 80.8292 186.988 81.0916L178.974 88.4803C178.68 88.7405 178.5 89.1058 178.473 89.4973C178.465 89.6918 178.496 89.8859 178.566 90.0676C178.636 90.2492 178.743 90.4145 178.88 90.5532L180.601 92.2922L180.604 92.2953C180.871 92.5602 181.231 92.7095 181.606 92.7107H181.658C181.853 92.6998 182.043 92.6507 182.219 92.5661C182.394 92.4816 182.551 92.3633 182.681 92.2181L190.129 84.2486C190.395 83.985 190.545 83.6267 190.547 83.2524C190.548 82.8781 190.401 82.5185 190.137 82.2527L190.134 82.2489Z" fill="white"/>
<path d="M199.398 79.9206L199.384 79.907L197.871 78.411C197.783 78.3227 197.678 78.2529 197.562 78.2055C197.446 78.1581 197.322 78.1341 197.197 78.1349C196.994 78.1351 196.797 78.199 196.632 78.3175C196.632 78.2985 196.635 78.28 196.636 78.2637C196.697 77.8774 196.616 77.482 196.407 77.1514C196.073 76.7026 195.707 76.2789 195.312 75.8838L195.308 75.8803C194.202 74.8202 192.902 73.9826 191.48 73.4131C190.736 73.1083 189.94 72.9517 189.136 72.9522C188.096 72.9428 187.085 73.2966 186.278 73.9525C186.048 74.1717 185.839 74.4111 185.652 74.6679C185.563 74.7909 185.516 74.9394 185.518 75.0913C185.52 75.2433 185.571 75.3905 185.663 75.5111C185.756 75.6317 185.885 75.7192 186.031 75.7607C186.177 75.8022 186.333 75.7954 186.475 75.7414C186.599 75.6951 186.726 75.6564 186.854 75.6254C187.122 75.5688 187.396 75.5517 187.669 75.5746C188.234 75.6335 188.775 75.832 189.244 76.152C189.507 76.3733 189.716 76.6514 189.856 76.9653C189.996 77.2793 190.062 77.6208 190.05 77.9642C189.854 78.522 189.555 79.0379 189.167 79.4849C189.064 79.6209 189.014 79.7897 189.025 79.96C189.037 80.1303 189.11 80.2905 189.231 80.4111L190.75 81.9287C190.878 82.0565 191.05 82.1306 191.231 82.1357C191.411 82.1408 191.587 82.0765 191.722 81.956C192.151 81.5727 192.805 80.995 193.034 80.8534C193.23 80.7228 193.451 80.6355 193.683 80.5976C193.856 80.5807 194.03 80.6173 194.182 80.7026C194.182 80.7101 194.181 80.7178 194.179 80.725C194.177 80.7322 194.173 80.7388 194.168 80.7445L194.088 80.8208L194.074 80.8331C193.896 81.0108 193.795 81.252 193.795 81.5037C193.794 81.7555 193.894 81.9971 194.072 82.1754L194.076 82.1801L195.589 83.6756C195.678 83.7638 195.783 83.8336 195.899 83.8809C196.014 83.9282 196.138 83.9521 196.264 83.9513C196.515 83.9516 196.756 83.8535 196.935 83.6778L199.386 81.2601C199.394 81.2517 199.402 81.2429 199.41 81.234C199.575 81.054 199.665 80.8186 199.662 80.5749C199.66 80.3313 199.566 80.0975 199.398 79.9206Z" fill="white"/>
<path d="M26.3038 81.507C26.129 81.5069 25.9581 81.4552 25.8127 81.3581C25.6674 81.2611 25.5541 81.1232 25.4872 80.9618C25.4203 80.8005 25.4028 80.623 25.4369 80.4517C25.471 80.2804 25.5552 80.123 25.6788 79.9996L27.7054 77.9749L25.6788 75.9502C25.513 75.7846 25.4199 75.56 25.4199 75.3258C25.4199 75.0916 25.513 74.867 25.6788 74.7014C25.8446 74.5358 26.0694 74.4428 26.3038 74.4428C26.5382 74.4428 26.763 74.5358 26.9288 74.7014L29.5805 77.3505C29.6625 77.4325 29.7277 77.5298 29.7721 77.6369C29.8165 77.7441 29.8394 77.8589 29.8394 77.9749C29.8394 78.0908 29.8165 78.2056 29.7721 78.3128C29.7277 78.4199 29.6625 78.5172 29.5805 78.5992L26.9288 81.2483C26.8468 81.3304 26.7494 81.3956 26.6421 81.4399C26.5349 81.4843 26.4199 81.5071 26.3038 81.507Z" fill="white"/>
<path d="M12.1612 84.156C12.0452 84.156 11.9302 84.1332 11.823 84.0888C11.7157 84.0444 11.6183 83.9794 11.5362 83.8974C11.4541 83.8154 11.389 83.7181 11.3446 83.6109C11.3002 83.5038 11.2773 83.3889 11.2773 83.273V82.39C11.2843 80.9874 11.8449 79.6442 12.8374 78.6522C13.8299 77.6602 15.1741 77.0994 16.5781 77.0918H28.0713C28.3057 77.0918 28.5305 77.1849 28.6963 77.3505C28.8621 77.5161 28.9552 77.7406 28.9552 77.9748C28.9552 78.209 28.8621 78.4336 28.6963 78.5992C28.5305 78.7648 28.3057 78.8579 28.0713 78.8579H16.5807C15.6443 78.8634 14.7478 79.2377 14.0859 79.8995C13.424 80.5612 13.05 81.4571 13.0451 82.3926V83.273C13.0451 83.3889 13.0223 83.5038 12.9779 83.6109C12.9334 83.718 12.8683 83.8154 12.7863 83.8974C12.7042 83.9794 12.6067 84.0444 12.4995 84.0888C12.3923 84.1332 12.2773 84.156 12.1612 84.156Z" fill="white"/>
<path d="M19.2329 91.2202C19.1168 91.2204 19.0018 91.1976 18.8945 91.1532C18.7873 91.1088 18.6898 91.0437 18.6079 90.9616L15.9562 88.3125C15.8741 88.2305 15.809 88.1332 15.7646 88.026C15.7201 87.9189 15.6973 87.8041 15.6973 87.6881C15.6973 87.5722 15.7201 87.4573 15.7646 87.3502C15.809 87.2431 15.8741 87.1457 15.9562 87.0637L18.6079 84.4147C18.7737 84.2493 18.9984 84.1565 19.2327 84.1566C19.467 84.1567 19.6916 84.2498 19.8573 84.4152C20.0229 84.5807 20.116 84.8052 20.1161 85.0392C20.1162 85.2733 20.0233 85.4978 19.8578 85.6634L17.8312 87.6881L19.8578 89.7128C19.9814 89.8363 20.0656 89.9936 20.0997 90.1649C20.1338 90.3362 20.1163 90.5138 20.0494 90.6751C19.9825 90.8365 19.8693 90.9744 19.7239 91.0714C19.5786 91.1684 19.4077 91.2202 19.2329 91.2202Z" fill="white"/>
<path d="M17.4649 88.5711C17.2305 88.5711 17.0057 88.4781 16.8399 88.3125C16.6742 88.1469 16.5811 87.9223 16.5811 87.6881C16.5811 87.4539 16.6742 87.2293 16.8399 87.0637C17.0057 86.8981 17.2305 86.8051 17.4649 86.8051H28.9555C29.8919 86.7996 30.7884 86.4253 31.4503 85.7635C32.1122 85.1017 32.4862 84.2059 32.4911 83.2704V82.39C32.4911 82.1558 32.5842 81.9312 32.75 81.7656C32.9157 81.6 33.1405 81.507 33.375 81.507C33.6094 81.507 33.8342 81.6 34 81.7656C34.1657 81.9312 34.2589 82.1558 34.2589 82.39V83.273C34.2519 84.6756 33.6913 86.0188 32.6988 87.0108C31.7063 88.0028 30.3621 88.5635 28.9581 88.5712L17.4649 88.5711Z" fill="white"/>
</g>
<defs>
<clipPath id="clip0_74_6598">
<rect width="351" height="288" fill="white" transform="translate(0.5 0.000213623)"/>
</clipPath>
</defs>
</svg>
