<svg width="25" height="24" viewBox="0 0 25 24" fill="none" xmlns="http://www.w3.org/2000/svg">
<path d="M12.5205 3.3999C15.6632 3.3999 18.1777 5.85376 18.1777 8.81982V11.3501C18.1778 11.6195 18.2395 11.9467 18.3223 12.2407C18.4055 12.5362 18.524 12.8488 18.6631 13.0845L18.6699 13.0952L19.71 14.7554L19.7109 14.7573C20.0323 15.2643 20.0876 15.858 19.876 16.3979C19.6608 16.9466 19.2152 17.3686 18.6309 17.5532L18.6279 17.5542C16.662 18.1875 14.5921 18.4995 12.5205 18.4995C10.4489 18.4995 8.37973 18.1871 6.41504 17.5444H6.41406C5.76247 17.3327 5.30328 16.9076 5.11621 16.4058L5.11523 16.4009L5.05273 16.2046C4.93687 15.7404 5.02148 15.2379 5.32227 14.7534L5.32129 14.7524L6.37109 13.0864L6.375 13.0796C6.51649 12.8464 6.63561 12.5338 6.71875 12.2397C6.80169 11.9464 6.86423 11.6195 6.86426 11.3501V8.81982C6.8643 5.85383 9.37786 3.4 12.5205 3.3999Z" fill="#FF9900" stroke="#1E293B"/>
<mask id="path-2-inside-1_397_1623" fill="white">
<path d="M14.8399 3.32C14.1223 3.05 13.3423 2.9 12.5207 2.9C11.7095 2.9 10.9295 3.04 10.2119 3.32C10.6591 2.51 11.5431 2 12.5207 2C13.5087 2 14.3823 2.51 14.8399 3.32Z"/>
</mask>
<path d="M14.8399 3.32C14.1223 3.05 13.3423 2.9 12.5207 2.9C11.7095 2.9 10.9295 3.04 10.2119 3.32C10.6591 2.51 11.5431 2 12.5207 2C13.5087 2 14.3823 2.51 14.8399 3.32Z" fill="#FF9900"/>
<path d="M14.8399 3.32L14.4878 4.25594L17.065 5.22565L15.7106 2.82813L14.8399 3.32ZM10.2119 3.32L9.33648 2.83667L8.00063 5.25625L10.5754 4.25159L10.2119 3.32ZM14.8399 3.32L15.1921 2.38406C14.3644 2.07264 13.4652 1.9 12.5207 1.9V2.9V3.9C13.2194 3.9 13.8803 4.02736 14.4878 4.25594L14.8399 3.32ZM12.5207 2.9V1.9C11.5943 1.9 10.6901 2.05997 9.84842 2.38841L10.2119 3.32L10.5754 4.25159C11.1689 4.02003 11.8247 3.9 12.5207 3.9V2.9ZM10.2119 3.32L11.0874 3.80333C11.3492 3.32914 11.8873 3 12.5207 3V2V1C11.1989 1 9.96908 1.69086 9.33648 2.83667L10.2119 3.32ZM12.5207 2V3C13.1603 3 13.6949 3.32629 13.9692 3.81187L14.8399 3.32L15.7106 2.82813C15.0697 1.69371 13.8572 1 12.5207 1V2Z" fill="#1E293B" mask="url(#path-2-inside-1_397_1623)"/>
<path d="M10.6787 20.627V20.6279C11.2828 20.6789 11.9001 20.7099 12.5195 20.71C13.129 20.71 13.737 20.6789 14.3311 20.6279H14.334C14.384 20.6234 14.4394 20.6188 14.498 20.6143C14.0172 21.1531 13.3027 21.5 12.499 21.5C11.8023 21.5 11.1205 21.2272 10.6475 20.7559L10.6387 20.7471L10.6289 20.7383C10.5844 20.6982 10.5421 20.6551 10.501 20.6104C10.56 20.6161 10.6192 20.6222 10.6787 20.627Z" fill="#FF9900" stroke="#1E293B"/>
</svg>
