<svg width="25" height="24" viewBox="0 0 25 24" fill="none" xmlns="http://www.w3.org/2000/svg">
<path d="M12.87 2.15009L21.87 5.75006C22.22 5.89006 22.5 6.31006 22.5 6.68006V10.0001C22.5 10.5501 22.05 11.0001 21.5 11.0001H3.5C2.95 11.0001 2.5 10.5501 2.5 10.0001V6.68006C2.5 6.31006 2.78 5.89006 3.13 5.75006L12.13 2.15009C12.33 2.07009 12.67 2.07009 12.87 2.15009Z" fill="#FF9900" stroke="#1E293B" stroke-miterlimit="10" stroke-linecap="round" stroke-linejoin="round"/>
<path d="M22.5 22H2.5V19C2.5 18.45 2.95 18 3.5 18H21.5C22.05 18 22.5 18.45 22.5 19V22Z" fill="#FF9900" stroke="#1E293B" stroke-miterlimit="10" stroke-linecap="round" stroke-linejoin="round"/>
<path d="M4.5 18V11" stroke="#1E293B" stroke-miterlimit="10" stroke-linecap="round" stroke-linejoin="round"/>
<path d="M8.5 18V11" stroke="#1E293B" stroke-miterlimit="10" stroke-linecap="round" stroke-linejoin="round"/>
<path d="M12.5 18V11" stroke="#1E293B" stroke-miterlimit="10" stroke-linecap="round" stroke-linejoin="round"/>
<path d="M16.5 18V11" stroke="#1E293B" stroke-miterlimit="10" stroke-linecap="round" stroke-linejoin="round"/>
<path d="M20.5 18V11" stroke="#1E293B" stroke-miterlimit="10" stroke-linecap="round" stroke-linejoin="round"/>
<path d="M1.5 22H23.5" stroke="#1E293B" stroke-miterlimit="10" stroke-linecap="round" stroke-linejoin="round"/>
<path d="M12.5 8.5C13.3284 8.5 14 7.82843 14 7C14 6.17157 13.3284 5.5 12.5 5.5C11.6716 5.5 11 6.17157 11 7C11 7.82843 11.6716 8.5 12.5 8.5Z" fill="#FF9900" stroke="#1E293B" stroke-miterlimit="10" stroke-linecap="round" stroke-linejoin="round"/>
</svg>
