<svg width="25" height="24" viewBox="0 0 25 24" fill="none" xmlns="http://www.w3.org/2000/svg">
<path d="M14.6699 3.646C15.0045 3.08362 15.7215 2.89613 16.2646 3.21924L16.2715 3.22412L18.002 4.21436C18.6695 4.5959 18.9 5.44881 18.5156 6.12158C18.0128 6.99896 17.9074 7.91057 18.3262 8.63428C18.7451 9.35806 19.588 9.72012 20.5996 9.72021C21.3708 9.72021 22.0022 10.3544 22.0098 11.1245V12.8804C22.0095 13.6522 21.3756 14.2796 20.6104 14.2798C19.5988 14.2798 18.7547 14.6418 18.3369 15.3667C17.9452 16.0465 18.0176 16.8906 18.4473 17.7163L18.5371 17.8804C18.919 18.5416 18.6897 19.4038 18.0215 19.7856L16.292 20.7759L16.2842 20.7798C15.7411 21.1029 15.024 20.9164 14.6895 20.354L14.583 20.1694C14.0748 19.2926 13.3375 18.7427 12.501 18.7427C11.7162 18.7428 11.0218 19.2265 10.5234 20.0103L10.4258 20.1714L10.3203 20.354C9.98574 20.9164 9.26869 21.1029 8.72559 20.7798L8.71875 20.7759L6.98828 19.7856L6.86816 19.7085C6.29418 19.2979 6.11321 18.5082 6.47363 17.8774C6.98059 17.0012 7.09021 16.0909 6.67285 15.3667C6.25513 14.6419 5.41173 14.2799 4.40039 14.2798C3.62839 14.2798 3.00024 13.6457 3 12.8804V11.1196C3.00017 10.3476 3.63492 9.72021 4.40039 9.72021C5.41157 9.72012 6.25502 9.35835 6.67285 8.63525C7.09047 7.91232 6.98081 7.00397 6.47363 6.13232H6.47461C6.11354 5.50045 6.29466 4.70162 6.86816 4.29053L6.98828 4.21436L8.71875 3.22412L8.72559 3.21924C9.27184 2.89435 9.98256 3.08713 10.2959 3.63721L10.2969 3.64014L10.4072 3.83057C10.9154 4.70727 11.6519 5.25712 12.4883 5.25732C13.325 5.25732 14.0592 4.70741 14.5625 3.83057L14.6699 3.646ZM12.5 8.24951C10.434 8.24951 8.75023 9.93356 8.75 11.9995C8.75 14.0657 10.4339 15.7495 12.5 15.7495C14.5661 15.7495 16.25 14.0657 16.25 11.9995C16.2498 9.93356 14.566 8.24951 12.5 8.24951Z" fill="#FF9900" stroke="#1E293B"/>
</svg>
