<svg width="18" height="18" viewBox="0 0 18 18" fill="none" xmlns="http://www.w3.org/2000/svg">
<path d="M8.00977 1.4375H9.97461C10.7481 1.4375 11.0625 1.66002 11.2158 1.85254C11.3969 2.07997 11.4543 2.3793 11.5137 2.74316L11.5146 2.74609L11.6719 3.67383V4.11816L12.1445 4.14453C13.3533 4.21168 14.5536 4.30073 15.7529 4.41992H15.7549C15.79 4.42327 15.8184 4.45366 15.8193 4.49316C15.8126 4.5247 15.7856 4.54785 15.7568 4.54785H15.7256C11.9883 4.17495 8.24967 4.01901 4.52832 4.3252L3.7832 4.39258L2.25391 4.54102C2.23095 4.54301 2.21541 4.53779 2.20508 4.5293C2.19436 4.52046 2.18641 4.50747 2.18457 4.48926C2.18139 4.45669 2.20581 4.42367 2.24512 4.41992H2.24609L3.77637 4.27051L3.77539 4.26953C4.46345 4.20295 5.15289 4.15933 5.85156 4.11426L6.24902 4.08789L6.31348 3.69629L6.4707 2.73633C6.534 2.3526 6.59327 2.05855 6.77148 1.83887C6.92209 1.65331 7.23337 1.4375 8.00977 1.4375Z" stroke="#EB5757"/>
<path d="M4.26074 6.3125H13.7402C13.856 6.3125 13.9709 6.35984 14.0566 6.44629C14.1384 6.53641 14.1852 6.65783 14.1787 6.78711L13.7139 14.4688C13.6705 15.0717 13.6221 15.5606 13.3574 15.9229C13.1245 16.2417 12.6314 16.5702 11.4082 16.5703H6.59277C5.3702 16.5703 4.87691 16.2399 4.64355 15.9199C4.37952 15.5576 4.33034 15.0708 4.28711 14.4746L3.82227 6.78027C3.8157 6.6594 3.86052 6.53559 3.94531 6.44336C4.01706 6.36537 4.13635 6.3125 4.26074 6.3125ZM7.74805 11.6875C7.1644 11.6875 6.68555 12.1664 6.68555 12.75C6.68555 13.3336 7.1644 13.8125 7.74805 13.8125H10.2451C10.8288 13.8125 11.3076 13.3336 11.3076 12.75C11.3076 12.1664 10.8288 11.6875 10.2451 11.6875H7.74805ZM7.125 8.6875C6.54149 8.68766 6.0625 9.16646 6.0625 9.75C6.0625 10.3335 6.54149 10.8123 7.125 10.8125H10.875C11.4586 10.8125 11.9375 10.3336 11.9375 9.75C11.9375 9.16636 11.4586 8.6875 10.875 8.6875H7.125Z" stroke="#EB5757"/>
</svg>
